<svg width="324" height="411" viewBox="0 0 324 411" fill="none" xmlns="http://www.w3.org/2000/svg">
<g filter="url(#filter0_ddddii)">
<path d="M166.435 15.7865C170.315 14.8856 174.378 15.3259 178.272 15.9152C179.079 20.3185 178.672 24.7894 178.713 29.2333C178.76 39.5911 178.15 49.9352 178.157 60.2998C178.292 64.9807 177.058 69.6617 178.041 74.3088C184.655 74.5798 191.268 73.9904 197.882 74.2614C198.913 79.0846 197.801 83.9756 197.957 88.8394C198.052 93.6085 197.577 98.3843 198.106 103.14C199.924 103.228 201.749 103.302 203.573 103.153C211.014 102.408 218.517 103.106 225.958 102.273C230.591 102.225 235.298 101.588 239.884 102.469C240.515 107.394 240.338 112.346 240.108 117.291C240.291 122.257 240.46 127.229 240.094 132.194C239.965 145.973 239.857 159.758 239.992 173.537C244.53 175.746 249.285 177.466 253.857 179.614C254.251 181.626 254.658 183.644 254.692 185.704C254.759 196.935 254.664 208.167 254.692 219.405C257.778 221.492 261.285 222.745 264.785 223.944C266.026 224.52 267.844 224.845 268.136 226.43C269.052 232.5 267.661 238.583 267.274 244.639C266.915 250.6 265.355 256.399 263.666 262.103C260.532 272.075 257.181 282.039 252.338 291.327C250.574 295.168 248.865 299.043 246.694 302.674C244.625 306.101 243.479 310.064 240.969 313.221C239.891 314.678 237.91 314.027 236.702 313.126C234.172 311.365 231.357 309.983 229.071 307.903C228.312 305.316 230.638 303.256 231.696 301.122C238.405 289.308 243.967 276.823 248.234 263.939C249.367 257.998 253.036 252.788 253.267 246.658C253.484 243.013 254.766 239.504 254.766 235.846C253.274 234.485 251.3 233.875 249.462 233.143C240.996 229.831 232.449 226.728 224.004 223.348C218.883 220.916 213.551 218.951 208.342 216.723C204.57 215.09 200.521 214.101 196.993 211.947C193.894 210.07 190.353 209.183 187.09 207.666C181.535 204.956 175.633 203.039 170.071 200.329C166.32 198.961 162.738 197.064 158.892 195.987C147.483 201.318 135.958 206.507 124.461 211.696C118.525 213.356 113.472 217.088 107.543 218.728C103.568 220.008 99.9664 222.183 96.0253 223.538C88.6181 226.755 81.0005 229.451 73.6679 232.852C70.378 234.451 66.905 235.629 63.4252 236.754C62.9707 240.818 64.0493 244.775 64.8022 248.731C65.5484 253.344 67.3323 257.679 68.8993 262.056C70.8257 268.03 73.227 273.843 75.886 279.533C79.6778 285.853 82.1944 292.838 86.0133 299.151C87.9669 302.538 90.8158 305.654 91.3653 309.651C89.4592 312.185 86.6577 313.851 84.0462 315.585C82.8727 316.418 80.7563 316.893 79.9627 315.335C76.9849 310.545 74.1223 305.661 71.7821 300.513C67.2781 291.367 62.6248 282.283 58.7312 272.854C56.1332 267.57 54.5528 261.852 53.1622 256.148C52.4771 250.228 50.3946 244.544 50.0962 238.569C49.9198 235.182 49.7095 231.775 50.0826 228.395C50.0487 227.358 51.0323 226.864 51.8056 226.444C55.5702 224.466 59.9115 223.517 63.2692 220.814C63.4388 219.968 63.5337 219.114 63.5473 218.254C63.4863 205.708 63.2149 193.155 63.527 180.609C68.1938 177.785 73.7018 176.694 78.3008 173.788C78.9859 171.512 78.6264 169.08 78.7078 166.743C78.4907 154.319 79.0537 141.902 78.8774 129.478C79.0063 120.455 78.8774 111.425 78.9723 102.401C87.4514 100.559 96.005 103.18 104.538 102.754C107.231 102.659 109.897 103.268 112.583 103.187C114.123 102.903 114.428 101.006 114.421 99.6917C114.476 92.6736 114.462 85.6556 114.421 78.6443C114.455 76.9981 114.367 74.1462 116.755 74.3427C122.134 74.0988 127.547 74.214 132.899 74.8236C133.971 74.8846 135.755 75.1014 135.992 73.6652C136.541 69.4923 135.985 65.2585 136.352 61.0652C136.786 56.3436 136.406 51.6017 136.636 46.8733C136.677 45.9791 136.813 44.6243 137.973 44.5769C141.751 44.333 145.556 44.5701 149.335 44.8411C150.162 54.623 149.233 64.4727 149.626 74.2817C154.361 74.3291 159.102 74.5527 163.83 74.2817C164.495 70.6846 164.549 67.0198 164.522 63.3685C164.841 48.2349 164.292 33.0811 165.228 17.9611C165.37 17.182 165.445 15.9356 166.435 15.7865ZM127.662 89.3814C127.303 93.8727 126.991 98.4249 127.744 102.896C130.844 103.458 133.991 103.512 137.125 103.451C146.832 103.58 156.532 103.675 166.232 103.377C172.119 103.208 178.014 103.614 183.895 103.167C184.322 98.5943 184.289 93.9878 184.038 89.4085C177.431 89.2594 170.831 89.4491 164.231 89.3611C152.041 89.422 139.838 88.8259 127.662 89.3814ZM92.03 116.004C92.0368 133.319 91.9486 150.627 92.03 167.942C96.5205 167.969 100.19 165.036 104.274 163.606C114.089 159.833 123.572 155.267 133.306 151.291C137.769 149.529 141.527 146.461 145.882 144.496C149.314 142.898 152.964 141.875 156.484 140.52C157.936 140.025 159.509 139.219 161.042 139.91C164.787 141.231 168.172 143.358 171.875 144.774C190.102 151.453 207.569 159.996 225.503 167.366C225.815 166.052 226.134 164.724 226.168 163.369C226.216 148.005 226.209 132.641 226.378 117.278C220.145 116.763 213.877 117.095 207.643 117.413C183.454 117.786 159.258 117.366 135.063 117.555C133.068 117.521 131.088 117.338 129.1 117.176C123.938 116.763 118.736 117.311 113.594 116.614C109.463 116.092 105.298 116.39 101.153 116.329C98.1078 116.316 95.0825 115.801 92.03 116.004ZM153.723 156.344C146.594 159.596 139.546 163.017 132.39 166.208C119.807 171.661 107.503 177.717 94.7908 182.865C89.5135 185.406 83.9648 187.309 78.6467 189.741C76.9984 190.317 77.3105 192.403 77.1612 193.792C77.2562 200.925 77.0527 208.065 77.4122 215.192C83.8563 214.054 89.7916 211.222 95.7337 208.614C101.56 206.351 107.143 203.506 113.058 201.474C118.05 199.652 122.622 196.868 127.649 195.127C132.872 193.338 137.518 190.242 142.741 188.468C147.754 186.652 152.414 184.024 157.366 182.079C160.127 180.975 162.86 182.818 165.377 183.773C170.634 186.368 176.21 188.23 181.514 190.717C184.947 192.308 188.813 192.688 192.184 194.442C194.999 195.892 197.814 197.348 200.772 198.507C210.445 202.294 219.948 206.487 229.607 210.301C233.521 211.459 237.232 213.41 241.342 213.769C241.281 205.748 241.58 197.714 241.139 189.707C234.946 188.088 229.16 185.324 223.278 182.858C215.919 179.878 208.742 176.47 201.342 173.591C197.543 172.013 194.328 169.303 190.461 167.854C186.561 166.411 182.857 164.528 179.045 162.895C172.9 160.449 167.303 156.818 161.124 154.454C158.499 153.377 156.036 155.376 153.723 156.344Z" fill="#EFF1F4"/>
<path d="M260.403 323.68C263.734 321.505 267.906 319.988 271.874 321.187C276.5 322.359 279.525 326.295 283.297 328.909C285.915 330.705 288.398 333.143 291.721 333.455C295.54 334.017 299.386 332.825 303.199 333.374C304.908 333.516 305.234 335.365 305.356 336.747C305.763 340.053 305.579 343.406 305.084 346.698C297.392 347.464 289.042 348.372 281.96 344.551C276.588 342.234 273.753 336.368 268.156 334.444C263.408 338.149 260.268 343.589 255.126 346.827C249.733 350.323 243.025 350.837 236.777 350.438C230.34 350.052 224.568 346.421 220.233 341.841C218.686 340.344 217.235 338.542 215.105 337.892C211.896 338.969 210.153 342.16 207.738 344.321C203.729 348.107 199.259 352.307 193.473 352.761C188.895 353.127 184.146 353.723 179.683 352.307C175.321 350.898 171.387 348.277 168.26 344.951C166.693 343.359 165.303 341.577 163.491 340.256C162.25 339.26 160.229 339.26 159.164 340.52C156.871 342.756 155.148 345.52 152.72 347.626C143.779 356.243 128.415 356.711 118.743 349.042C114.788 346.333 112.02 341.726 107.231 340.405C103.155 341.916 101.147 346.387 97.5518 348.724C90.1038 355.342 78.8301 355.938 69.8763 352.274C64.3072 349.638 59.9728 345.106 55.679 340.812C54.7022 339.965 53.5626 338.712 52.1246 339.193C49.7912 340.683 48.2853 343.108 46.2232 344.917C42.7705 347.992 38.8566 350.79 34.3186 351.969C30.6964 353.053 26.8842 352.802 23.1535 352.782C21.0439 352.7 18.8258 352.782 16.8519 351.901C15.6512 351.474 15.6919 350.031 15.5088 349.002C15.1967 345.357 15.3528 341.692 15.6173 338.055C21.8172 336.95 28.8581 339.707 34.3526 335.711C38.8702 333.082 41.0408 327.765 45.7958 325.475C49.6623 323.558 54.4784 323.537 58.3787 325.366C64.9381 328.957 68.757 336.198 75.7709 339.132C80.1868 340.629 85.4437 339.924 89.0524 336.869C93.7396 333.678 97.1787 328.808 102.422 326.444C106.343 324.56 111.016 325.861 114.476 328.151C118.505 331.064 121.822 334.823 125.621 338.014C130.674 342.017 138.326 341.435 143.182 337.404C147.809 333.435 151.661 328.313 157.359 325.786C161.599 323.951 166.381 325.773 169.8 328.469C173.877 331.544 176.787 336.063 181.392 338.434C185.842 340.439 191.377 340.127 195.474 337.418C199.904 334.674 202.115 329.573 206.517 326.782C210.309 323.7 215.838 322.372 220.335 324.709C225.144 327.412 229.16 331.267 233.379 334.769C235.427 336.469 237.958 337.878 240.712 337.702C244.89 337.526 248.431 334.972 251.605 332.5C254.956 329.973 256.849 325.969 260.403 323.68Z" fill="#EFF1F4"/>
<path d="M212.745 362.035C217.459 360.274 222.295 363.031 225.952 365.856C229.608 368.43 232.307 372.346 236.499 374.134C240.352 375.387 244.822 375.313 248.465 373.416C251.456 371.709 253.308 368.694 255.404 366.066C259.535 366.235 263.666 367.156 267.295 369.195C264.372 377.385 257.297 383.503 249.381 386.734C245.223 388.583 240.522 388.156 236.106 387.94C229.092 386.869 224.018 381.45 218.978 376.959C217.73 376.071 216.055 374.059 214.474 375.428C211.388 377.988 208.973 381.267 205.866 383.814C199.829 389.261 191.262 391.571 183.265 390.405C177.201 389.335 171.977 385.691 167.914 381.193C165.974 379.56 164.055 376.701 161.213 377.162C158.33 379.411 155.996 382.297 153.249 384.715C148.433 389.782 141.256 392.065 134.385 392.072C127.181 392.228 120.303 388.658 115.372 383.57C113.106 381.497 111.091 378.808 108.046 377.88C105.38 379.546 103.433 382.073 101.181 384.221C98.115 387.371 94.5199 390.128 90.3211 391.557C86.4072 393.054 82.1474 392.844 78.0367 392.749C74.2517 392.702 70.799 390.934 67.5092 389.24C62.8559 386.903 59.6067 382.635 56.8867 378.341C55.6453 376.613 55.842 374.439 55.9167 372.434C59.8713 371.472 63.7513 370.218 67.5838 368.864C69.9104 372.129 71.9454 376.159 75.995 377.548C80.6483 379.418 86.0545 378.151 89.8667 375.048C94.5946 371.743 97.8912 366.398 103.508 364.433C106.574 363.824 109.877 363.729 112.916 364.535C117.624 366.669 121.185 370.577 124.787 374.168C127.507 377.236 131.651 378.761 135.728 378.476C140.218 378.327 143.753 375.197 147.015 372.461C151.275 368.742 155.399 363.824 161.491 363.498C167.623 362.855 172.154 367.692 176.251 371.485C179.344 374.696 183.366 377.338 187.945 377.541C192.239 377.602 196.526 375.787 199.456 372.65C203.499 368.701 207.074 363.729 212.745 362.035Z" fill="#EFF1F4"/>
</g>
<path fill-rule="evenodd" clip-rule="evenodd" d="M167.377 253.789L160 232.125L152.623 253.789H127.625L147.85 267.815L140.344 289.875L160 276.242L179.656 289.875L172.15 267.815L192.375 253.789H167.377Z" fill="#F70F00"/>
<defs>
<filter id="filter0_ddddii" x="0.335938" y="0.272583" width="323.243" height="410.544" filterUnits="userSpaceOnUse" color-interpolation-filters="sRGB">
<feFlood flood-opacity="0" result="BackgroundImageFix"/>
<feColorMatrix in="SourceAlpha" type="matrix" values="0 0 0 0 0 0 0 0 0 0 0 0 0 0 0 0 0 0 127 0"/>
<feOffset dx="5" dy="5"/>
<feGaussianBlur stdDeviation="6.5"/>
<feColorMatrix type="matrix" values="0 0 0 0 0.843137 0 0 0 0 0.85098 0 0 0 0 0.862745 0 0 0 0.9 0"/>
<feBlend mode="normal" in2="BackgroundImageFix" result="effect1_dropShadow"/>
<feColorMatrix in="SourceAlpha" type="matrix" values="0 0 0 0 0 0 0 0 0 0 0 0 0 0 0 0 0 0 127 0"/>
<feOffset dx="-5" dy="-5"/>
<feGaussianBlur stdDeviation="5"/>
<feColorMatrix type="matrix" values="0 0 0 0 1 0 0 0 0 1 0 0 0 0 1 0 0 0 0.9 0"/>
<feBlend mode="normal" in2="effect1_dropShadow" result="effect2_dropShadow"/>
<feColorMatrix in="SourceAlpha" type="matrix" values="0 0 0 0 0 0 0 0 0 0 0 0 0 0 0 0 0 0 127 0"/>
<feOffset dx="5" dy="-5"/>
<feGaussianBlur stdDeviation="5"/>
<feColorMatrix type="matrix" values="0 0 0 0 0.843137 0 0 0 0 0.85098 0 0 0 0 0.862745 0 0 0 0.2 0"/>
<feBlend mode="normal" in2="effect2_dropShadow" result="effect3_dropShadow"/>
<feColorMatrix in="SourceAlpha" type="matrix" values="0 0 0 0 0 0 0 0 0 0 0 0 0 0 0 0 0 0 127 0"/>
<feOffset dx="-5" dy="5"/>
<feGaussianBlur stdDeviation="5"/>
<feColorMatrix type="matrix" values="0 0 0 0 0.843137 0 0 0 0 0.85098 0 0 0 0 0.862745 0 0 0 0.2 0"/>
<feBlend mode="normal" in2="effect3_dropShadow" result="effect4_dropShadow"/>
<feBlend mode="normal" in="SourceGraphic" in2="effect4_dropShadow" result="shape"/>
<feColorMatrix in="SourceAlpha" type="matrix" values="0 0 0 0 0 0 0 0 0 0 0 0 0 0 0 0 0 0 127 0" result="hardAlpha"/>
<feOffset dx="-1" dy="-1"/>
<feGaussianBlur stdDeviation="1"/>
<feComposite in2="hardAlpha" operator="arithmetic" k2="-1" k3="1"/>
<feColorMatrix type="matrix" values="0 0 0 0 0.843137 0 0 0 0 0.85098 0 0 0 0 0.862745 0 0 0 0.5 0"/>
<feBlend mode="normal" in2="shape" result="effect5_innerShadow"/>
<feColorMatrix in="SourceAlpha" type="matrix" values="0 0 0 0 0 0 0 0 0 0 0 0 0 0 0 0 0 0 127 0" result="hardAlpha"/>
<feOffset dx="1" dy="1"/>
<feGaussianBlur stdDeviation="1"/>
<feComposite in2="hardAlpha" operator="arithmetic" k2="-1" k3="1"/>
<feColorMatrix type="matrix" values="0 0 0 0 1 0 0 0 0 1 0 0 0 0 1 0 0 0 0.3 0"/>
<feBlend mode="normal" in2="effect5_innerShadow" result="effect6_innerShadow"/>
</filter>
</defs>
</svg>
