<svg width="16" height="16" viewBox="0 0 16 16" fill="none" xmlns="http://www.w3.org/2000/svg">
<path d="M8.09062 1.49999C4.43499 1.45062 1.45062 4.43499 1.49999 8.09062C1.54874 11.5966 4.40343 14.4512 7.90937 14.5C11.5656 14.55 14.5494 11.5656 14.4994 7.90999C14.4512 4.40343 11.5966 1.54874 8.09062 1.49999ZM12.0412 11.7266C12.0288 11.74 12.0135 11.7506 11.9966 11.7575C11.9796 11.7644 11.9613 11.7675 11.943 11.7665C11.9247 11.7656 11.9068 11.7606 11.8906 11.752C11.8744 11.7433 11.8603 11.7312 11.8494 11.7166C11.5699 11.3509 11.2275 11.0378 10.8384 10.7919C10.0428 10.2812 9.03468 9.99999 7.99999 9.99999C6.96531 9.99999 5.95718 10.2812 5.16156 10.7919C4.77245 11.0376 4.43015 11.3506 4.15062 11.7162C4.13964 11.7309 4.12556 11.743 4.10939 11.7516C4.09321 11.7603 4.07533 11.7653 4.05702 11.7662C4.03871 11.7672 4.02042 11.7641 4.00343 11.7572C3.98645 11.7503 3.97119 11.7397 3.95874 11.7262C3.04177 10.7364 2.52234 9.4429 2.49999 8.09374C2.44906 5.05281 4.94437 2.50749 7.98656 2.49999C11.0287 2.49249 13.5 4.96281 13.5 7.99999C13.501 9.38168 12.98 10.7127 12.0412 11.7266Z" fill="#646571"/>
<path d="M8.00002 4.5C7.38376 4.5 6.82658 4.73094 6.43064 5.15063C6.0347 5.57031 5.83689 6.15062 5.88158 6.77344C5.9722 8 6.92251 9 8.00002 9C9.07752 9 10.026 8 10.1185 6.77375C10.1647 6.15687 9.96845 5.58188 9.56595 5.15438C9.16845 4.7325 8.6122 4.5 8.00002 4.5Z" fill="#646571"/>
</svg>
