<svg width="48" height="48" viewBox="0 0 48 48" fill="none" xmlns="http://www.w3.org/2000/svg">
<g clip-path="url(#clip0)">
<path d="M47.8696 35.5291C47.7367 35.3423 47.5217 35.231 47.2925 35.231H42.546C42.8441 35.1621 43.1536 35.1035 43.4454 35.0094C44.502 34.6688 45.7643 33.4135 45.7771 29.3665C45.7859 26.4675 45.1366 22.8413 43.9482 19.1554C42.7603 15.4691 41.1694 12.1461 39.4695 9.79835C37.0957 6.52076 35.3379 6.23877 34.281 6.57935C34.2056 6.60352 34.1294 6.63318 34.0525 6.66724C33.2179 6.99866 29.2412 8.6316 25.1334 11.2383C24.8331 11.4287 24.7203 11.8264 24.8764 12.1458C25.0595 12.5197 25.5396 12.6563 25.8919 12.4332C28.3081 10.8999 30.6764 9.71302 32.3525 8.94251C32.1087 9.75257 31.9537 10.8197 31.9493 12.2227C31.9406 15.1212 32.5899 18.7478 33.7778 22.4337C34.1049 23.4478 34.467 24.4475 34.8541 25.4052C35.001 25.7677 35.4133 25.9424 35.7755 25.7963C36.1381 25.6494 36.3128 25.2371 36.1663 24.8749C35.7916 23.9484 35.4415 22.9812 35.1251 21.9994C32.5551 14.027 33.1542 8.42982 34.7153 7.92664C36.2758 7.42237 40.0313 11.6169 42.6013 19.5894C45.1714 27.5621 44.5719 33.1593 43.0111 33.6625C41.8927 34.0228 39.5742 31.9933 37.3052 27.4171C37.1312 27.067 36.7068 26.9238 36.3567 27.0974C36.0066 27.271 35.8634 27.6958 36.037 28.0459C37.4978 30.9921 39.0491 33.1044 40.5121 34.2173C38.2141 34.6674 34.6384 35.2196 30.8855 35.231C30.5988 35.231 30.312 35.2295 30.0253 35.224C26.6144 35.1566 23.7601 34.6161 21.5416 33.6174C18.8899 32.4236 17.1372 30.553 16.3326 28.0573C15.5116 25.5092 15.8727 22.9138 17.4067 20.343C18.6826 18.2051 20.7634 16.0704 23.591 13.9992C23.9063 13.7684 23.9747 13.3253 23.7437 13.0104C23.5126 12.6951 23.0698 12.6266 22.7545 12.8577C19.7732 15.0414 17.5649 17.3163 16.1913 19.6179C15.0355 21.5548 14.4661 23.5133 14.4855 25.4696L9.17762 27.1809C8.33167 25.8871 6.68812 25.2704 5.16981 25.7596C3.33143 26.3525 2.31812 28.3301 2.91065 30.1681C3.14613 30.8983 3.61268 31.5242 4.23048 31.9581C3.98255 32.6719 3.96937 33.4519 4.20484 34.1825C4.32862 34.5663 4.51393 34.9193 4.75123 35.231H0.691781C0.145029 35.3148 -0.0776277 35.6287 0.0238127 36.1725C1.13893 39.3585 4.15614 41.4994 7.5315 41.4994H11.5368C11.9275 41.4994 12.2446 41.1826 12.2446 40.7915C12.2446 40.4008 11.9275 40.084 11.5368 40.084H7.5315C5.10389 40.084 2.90186 38.7371 1.77503 36.6464H46.2092C45.082 38.7371 42.88 40.084 40.4528 40.084H14.3676C13.9768 40.084 13.6597 40.4008 13.6597 40.7915C13.6597 41.1826 13.9768 41.4994 14.3676 41.4994H40.4528C43.8281 41.4994 46.8453 39.3585 47.9605 36.1725C48.0359 35.9561 48.0022 35.7162 47.8696 35.5291ZM5.60414 27.1069C6.63685 26.7737 7.76624 27.2996 8.1753 28.3034C8.3152 28.6461 8.69532 28.8234 9.04798 28.7098L14.6085 26.9172C14.692 27.4428 14.8173 27.9675 14.9857 28.4912C15.1571 29.023 15.3622 29.5214 15.5973 29.9898L10.0382 31.782C9.68592 31.8955 9.48048 32.2614 9.56727 32.6213C9.82142 33.6749 9.21131 34.7615 8.1786 35.094C7.64832 35.2654 7.0829 35.2192 6.58668 34.9651C6.09046 34.7109 5.72315 34.2788 5.55177 33.7478C5.36683 33.1736 5.44007 32.547 5.75282 32.0285C5.85865 31.853 5.88319 31.6406 5.82057 31.4458C5.75758 31.2506 5.61329 31.0928 5.42506 31.0122C4.86878 30.7742 4.44325 30.308 4.25794 29.7334C3.90492 28.6384 4.5088 27.46 5.60414 27.1069ZM10.3173 35.231C10.8076 34.5864 11.0735 33.7789 11.0365 32.9473L16.3411 31.2374C17.662 33.1183 19.5538 34.3934 21.7328 35.231H10.3173Z" fill="#3F5883"/>
<path d="M40.4536 26.8261C40.5649 26.8261 40.677 26.8089 40.7902 26.7726C42.7153 26.1519 41.2076 21.1406 40.8861 20.1424C40.5642 19.1441 38.861 14.1954 36.9362 14.8165C35.8533 15.1655 35.9587 16.8439 35.9935 17.3958C36.0653 18.5369 36.3656 19.9754 36.8399 21.4468C37.1427 22.3861 38.6694 26.8261 40.4536 26.8261ZM37.4258 16.336C37.8964 16.8058 38.7797 18.2212 39.5388 20.5767C40.298 22.9318 40.4078 24.5969 40.3002 25.2528C39.8296 24.7834 38.9463 23.3676 38.1868 21.0125C37.428 18.657 37.3181 16.9918 37.4258 16.336Z" fill="#3F5883"/>
</g>
<defs>
<clipPath id="clip0">
<rect width="48" height="48" fill="white"/>
</clipPath>
</defs>
</svg>
