<svg width="48" height="48" viewBox="0 0 48 48" fill="none" xmlns="http://www.w3.org/2000/svg">
<g clip-path="url(#clip0)">
<path d="M7.96217 36.9354C7.96217 35.5065 6.79967 34.344 5.37073 34.344C3.9418 34.344 2.7793 35.5065 2.7793 36.9354C2.7793 38.3644 3.9418 39.5269 5.37073 39.5269C6.79967 39.5269 7.96217 38.3644 7.96217 36.9354ZM5.37073 38.1206C4.7172 38.1206 4.18555 37.589 4.18555 36.9354C4.18555 36.2819 4.7172 35.7502 5.37073 35.7502C6.02427 35.7502 6.55592 36.2819 6.55592 36.9354C6.55592 37.589 6.02427 38.1206 5.37073 38.1206Z" fill="#3F5883"/>
<path d="M31.9703 43.8548C33.3992 43.8548 34.5618 42.6923 34.5618 41.2633C34.5618 39.8344 33.3993 38.6719 31.9703 38.6719C30.5414 38.6719 29.3789 39.8344 29.3789 41.2633C29.3789 42.6923 30.5415 43.8548 31.9703 43.8548ZM31.9703 40.0781C32.6239 40.0781 33.1555 40.6098 33.1555 41.2633C33.1555 41.9168 32.6239 42.4485 31.9703 42.4485C31.3168 42.4485 30.7852 41.9168 30.7852 41.2633C30.7852 40.6098 31.3168 40.0781 31.9703 40.0781Z" fill="#3F5883"/>
<path d="M40.7555 24.9844C42.1844 24.9844 43.347 23.8219 43.347 22.393C43.347 20.964 42.1845 19.8015 40.7555 19.8015C39.3267 19.8015 38.1641 20.964 38.1641 22.393C38.1641 23.8219 39.3267 24.9844 40.7555 24.9844ZM40.7555 21.2078C41.409 21.2078 41.9408 21.7394 41.9408 22.393C41.9408 23.0465 41.409 23.5781 40.7555 23.5781C40.102 23.5781 39.5703 23.0465 39.5703 22.393C39.5703 21.7394 40.102 21.2078 40.7555 21.2078Z" fill="#3F5883"/>
<path d="M33.0016 13.4797C34.4304 13.4797 35.593 12.3172 35.593 10.8883C35.593 9.45937 34.4304 8.29688 33.0016 8.29688C31.5727 8.29688 30.4102 9.45937 30.4102 10.8883C30.4102 12.3172 31.5727 13.4797 33.0016 13.4797ZM33.0016 9.70312C33.6551 9.70312 34.1868 10.2348 34.1868 10.8883C34.1868 11.5418 33.6551 12.0735 33.0016 12.0735C32.3481 12.0735 31.8164 11.5418 31.8164 10.8883C31.8164 10.2348 32.3481 9.70312 33.0016 9.70312Z" fill="#3F5883"/>
<path d="M45.1576 46.6541C44.5651 45.079 43.3854 43.8281 41.9264 43.1141C42.1715 42.1709 42.5077 41.2498 42.9372 40.3588C43.0809 40.0606 43.2104 39.7424 43.322 39.413C43.4464 39.0452 43.2492 38.646 42.8813 38.5216C42.5137 38.3969 42.1144 38.5943 41.9899 38.9622C41.8969 39.2373 41.7893 39.5017 41.6706 39.7481C41.4887 40.1254 41.3224 40.5077 41.1706 40.8942C40.9977 39.5159 40.6247 38.1661 40.0534 36.8513C40.7918 34.4783 41.0604 32.1981 41.1366 30.4497C41.7482 31.9673 42.3466 33.9361 42.4047 35.9269C42.4162 36.315 42.7425 36.6212 43.1281 36.6091C43.5163 36.5978 43.8218 36.274 43.8104 35.8857C43.6777 31.3463 41.0775 27.0905 40.9668 26.9115C40.7936 26.6314 40.4492 26.509 40.1381 26.617C39.8271 26.725 39.6325 27.0345 39.6702 27.3616C39.6754 27.4059 40.0563 30.902 39.1061 34.9704C37.0947 31.225 35.7775 28.3063 35.4048 25.564C35.0527 22.9732 35.4563 20.4669 36.8937 16.3162C37.0214 15.9465 36.8655 15.5414 36.5228 15.3529C36.1813 15.1649 35.7564 15.2497 35.5131 15.5547C34.7299 16.5369 32.8036 19.2124 31.8347 22.837C30.611 27.4148 31.2968 31.8183 33.8729 35.9253C35.3381 38.2613 36.3669 40.5716 36.9526 42.8237C35.192 43.4466 33.7405 44.8152 33.0491 46.5938H30.3472C29.8236 45.2465 28.8633 44.1351 27.6634 43.404C27.8714 41.83 28.3272 40.3037 29.0253 38.8558C31.7737 33.1556 27.2488 25.7221 27.0548 25.4085C26.8814 25.1284 26.5368 25.0061 26.2261 25.1141C25.915 25.2221 25.7205 25.5316 25.7582 25.8587C25.7643 25.9115 26.3062 30.8794 24.4819 35.8697C24.1803 34.3503 24.0097 32.7012 24.0634 30.9587C24.0754 30.5706 23.7704 30.2462 23.3823 30.2342C22.9915 30.2226 22.6697 30.5273 22.6578 30.9154C22.5739 33.6358 23.0015 36.1389 23.6311 38.3006C23.3465 39.5935 23.356 40.9931 23.6615 42.4886C22.9272 42.5632 22.2207 42.762 21.5686 43.0683C21.37 42.8858 21.1633 42.7117 20.9481 42.5483C20.753 42.4001 20.553 42.2609 20.3487 42.1305C21.5183 39.206 22.1318 35.436 20.8123 31.0893C20.5293 30.1569 20.2686 29.2688 20.0332 28.4189C20.5117 26.2895 21.2479 24.07 22.3348 21.8271C24.3563 17.6558 25.4384 13.343 25.5512 9.00873C25.5852 7.69979 25.5277 6.48938 25.4153 5.39354C25.8299 6.6467 26.1914 8.05754 26.4235 9.59851C27.1033 14.1101 26.485 18.5115 24.586 22.6805C23.8753 24.2407 23.3531 25.8699 23.0337 27.5226C22.9601 27.9039 23.2095 28.2726 23.5907 28.3463C23.9722 28.4199 24.3408 28.1705 24.4145 27.7893C24.7127 26.2454 25.2009 24.7227 25.8656 23.2634C30.5363 13.0095 26.6845 3.90666 24.8116 0.46885C24.591 0.0643183 24.104 -0.107432 23.6789 0.0695683C23.2543 0.246193 23.0331 0.71185 23.1644 1.15238C23.6612 2.8231 24.2347 5.53604 24.1453 8.97226C24.0379 13.1051 23.0029 17.2239 21.0693 21.2139C20.3489 22.7005 19.7764 24.1769 19.3259 25.6257C18.7921 23.2437 18.541 21.1739 18.6742 19.2588C18.8767 16.3464 19.888 13.6924 22.4057 9.46651C22.6057 9.13098 22.5355 8.7031 22.239 8.44895C21.943 8.19526 21.51 8.19132 21.2099 8.43957C20.1458 9.31866 17.4681 11.7633 15.591 15.4668C13.2036 20.1772 12.9496 25.129 14.8361 30.1849C15.2378 31.2615 15.6333 32.4911 15.954 33.8215C13.9788 30.1334 12.686 27.2483 12.3172 24.5352C11.965 21.9444 12.3686 19.438 13.8059 15.2879C13.934 14.9182 13.7782 14.5129 13.4354 14.3242C13.0936 14.136 12.6686 14.2208 12.4256 14.5259C11.6424 15.5079 9.71616 18.1834 8.74725 21.8081C7.52353 26.3859 8.20931 30.7895 10.7854 34.8965C12.0728 36.949 13.0227 38.9817 13.6321 40.9727C10.7067 41.64 8.25684 43.7669 7.23609 46.6804C7.13025 46.9825 7.17778 47.319 7.36331 47.5806C7.54959 47.8434 7.85316 48.0003 8.175 48.0003H13.4598C13.8482 48.0003 14.1629 47.6855 14.1629 47.2972C14.1629 46.9089 13.8482 46.5941 13.4598 46.5941H8.78184C9.96619 43.9171 12.6351 42.1566 15.5982 42.1566C17.239 42.1566 18.795 42.6794 20.098 43.6686C20.1716 43.7245 20.2437 43.782 20.315 43.8405C19.4103 44.548 18.6895 45.492 18.2612 46.594H16.7415C16.3531 46.594 16.0384 46.9088 16.0384 47.2971C16.0384 47.6854 16.3531 48.0002 16.7415 48.0002H44.228C44.5538 48.0002 44.859 47.8403 45.0445 47.5723C45.2305 47.3034 45.2729 46.9601 45.1576 46.6541ZM25.3965 37.3766C26.7144 34.3099 27.1268 31.1915 27.2245 28.9481C28.2392 31.4649 29.2177 35.2192 27.7586 38.245C27.0596 39.6949 26.5822 41.2168 26.3317 42.7855C25.9362 42.6535 25.526 42.559 25.1056 42.5058C24.6619 40.5857 24.7569 38.865 25.3965 37.3766ZM16.8458 16.1023C17.5354 14.7417 18.3402 13.5628 19.1241 12.5826C17.9712 15.0289 17.4187 17.0499 17.2718 19.1611C17.0935 21.7258 17.3986 24.6841 19.467 31.4978C20.652 35.4013 20.1316 38.8027 19.0972 41.4661C18.7461 41.3147 18.3857 41.1877 18.018 41.0838C18.239 38.1341 17.8814 34.3221 16.1542 29.6932C14.4106 25.0205 14.6433 20.4479 16.8458 16.1023ZM15.0397 40.7693C14.3969 38.5926 13.3747 36.3773 11.9771 34.149C9.61688 30.3862 8.98744 26.3562 10.1063 22.171C10.4049 21.0538 10.8015 20.0334 11.2248 19.1354C10.7674 21.2443 10.6873 22.9799 10.9243 24.7244C11.3455 27.8236 12.8365 31.0341 15.1058 35.2097C15.9275 36.7214 16.4489 38.2891 16.6691 39.8995C16.6635 40.2019 16.6502 40.5055 16.6302 40.8098C16.2902 40.7707 15.9459 40.75 15.5984 40.75C15.4109 40.75 15.2248 40.7576 15.0397 40.7693ZM26.6266 46.5938H19.8033C20.6653 44.9472 22.4005 43.8607 24.3043 43.8607C26.208 43.8607 27.9431 44.9471 28.8053 46.5938H26.6266ZM35.0642 35.178C32.7039 31.4152 32.0744 27.3852 33.1932 23.2C33.492 22.0827 33.8886 21.0624 34.3119 20.1642C33.8545 22.2731 33.7744 24.0089 34.0114 25.7534C34.4326 28.8526 35.9236 32.0631 38.1929 36.2386C39.28 38.239 39.8406 40.3374 39.8738 42.503C39.6162 42.4712 39.3551 42.4544 39.0915 42.4544C38.8319 42.4544 38.5749 42.4706 38.3213 42.5015C37.7006 40.0995 36.6127 37.6466 35.0642 35.178ZM34.5905 46.5938C35.4525 44.9472 37.1877 43.8607 39.0914 43.8607C40.9881 43.8607 42.7281 44.9374 43.5931 46.5938H34.5905Z" fill="#3F5883"/>
</g>
<defs>
<clipPath id="clip0">
<rect width="48" height="48" fill="white"/>
</clipPath>
</defs>
</svg>
