<svg width="48" height="48" viewBox="0 0 48 48" fill="none" xmlns="http://www.w3.org/2000/svg">
<path d="M14.625 9C14.9958 9 15.3584 8.89003 15.6667 8.684C15.975 8.47798 16.2154 8.18514 16.3573 7.84253C16.4992 7.49992 16.5363 7.12292 16.464 6.75921C16.3916 6.39549 16.2131 6.0614 15.9508 5.79918C15.6886 5.53695 15.3545 5.35838 14.9908 5.28603C14.6271 5.21368 14.2501 5.25081 13.9075 5.39273C13.5649 5.53464 13.272 5.77496 13.066 6.08331C12.86 6.39165 12.75 6.75416 12.75 7.125C12.7506 7.62211 12.9483 8.09869 13.2998 8.4502C13.6513 8.8017 14.1279 8.99943 14.625 9ZM14.625 6.75C14.6992 6.75 14.7717 6.77199 14.8333 6.8132C14.895 6.8544 14.9431 6.91297 14.9715 6.98149C14.9998 7.05002 15.0073 7.12542 14.9928 7.19816C14.9783 7.2709 14.9426 7.33772 14.8902 7.39016C14.8377 7.44261 14.7709 7.47832 14.6982 7.49279C14.6254 7.50726 14.55 7.49984 14.4815 7.47145C14.413 7.44307 14.3544 7.39501 14.3132 7.33334C14.272 7.27167 14.25 7.19917 14.25 7.125C14.2501 7.02558 14.2897 6.93026 14.36 6.85996C14.4303 6.78966 14.5256 6.75011 14.625 6.75Z" fill="#3F5883"/>
<path d="M15 18C16.9884 17.9978 18.8948 17.2069 20.3008 15.8008C21.7069 14.3948 22.4978 12.4884 22.5 10.5H21C20.9982 12.0907 20.3655 13.6158 19.2406 14.7406C18.1158 15.8655 16.5907 16.4982 15 16.5V18Z" fill="#3F5883"/>
<path d="M24.3293 24.6373C24.7993 24.0819 25.1765 23.4542 25.4464 22.7785L24.0537 22.2214C23.6694 23.1912 23.0018 24.0227 22.1381 24.6076C21.2743 25.1924 20.2543 25.5034 19.2112 25.5H18.75V27H19.2112C19.6668 26.9999 20.1212 26.9539 20.5676 26.8629L20.8291 27.9086C21.1186 29.0427 21.7766 30.0485 22.6996 30.7682C23.6227 31.4879 24.7586 31.8807 25.929 31.885C26.0998 31.885 26.272 31.8765 26.4447 31.8593L30.0746 31.4963C30.2192 31.4818 30.3565 31.4257 30.4698 31.3346C30.5831 31.2436 30.6675 31.1216 30.7128 30.9835C30.758 30.8454 30.7621 30.6971 30.7247 30.5567C30.6872 30.4163 30.6098 30.2897 30.5017 30.1925L24.3293 24.6373ZM26.2955 30.3667C25.4002 30.452 24.5039 30.2145 23.7684 29.6971C23.0328 29.1796 22.5065 28.4163 22.2843 27.5448L21.998 26.3996C22.435 26.2014 22.8493 25.9565 23.2336 25.6692L28.2373 30.1725L26.2955 30.3667Z" fill="#3F5883"/>
<path d="M46.4798 18.5773C46.4446 18.4284 46.3646 18.2938 46.2507 18.1916C46.1367 18.0894 45.9942 18.0246 45.8423 18.0057L36.8998 16.8966C33.7345 12.1756 29.457 8.30531 24.444 5.62655C19.4309 2.9478 13.8361 1.54276 8.15225 1.53517L5.28153 1.53119H5.28047C5.08173 1.53118 4.89111 1.61005 4.75049 1.75049C4.60986 1.89093 4.53073 2.08144 4.53047 2.28018L4.52589 5.76276C4.51917 10.4314 5.45578 15.0532 7.27952 19.3509C9.10326 23.6485 11.7765 27.5334 15.1388 30.7723L12.1085 31.4566L2.60558 26.3396C2.45272 26.2573 2.27604 26.2306 2.10568 26.264C1.93532 26.2974 1.78182 26.3889 1.67137 26.5229C1.56092 26.6568 1.50035 26.8249 1.5 26.9985C1.49965 27.1721 1.55954 27.3405 1.66945 27.4749L1.70301 27.5159C3.75121 30.025 5.2577 32.931 6.12761 36.0509C6.99752 39.1708 7.212 42.4371 6.75754 45.644C6.73345 45.8123 6.76732 45.9839 6.85358 46.1305C6.93984 46.2771 7.07338 46.39 7.23227 46.4507C7.39116 46.5114 7.56597 46.5163 7.72801 46.4646C7.89005 46.4129 8.02969 46.3076 8.12401 46.166L13.9014 37.5H14.4748L16.479 43.0065C16.5455 43.1899 16.6809 43.3401 16.8564 43.4251C17.0319 43.5102 17.2337 43.5235 17.4189 43.4622L24.1437 41.2424L27.6488 41.2339L29.4394 43.2483C29.5405 43.362 29.6737 43.4422 29.8214 43.4784C29.9691 43.5146 30.1243 43.5051 30.2665 43.451C30.4087 43.397 30.531 43.301 30.6174 43.1758C30.7037 43.0506 30.75 42.9021 30.75 42.75V41.2264L33.8592 41.2188V41.2188C36.4153 41.2154 38.8658 40.1984 40.6732 38.3907C42.4805 36.5831 43.4971 34.1324 43.5 31.5762V30.8294C43.4989 29.2144 43.0928 27.6254 42.3189 26.2079C42.2588 24.9475 42.5257 23.693 43.0937 22.5663C43.6617 21.4396 44.5115 20.4789 45.5605 19.7777L46.166 19.374C46.2934 19.2891 46.3917 19.1673 46.4478 19.0249C46.5039 18.8825 46.5151 18.7263 46.4798 18.5773ZM6.03972 6.73689C7.20861 7.1303 8.24528 7.84061 9.03415 8.78864C9.82303 9.73667 10.3331 10.8852 10.5075 12.1061L11.9924 11.894C11.7665 10.3114 11.0806 8.83013 10.02 7.63406C8.95943 6.438 7.57082 5.57986 6.02667 5.16625L6.02947 3.03224L8.15015 3.03517C13.9914 3.04516 19.7268 4.59549 24.7776 7.52977C25.5325 7.96866 26.2677 8.43626 26.9833 8.93256C26.6258 16.4743 20.3786 22.5 12.75 22.5H10.5317C10.5225 22.4841 10.5129 22.4685 10.5037 22.4526C7.73037 17.6674 6.19596 12.2654 6.03972 6.73689ZM8.20591 38.6047L10.9423 35.8684C10.9408 36.3542 10.8335 36.8338 10.6278 37.2739L8.48524 41.8652C8.46361 40.7734 8.3703 39.6843 8.2059 38.6047H8.20591ZM7.86791 36.8215C7.70454 36.103 7.50972 35.3929 7.28346 34.691L9.65903 35.0303L7.86791 36.8215ZM6.70821 33.0936C6.29394 32.0551 5.81032 31.0457 5.26063 30.0721L9.53832 33.1276C9.72032 33.2579 9.88884 33.406 10.0414 33.5697L6.70821 33.0936ZM16.1494 37.7151C16.7743 37.8922 17.3635 38.1772 17.8903 38.5571L16.5532 38.8245L16.1494 37.7151ZM17.0721 40.2504L19.3368 39.7975C19.8348 40.1721 20.3794 40.4804 20.9569 40.7147L17.6396 41.8097L17.0721 40.2504ZM23.6543 39.7436H23.641C22.1457 39.7395 20.7124 39.1459 19.6521 38.0915C18.9906 37.4263 18.2037 36.899 17.337 36.54C16.4703 36.181 15.541 35.9975 14.6029 36H13.5C13.3765 36 13.255 36.0305 13.1461 36.0888C13.0372 36.147 12.9444 36.2313 12.876 36.334L12.2138 37.3273C12.4624 36.5444 12.5084 35.7112 12.3474 34.9057C12.1865 34.1002 11.8238 33.3486 11.2934 32.7214L11.6444 32.9104C11.8037 32.9962 11.9887 33.0215 12.1652 32.9816L16.4876 32.0056C18.2 33.491 20.0541 34.8048 22.0231 35.9281L23.8675 36.9799L26.3184 39.7371L23.6543 39.7436ZM29.25 40.7774L26.1737 37.3165L29.25 38.0856V40.7774ZM42 31.5762C42.0001 32.9145 41.6703 34.2322 41.0398 35.4127C40.4094 36.5932 39.4976 37.6 38.3852 38.3442C37.2729 39.0883 35.9943 39.5468 34.6625 39.679C33.3308 39.8112 31.9869 39.6131 30.75 39.1023V37.5C30.75 37.3328 30.6941 37.1703 30.5911 37.0385C30.4882 36.9066 30.3442 36.813 30.1819 36.7724L24.1819 35.2724C24.0839 35.2486 23.982 35.2449 23.8825 35.2616L22.7662 34.6251C18.2116 32.0256 14.3373 28.3846 11.4603 24H12.75C20.8522 24 27.544 17.8502 28.4053 9.97351C31.8551 12.6441 34.745 15.9682 36.91 19.7559L40.928 26.791C41.6299 28.0212 41.9994 29.413 42 30.8294V31.5762ZM42.4946 20.6784L40.916 19.626L40.084 20.874L41.719 21.964C41.41 22.5905 41.1763 23.2514 41.023 23.9328L38.2125 19.012C38.1215 18.8527 38.0293 18.6942 37.9357 18.5365L43.7789 19.2613C43.3005 19.6855 42.8698 20.1607 42.4946 20.6784Z" fill="#3F5883"/>
</svg>
