<svg width="48" height="48" viewBox="0 0 48 48" fill="none" xmlns="http://www.w3.org/2000/svg">
<path d="M25.9671 31.0768C28.8474 31.076 30.9574 28.2886 30.3441 25.5755C30.2487 25.0875 29.8934 24.6951 29.4171 24.5516C27.9038 24.07 26.1203 24.3866 24.8907 25.5915V23.4745C24.8907 23.0864 24.5761 22.7718 24.188 22.7718C23.7999 22.7718 23.4852 23.0864 23.4852 23.4745V25.5915C22.7245 24.8683 21.7246 24.3956 20.6696 24.3424C19.9508 24.3059 19.3425 24.4361 18.9588 24.5517C18.4826 24.6952 18.1273 25.0875 18.0318 25.5755C17.9299 26.0109 17.8786 26.9849 18.0681 27.6738C18.3253 28.568 19.6263 28.2425 19.4314 27.3322C19.3034 26.8523 19.3369 26.2016 19.4034 25.8859C21.7026 25.1655 23.914 27.1736 23.4246 29.5267C23.156 29.604 22.7281 29.6919 22.2295 29.667C21.8533 29.6479 21.4782 29.5462 21.1146 29.3648C20.7673 29.1913 20.3453 29.3324 20.172 29.6797C19.9987 30.027 20.1397 30.449 20.4869 30.6223C21.0251 30.8909 21.5875 31.0418 22.1586 31.0707C22.6065 31.0975 23.1332 31.0414 23.4852 30.9611V33.089C22.7245 32.3658 21.7246 31.8931 20.6695 31.8399C19.9507 31.8034 19.3425 31.9336 18.9587 32.0492C18.4825 32.1927 18.1272 32.585 18.0317 33.0731C17.334 36.2728 20.223 39.2187 23.4851 38.4585V41.9969C23.4851 42.385 23.7998 42.6996 24.1879 42.6996C24.576 42.6996 24.8906 42.385 24.8906 41.9969V38.4586C27.3384 39.0856 30.0132 37.3121 30.3829 34.7962C30.4903 34.0844 30.421 33.4663 30.3441 33.0732C30.2486 32.5852 29.8934 32.1928 29.417 32.0493C27.9032 31.5679 26.1206 31.8841 24.8906 33.0892V30.9613C25.1898 31.0256 25.5553 31.0768 25.9671 31.0768ZM24.9302 28.3236C25.1342 26.9712 26.4114 25.8149 27.7773 25.746C28.2717 25.7213 28.694 25.8055 28.9724 25.8857C29.4618 28.2452 27.2447 30.2463 24.9514 29.5266C24.9012 29.2516 24.8558 28.817 24.9302 28.3236ZM23.4246 37.024C21.1295 37.7448 18.914 35.7403 19.4034 33.3833C21.7025 32.6628 23.9141 34.6707 23.4246 37.024ZM24.9302 35.821C25.1342 34.4687 26.4114 33.3124 27.7773 33.2434C28.2717 33.2188 28.694 33.3029 28.9724 33.3832C29.4619 35.7424 27.2444 37.7441 24.9514 37.0241C24.9012 36.749 24.8558 36.3145 24.9302 35.821Z" fill="#F70F00"/>
<path d="M45.0845 44.7278C44.8915 43.2727 44.4206 41.9788 43.6847 40.8823C43.4424 40.5211 43.3522 40.062 43.4375 39.6228C43.4629 39.4495 43.4763 39.2747 43.4944 39.1002C43.5311 38.7138 43.2475 38.3709 42.8611 38.3342C42.475 38.2975 42.1318 38.5811 42.0952 38.9675C42.082 39.1068 42.0676 39.2458 42.0522 39.3846C41.9065 40.1768 42.0754 41.0065 42.5177 41.6655C43.1321 42.581 43.5269 43.6735 43.6912 44.9126C43.7473 45.3353 43.619 45.7622 43.3393 46.0841C43.0566 46.4094 42.664 46.5905 42.2337 46.5939C40.9912 46.6046 39.119 46.3253 37.2646 44.9413C36.7418 44.551 36.0872 44.3362 35.4216 44.3362H12.5748C11.9092 44.3362 11.2547 44.5511 10.7318 44.9413C8.87742 46.3254 7.00627 46.6059 5.76272 46.5939C4.89581 46.6096 4.17178 45.7679 4.30518 44.9125C4.46944 43.6734 4.86429 42.581 5.47866 41.6654C5.92098 41.0064 6.08993 40.1766 5.94424 39.3843C5.09422 31.784 7.79034 23.1914 8.48782 21.1349H39.5088C40.0986 22.8706 42.1169 29.2675 42.2137 35.7884C42.2194 36.1765 42.5374 36.4838 42.9268 36.4806C43.3148 36.4749 43.6247 36.1556 43.619 35.7676C43.5246 29.4179 41.7233 23.3422 40.9795 21.0936C42.196 20.8761 43.1225 19.8112 43.1225 18.5331V16.6109C43.1225 15.1763 41.9553 14.0092 40.5207 14.0092H39.7219C36.8305 9.30657 32.4859 4.21828 25.801 0.464632C24.6721 -0.154893 23.3243 -0.154893 22.1955 0.464726C15.5197 4.21077 11.1524 9.3151 8.27431 14.0093H7.47551C6.04087 14.0093 4.87367 15.1764 4.87367 16.611V18.5332C4.87367 19.8111 5.80005 20.876 7.01631 21.0936C6.11985 23.7933 3.68031 32.0893 4.55884 39.623C4.64412 40.0621 4.55387 40.5212 4.31156 40.8823C3.57571 41.9788 3.10478 43.2727 2.91181 44.7277C2.8028 45.5497 3.05225 46.3801 3.59616 47.006C4.1548 47.6503 4.97452 48.0134 5.82613 47.9996C7.28479 47.9996 9.44159 47.658 11.5724 46.0677C11.8541 45.8575 12.21 45.7417 12.5748 45.7417H35.4216C35.7863 45.7417 36.1423 45.8575 36.424 46.0677C38.5917 47.6854 40.7897 48.014 42.2449 47.9993C43.942 48.0135 45.3376 46.41 45.0845 44.7278ZM22.8716 1.69674C23.5876 1.30386 24.4087 1.30386 25.1246 1.69674C32.2095 5.5851 36.5424 11.6111 38.0704 14.0092H9.92463C11.4493 11.6127 15.7745 5.59185 22.8716 1.69674ZM6.27924 18.5332V16.611C6.27924 15.9514 6.81593 15.4148 7.47551 15.4148H40.5208C41.1805 15.4148 41.7172 15.9514 41.7172 16.611V18.5332C41.7172 19.1928 41.1805 19.7295 40.5208 19.7295H7.47551C6.81584 19.7295 6.27924 19.1928 6.27924 18.5332Z" fill="#F70F00"/>
<path d="M25.4399 4.41858C24.9225 4.41858 24.5029 4.8381 24.5029 5.35556C24.5523 6.59845 26.3277 6.59808 26.3769 5.35556C26.3769 4.8381 25.9574 4.41858 25.4399 4.41858Z" fill="#F70F00"/>
<path d="M28.3657 7.27255C27.8482 7.27255 27.4287 7.69207 27.4287 8.20953C27.4781 9.45243 29.2535 9.45205 29.3027 8.20953C29.3028 7.69207 28.8833 7.27255 28.3657 7.27255Z" fill="#F70F00"/>
</svg>
