<svg width="48" height="48" viewBox="0 0 48 48" fill="none" xmlns="http://www.w3.org/2000/svg">
<path d="M41.1381 21.2098L37.95 8.45672C38.5898 7.81031 39 6.64181 39 5.25C39 3.1125 38.0328 1.5 36.75 1.5H9.75C8.46731 1.5 7.5 3.1125 7.5 5.25C7.5 7.3875 8.46731 9 9.75 9H9.91444L6.86194 21.2097C6.78765 21.5071 6.75006 21.8125 6.75 22.1191V45.75C6.75 45.9489 6.82902 46.1397 6.96967 46.2803C7.11032 46.421 7.30109 46.5 7.5 46.5H40.5C40.6989 46.5 40.8897 46.421 41.0303 46.2803C41.171 46.1397 41.25 45.9489 41.25 45.75V22.1193C41.25 21.8127 41.2124 21.5073 41.1381 21.2098ZM39.75 22.1193V43.9393L37.5 41.6893V23.25C37.5 23.0511 37.421 22.8603 37.2803 22.7197C37.1397 22.579 36.9489 22.5 36.75 22.5C36.5511 22.5 36.3603 22.579 36.2197 22.7197C36.079 22.8603 36 23.0511 36 23.25V41.6893L33.75 43.9393V22.1193C33.75 21.9353 33.7726 21.7521 33.8171 21.5737L36.75 9.84216L39.6828 21.5734C39.7274 21.7519 39.75 21.9352 39.75 22.1193ZM36.75 43.0606L38.6893 45H34.8107L36.75 43.0606ZM37.5 5.25C37.5 6.702 36.9367 7.5 36.75 7.5C36.5633 7.5 36 6.702 36 5.25C36 3.798 36.5633 3 36.75 3C36.9367 3 37.5 3.798 37.5 5.25ZM9 5.25C9 3.72366 9.60159 3 9.75 3H34.9258C34.6327 3.71336 34.4879 4.47888 34.5 5.25C34.4879 6.02112 34.6327 6.78664 34.9258 7.5H9.75C9.60159 7.5 9 6.77634 9 5.25ZM8.25 22.1193C8.25001 21.9353 8.27259 21.7521 8.31722 21.5737L11.4606 9H35.4144L32.3618 21.21C32.2876 21.5074 32.25 21.8128 32.25 22.1194V45H8.25V22.1193Z" fill="#3F5883"/>
<path d="M19.5 21C19.3011 21 19.1103 21.079 18.9697 21.2197C18.829 21.3603 18.75 21.5511 18.75 21.75V24H17.25V21.75C17.25 21.5511 17.171 21.3603 17.0303 21.2197C16.8897 21.079 16.6989 21 16.5 21C16.3011 21 16.1103 21.079 15.9697 21.2197C15.829 21.3603 15.75 21.5511 15.75 21.75V24H14.25V21.75C14.25 21.5511 14.171 21.3603 14.0303 21.2197C13.8897 21.079 13.6989 21 13.5 21C13.3011 21 13.1103 21.079 12.9697 21.2197C12.829 21.3603 12.75 21.5511 12.75 21.75V24.75H12.7514C12.7509 24.8663 12.7775 24.9812 12.8292 25.0854L14.2406 27.908L13.6162 39.5972C13.5952 39.9048 13.6377 40.2135 13.7411 40.504C13.8444 40.7945 14.0063 41.0607 14.2168 41.286C14.4273 41.5113 14.6819 41.691 14.9648 41.8138C15.2476 41.9366 15.5526 42 15.861 42H17.139C17.4474 42 17.7524 41.9366 18.0352 41.8138C18.3181 41.691 18.5727 41.5113 18.7832 41.286C18.9937 41.0607 19.1556 40.7945 19.2589 40.504C19.3623 40.2135 19.4048 39.9048 19.3838 39.5972L18.7594 27.908L20.1706 25.0854C20.2223 24.9812 20.2489 24.8663 20.2484 24.75H20.25V21.75C20.25 21.5511 20.171 21.3603 20.0303 21.2197C19.8897 21.079 19.6989 21 19.5 21ZM18.2865 25.5L17.5365 27H15.4635L14.7135 25.5H18.2865ZM17.6879 40.2611C17.618 40.3369 17.5331 40.3972 17.4386 40.4383C17.3441 40.4795 17.2421 40.5005 17.139 40.5H15.861C15.758 40.5 15.6561 40.4788 15.5617 40.4377C15.4672 40.3966 15.3823 40.3365 15.3121 40.2611C15.2419 40.1857 15.188 40.0967 15.1537 39.9996C15.1194 39.9024 15.1055 39.7993 15.1129 39.6966L15.1137 39.6832L15.711 28.5H17.289L17.8863 39.6832L17.8871 39.6966C17.8949 39.7993 17.8813 39.9026 17.847 39.9998C17.8127 40.097 17.7585 40.186 17.6879 40.2611Z" fill="#3F5883"/>
<path d="M27.5828 39.54L27 30.7254V21.75C27 21.5511 26.921 21.3603 26.7804 21.2197C26.6397 21.079 26.4489 21 26.25 21C21.6693 21 21.0272 28.8593 21.0021 29.1937C20.991 29.3422 21.0243 29.4905 21.0977 29.62C21.1712 29.7494 21.2815 29.854 21.4146 29.9206L22.5 30.4635V30.7254L21.9174 39.5399C21.8881 39.8517 21.9243 40.1662 22.0236 40.4632C22.1229 40.7603 22.2831 41.0333 22.4939 41.2649C22.7048 41.4965 22.9617 41.6814 23.2481 41.808C23.5346 41.9346 23.8443 42 24.1575 42H25.3425C25.6557 42.0001 25.9655 41.9347 26.252 41.8082C26.5386 41.6816 26.7955 41.4967 27.0064 41.2651C27.2173 41.0335 27.3776 40.7605 27.4769 40.4634C27.5762 40.1664 27.6124 39.8519 27.5831 39.54H27.5828ZM23.2422 25.7166C23.8185 24.0206 24.5758 22.9889 25.5002 22.6367V30H24C24 29.8607 23.9612 29.7242 23.888 29.6057C23.8148 29.4873 23.71 29.3915 23.5855 29.3292L22.5514 28.8122C22.6815 27.7605 22.9128 26.7238 23.242 25.7166H23.2422ZM25.8988 40.2533C25.8288 40.3314 25.7431 40.3938 25.6472 40.4363C25.5513 40.4789 25.4474 40.5006 25.3425 40.5H24.1575C24.0527 40.5 23.9491 40.478 23.8533 40.4355C23.7574 40.393 23.6716 40.3309 23.6013 40.2531C23.531 40.1754 23.4778 40.0838 23.445 39.9842C23.4123 39.8846 23.4008 39.7793 23.4113 39.675C23.4121 39.6666 23.4128 39.6582 23.4133 39.6499L23.952 31.5H25.548L26.0868 39.6502C26.0874 39.6586 26.0879 39.6669 26.0889 39.6753C26.0998 39.7796 26.0886 39.885 26.0558 39.9847C26.023 40.0843 25.9694 40.1758 25.8986 40.2533H25.8988Z" fill="#3F5883"/>
</svg>
