<svg width="48" height="48" viewBox="0 0 48 48" fill="none" xmlns="http://www.w3.org/2000/svg">
<path d="M45.632 18.624H47.296C47.68 18.624 47.936 18.368 47.936 17.9839C47.936 17.5999 47.68 17.3439 47.296 17.3439H45.632C45.376 16.5119 44.736 15.808 43.904 15.6159V8.57595C44.8 8.38395 45.44 7.67995 45.696 6.84795H47.36C47.744 6.84795 48 6.59195 48 6.20795C48 5.82395 47.744 5.56795 47.36 5.56795H45.696C45.44 4.73595 44.8 4.03195 43.968 3.83995V2.17595C43.968 1.79195 43.712 1.53595 43.328 1.53595C42.944 1.53595 42.688 1.79195 42.688 2.17595V3.83995C41.856 4.09595 41.152 4.73595 40.96 5.56795H32.832C32.576 4.73595 31.936 4.03195 31.104 3.83995V2.17595C31.104 1.79195 30.848 1.53595 30.464 1.53595C30.08 1.53595 29.824 1.79195 29.824 2.17595V3.83995C28.992 4.09595 28.288 4.73595 28.096 5.56795H19.904C19.648 4.73595 19.008 4.03195 18.176 3.83995V2.17595C18.176 1.79195 17.92 1.53595 17.536 1.53595C17.152 1.53595 16.896 1.79195 16.896 2.17595V3.83995C16.064 4.09595 15.36 4.73595 15.168 5.56795H7.04C6.784 4.73595 6.144 4.03195 5.312 3.83995V2.17595C5.312 1.79195 5.056 1.53595 4.672 1.53595C4.288 1.53595 4.032 1.79195 4.032 2.17595V3.83995C3.2 4.09595 2.496 4.73595 2.304 5.56795H0.64C0.256 5.56795 0 5.82395 0 6.20795C0 6.59195 0.256 6.84795 0.64 6.84795H2.304C2.56 7.67995 3.2 8.38395 4.032 8.57595V15.6159C3.2 15.8719 2.496 16.5119 2.304 17.3439H0.64C0.256 17.3439 0 17.5999 0 17.9839C0 18.368 0.256 18.624 0.64 18.624H2.304C2.56 19.456 3.2 20.16 4.032 20.3519V27.392C3.2 27.648 2.496 28.288 2.304 29.12H0.64C0.256 29.12 0 29.3759 0 29.76C0 30.144 0.256 30.4 0.64 30.4H2.304C2.56 31.232 3.2 31.9359 4.032 32.1279V39.1679C3.2 39.424 2.496 40.0639 2.304 40.896H0.64C0.256 40.896 0 41.152 0 41.5359C0 41.9199 0.256 42.1759 0.64 42.1759H2.304C2.56 43.0079 3.2 43.7119 4.032 43.9039V45.824C4.032 46.208 4.288 46.464 4.672 46.464C5.056 46.464 5.312 46.208 5.312 45.824V43.9039C6.144 43.6479 6.848 43.0079 7.04 42.1759H15.168C15.424 43.0079 16.064 43.7119 16.896 43.9039V45.824C16.896 46.208 17.152 46.464 17.536 46.464C17.92 46.464 18.176 46.208 18.176 45.824V43.9039C19.008 43.6479 19.712 43.0079 19.904 42.1759H28.032C28.288 43.0079 28.928 43.7119 29.76 43.9039V45.824C29.76 46.208 30.016 46.464 30.4 46.464C30.784 46.464 31.04 46.208 31.04 45.824V43.9039C31.872 43.6479 32.576 43.0079 32.768 42.1759H40.896C41.152 43.0079 41.792 43.7119 42.624 43.9039V45.824C42.624 46.208 42.88 46.464 43.264 46.464C43.648 46.464 43.904 46.208 43.904 45.824V43.9039C44.736 43.6479 45.44 43.0079 45.632 42.1759H47.296C47.68 42.1759 47.936 41.9199 47.936 41.5359C47.936 41.152 47.68 40.896 47.296 40.896H45.632C45.376 40.0639 44.736 39.36 43.904 39.1679V32.1279C44.736 31.8719 45.44 31.232 45.632 30.4H47.296C47.68 30.4 47.936 30.144 47.936 29.76C47.936 29.3759 47.68 29.12 47.296 29.12H45.632C45.376 28.288 44.736 27.584 43.904 27.392V20.3519C44.736 20.0959 45.44 19.456 45.632 18.624ZM43.328 5.05595C43.968 5.05595 44.544 5.56795 44.544 6.27195C44.544 6.91195 44.032 7.48795 43.328 7.48795C42.624 7.48795 42.112 6.97595 42.112 6.27195C42.112 5.56795 42.688 5.05595 43.328 5.05595ZM32.832 6.91195H40.96C41.216 7.74395 41.856 8.44795 42.688 8.63995V15.6799C41.856 15.872 41.152 16.512 40.96 17.408H35.264C34.944 16.384 34.432 15.3599 33.536 14.5919C32.896 14.0159 32.064 13.5679 31.104 13.3119V8.63995C31.936 8.38395 32.64 7.74395 32.832 6.91195ZM20.928 27.84C22.208 27.968 24.448 28.096 25.28 27.392C25.536 27.136 25.728 26.816 25.728 26.4319C25.792 25.216 24.384 23.7439 24.128 23.424C23.872 23.104 22.4 21.6959 21.184 21.6959C20.8 21.6959 20.48 21.8239 20.224 22.1439C19.456 22.976 19.52 25.152 19.584 26.496C19.136 26.432 18.688 26.4319 18.176 26.4319V20.4799C19.008 20.2239 19.712 19.584 19.904 18.752H25.408C25.92 20.096 26.624 21.1199 27.456 21.8239C28.16 22.4 28.928 22.72 29.76 22.912V27.4559C28.928 27.712 28.288 28.3519 28.032 29.184H20.928C20.928 28.736 20.928 28.288 20.928 27.84ZM20.864 26.496C20.736 24.96 20.8 23.296 21.12 22.912C21.376 22.848 22.336 23.424 23.168 24.256C23.936 25.088 24.512 26.1119 24.448 26.368C24.064 26.688 22.4 26.688 20.864 26.496ZM16.896 20.416V26.368C15.36 26.4319 13.888 26.816 12.672 27.968C12.288 28.352 11.968 28.736 11.648 29.2479H7.04C6.784 28.4159 6.144 27.712 5.312 27.52V20.4799C6.144 20.16 6.784 19.52 7.04 18.688H15.168C15.424 19.52 16.064 20.224 16.896 20.416ZM16.32 18.048C16.32 17.344 16.896 16.832 17.536 16.832C18.176 16.832 18.752 17.344 18.752 18.048C18.752 18.688 18.24 19.264 17.536 19.264C16.896 19.264 16.32 18.752 16.32 18.048ZM13.504 28.864C15.04 27.392 17.344 27.52 19.648 27.712C19.712 29.952 19.776 32.256 18.24 33.792C16.96 35.0079 14.784 35.6479 11.456 35.584C11.52 32.256 12.224 30.08 13.504 28.864ZM25.728 14.1439C28.992 13.8879 31.296 14.3359 32.64 15.4879C34.24 16.9599 34.368 19.264 34.432 21.504C32.192 21.8239 29.888 22.08 28.224 20.736C26.816 19.584 25.984 17.4719 25.728 14.1439ZM30.4 28.608C31.04 28.608 31.616 29.1199 31.616 29.8239C31.616 30.528 31.104 31.04 30.4 31.04C29.76 31.04 29.184 30.528 29.184 29.8239C29.184 29.1199 29.696 28.608 30.4 28.608ZM31.104 27.4559V23.04C32.256 23.104 33.408 22.976 34.496 22.8479C34.496 24.128 34.624 26.368 35.392 27.136C35.648 27.392 35.968 27.52 36.288 27.52H36.352C37.568 27.456 38.912 25.92 39.168 25.6C39.424 25.28 40.768 23.68 40.576 22.464C40.512 22.08 40.384 21.76 40.064 21.568C39.168 20.928 36.992 21.1199 35.712 21.3759C35.712 20.5439 35.648 19.648 35.52 18.752H40.96C41.216 19.584 41.856 20.288 42.688 20.4799V27.52C41.856 27.648 41.152 28.3519 40.96 29.184H32.832C32.576 28.3519 31.936 27.6479 31.104 27.4559ZM35.776 22.528C37.312 22.2719 38.976 22.144 39.36 22.464C39.424 22.72 38.912 23.7439 38.208 24.6399C37.44 25.5359 36.544 26.1759 36.288 26.1119C35.904 25.792 35.776 24.0639 35.776 22.528ZM30.4 5.05595C31.04 5.05595 31.616 5.56795 31.616 6.27195C31.616 6.91195 31.104 7.48795 30.4 7.48795C29.76 7.48795 29.184 6.97595 29.184 6.27195C29.248 5.56795 29.76 5.05595 30.4 5.05595ZM19.904 6.84795H28.032C28.288 7.67995 28.928 8.38395 29.76 8.57595V12.9919C28.416 12.7999 26.816 12.7359 24.96 12.9279C24.64 12.992 24.384 13.2479 24.384 13.6319C24.448 15.0399 24.64 16.32 24.96 17.408H19.84C19.584 16.576 18.944 15.872 18.112 15.6799V8.63995C19.008 8.38395 19.712 7.67995 19.904 6.84795ZM17.536 5.05595C18.176 5.05595 18.752 5.56795 18.752 6.27195C18.752 6.91195 18.24 7.48795 17.536 7.48795C16.896 7.48795 16.32 6.97595 16.32 6.27195C16.32 5.56795 16.896 5.05595 17.536 5.05595ZM7.04 6.84795H15.168C15.424 7.67995 16.064 8.38395 16.896 8.57595V15.6159C16.064 15.8719 15.36 16.5119 15.168 17.3439H7.04C6.784 16.5119 6.144 15.808 5.312 15.6159V8.57595C6.144 8.38395 6.784 7.67995 7.04 6.84795ZM3.456 6.20795C3.456 5.56795 3.968 4.99195 4.672 4.99195C5.376 4.99195 5.888 5.50395 5.888 6.20795C5.888 6.84795 5.376 7.42395 4.672 7.42395C3.968 7.42395 3.456 6.91195 3.456 6.20795ZM3.456 18.048C3.456 17.408 3.968 16.832 4.672 16.832C5.376 16.832 5.888 17.344 5.888 18.048C5.888 18.688 5.376 19.264 4.672 19.264C3.968 19.264 3.456 18.688 3.456 18.048ZM3.456 29.8239C3.456 29.184 3.968 28.608 4.672 28.608C5.376 28.608 5.888 29.1199 5.888 29.8239C5.888 30.528 5.376 31.04 4.672 31.04C3.968 31.04 3.456 30.4639 3.456 29.8239ZM4.672 42.816C4.032 42.816 3.456 42.3039 3.456 41.5999C3.456 40.896 3.968 40.3839 4.672 40.3839C5.376 40.3839 5.888 40.896 5.888 41.5999C5.888 42.3039 5.312 42.816 4.672 42.816ZM15.168 40.9599H7.04C6.784 40.1279 6.144 39.424 5.312 39.2319V32.192C6.144 31.936 6.848 31.296 7.04 30.464H11.008C10.432 31.936 10.176 33.8559 10.176 36.2239C10.176 36.5439 10.432 36.8639 10.816 36.8639C11.136 36.8639 11.456 36.8639 11.84 36.8639C13.952 36.8639 15.616 36.608 16.96 36.096V39.296C16.064 39.488 15.36 40.1279 15.168 40.9599ZM17.536 42.816C16.896 42.816 16.32 42.3039 16.32 41.5999C16.32 40.896 16.832 40.3839 17.536 40.3839C18.176 40.3839 18.752 40.896 18.752 41.5999C18.752 42.3039 18.176 42.816 17.536 42.816ZM28.032 40.9599H19.904C19.648 40.1279 19.008 39.424 18.176 39.2319V35.3919C18.56 35.1359 18.88 34.944 19.136 34.624C20.288 33.472 20.736 31.9359 20.864 30.4H28.032C28.224 31.232 28.928 31.936 29.76 32.192V39.2319C28.928 39.4879 28.288 40.1279 28.032 40.9599ZM30.4 42.816C29.76 42.816 29.184 42.3039 29.184 41.5999C29.184 40.896 29.696 40.3839 30.4 40.3839C31.04 40.3839 31.616 40.896 31.616 41.5999C31.616 42.3039 31.104 42.816 30.4 42.816ZM40.96 40.9599H32.832C32.576 40.1279 31.936 39.424 31.104 39.2319V32.192C31.936 31.936 32.64 31.296 32.832 30.464H40.96C41.216 31.296 41.856 32 42.688 32.192V39.2319C41.856 39.4879 41.152 40.1279 40.96 40.9599ZM44.48 41.5999C44.48 42.2399 43.968 42.816 43.264 42.816C42.56 42.816 42.048 42.3039 42.048 41.5999C42.048 40.896 42.56 40.3839 43.264 40.3839C43.968 40.3839 44.48 40.9599 44.48 41.5999ZM44.48 29.8239C44.48 30.4639 43.968 31.04 43.264 31.04C42.56 31.04 42.048 30.528 42.048 29.8239C42.048 29.1199 42.56 28.608 43.264 28.608C43.968 28.608 44.48 29.184 44.48 29.8239ZM43.264 19.264C42.56 19.264 42.048 18.752 42.048 18.048C42.048 17.408 42.56 16.832 43.264 16.832C43.968 16.832 44.48 17.344 44.48 18.048C44.48 18.688 43.968 19.264 43.264 19.264Z" fill="#3F5883"/>
<path d="M29.9511 16.831C30.3399 16.831 30.6551 16.5158 30.6551 16.127C30.6551 15.7382 30.3399 15.423 29.9511 15.423C29.5623 15.423 29.2471 15.7382 29.2471 16.127C29.2471 16.5158 29.5623 16.831 29.9511 16.831Z" fill="#3F5883"/>
<path d="M13.8407 32.3193C14.2295 32.3193 14.5447 32.0041 14.5447 31.6153C14.5447 31.2265 14.2295 30.9113 13.8407 30.9113C13.4519 30.9113 13.1367 31.2265 13.1367 31.6153C13.1367 32.0041 13.4519 32.3193 13.8407 32.3193Z" fill="#3F5883"/>
</svg>
