<svg width="48" height="48" viewBox="0 0 48 48" fill="none" xmlns="http://www.w3.org/2000/svg">
<path d="M35.8564 18.7004L32.7899 17.757C30.0824 16.9232 27.2653 16.4995 24.4322 16.5H21.5564L22.5136 14.5856C22.5709 14.4713 22.5979 14.3442 22.5922 14.2164C22.5864 14.0887 22.5482 13.9645 22.4809 13.8557C22.4137 13.747 22.3198 13.6572 22.2081 13.5949C22.0964 13.5327 21.9706 13.5 21.8428 13.5H21.4465C20.3816 13.4982 19.3346 13.7739 18.4087 14.3C17.4828 14.826 16.71 15.5843 16.1664 16.5H13.5928C11.9353 16.5019 10.3007 16.8877 8.81732 17.6272L4.91357 19.5791C4.81525 19.6283 4.72894 19.6985 4.66075 19.7847C4.59257 19.8709 4.54416 19.9711 4.51898 20.0781C4.49379 20.1851 4.49243 20.2963 4.515 20.4039C4.53757 20.5115 4.58351 20.6128 4.64957 20.7007C5.42021 21.723 6.41713 22.5529 7.56219 23.1254C8.70726 23.698 9.96936 23.9975 11.2496 24.0007H16.1669C16.7105 24.9164 17.4834 25.6747 18.4092 26.2007C19.3351 26.7268 20.3821 27.0025 21.447 27.0007H21.8433C21.9712 27.0007 22.0969 26.968 22.2086 26.9058C22.3202 26.8435 22.4142 26.7537 22.4814 26.645C22.5486 26.5362 22.5869 26.4121 22.5926 26.2844C22.5984 26.1567 22.5714 26.0296 22.5142 25.9152L21.5564 24H24.4322C27.2651 24.0008 30.0821 23.5774 32.7896 22.7438L35.8563 21.8004C36.3095 22.6862 36.9979 23.4301 37.846 23.9504C38.6941 24.4707 39.6692 24.7474 40.6642 24.75H41.3392C41.4805 24.75 41.6189 24.7101 41.7386 24.6349C41.8582 24.5597 41.9541 24.4522 42.0153 24.3248C42.0765 24.1975 42.1005 24.0554 42.0845 23.915C42.0684 23.7746 42.0131 23.6416 41.9248 23.5313L39.2998 20.25L41.9248 16.9688C42.0131 16.8585 42.0684 16.7254 42.0845 16.585C42.1005 16.4446 42.0765 16.3026 42.0153 16.1752C41.9541 16.0478 41.8582 15.9404 41.7386 15.8651C41.6189 15.7899 41.4805 15.75 41.3392 15.75H40.6642C39.6691 15.7527 38.694 16.0295 37.8459 16.55C36.9978 17.0704 36.3095 17.8145 35.8564 18.7004ZM20.5904 15.0778L19.8792 16.5H18.0107C18.6931 15.7581 19.5987 15.2588 20.5904 15.0778ZM20.5904 25.4226C19.5987 25.2415 18.693 24.7421 18.0107 24H19.8792L20.5904 25.4226ZM32.3483 21.3094C29.7839 22.0993 27.1156 22.5006 24.4322 22.5H11.249C10.3554 22.4978 9.47099 22.3191 8.64659 21.9742C7.82219 21.6293 7.07401 21.125 6.44498 20.4903L9.4882 18.969C10.7631 18.3332 12.1681 18.0015 13.5928 18H24.4322C27.1157 17.9994 29.7841 18.4007 32.3487 19.1906L35.7921 20.25L32.3483 21.3094ZM37.32 21.3498L38.0729 21.1181L39.6765 23.1229C38.6904 22.8607 37.8451 22.2247 37.32 21.3497V21.3498ZM39.6765 17.3777L38.0729 19.3824L37.32 19.1508C37.8451 18.2758 38.6904 17.6398 39.6765 17.3776V17.3777Z" fill="#3F5883"/>
<path d="M11.249 19.5002H12.749V21.0002H11.249V19.5002Z" fill="#3F5883"/>
<path d="M23.999 1.5C11.5925 1.5 1.49902 11.5935 1.49902 24C1.49902 36.4065 11.5925 46.5 23.999 46.5C36.4055 46.5 46.499 36.4064 46.499 24C46.499 11.5936 36.4055 1.5 23.999 1.5ZM3.87699 30H5.44712C5.8207 31.163 6.30331 32.2881 6.88852 33.3604C6.93528 33.4478 6.9989 33.525 7.0757 33.5877C7.15251 33.6504 7.24097 33.6972 7.33598 33.7255C7.43099 33.7537 7.53066 33.7629 7.62922 33.7524C7.72779 33.7419 7.8233 33.712 7.91023 33.6643C7.99716 33.6167 8.07379 33.5523 8.13568 33.4749C8.19757 33.3974 8.2435 33.3085 8.27081 33.2132C8.29812 33.1179 8.30627 33.0182 8.29479 32.9197C8.28331 32.8213 8.25243 32.7261 8.20393 32.6396C7.73999 31.793 7.34524 30.9102 7.02352 30H9.76834C9.20298 30.7333 8.93337 31.652 9.01285 32.5745C9.09232 33.497 9.51508 34.3561 10.1975 34.9819C9.66375 35.2762 9.21021 35.6968 8.87658 36.2069C8.54295 36.717 8.33939 37.3011 8.28371 37.9081C6.25692 35.6241 4.75302 32.9253 3.87699 30ZM37.499 32.25C37.499 32.695 37.3671 33.13 37.1198 33.5C36.8726 33.87 36.5212 34.1584 36.1101 34.3287C35.6989 34.499 35.2465 34.5436 34.8101 34.4568C34.3736 34.3699 33.9727 34.1557 33.658 33.841C33.3434 33.5263 33.1291 33.1254 33.0423 32.689C32.9554 32.2525 33 31.8001 33.1703 31.389C33.3406 30.9778 33.629 30.6264 33.999 30.3792C34.369 30.132 34.804 30 35.249 30C35.8456 30.0006 36.4175 30.2379 36.8393 30.6597C37.2612 31.0815 37.4984 31.6535 37.499 32.25ZM37.499 38.25C37.499 38.695 37.3671 39.13 37.1198 39.5C36.8726 39.87 36.5212 40.1584 36.1101 40.3287C35.6989 40.499 35.2465 40.5436 34.8101 40.4568C34.3736 40.3699 33.9727 40.1557 33.658 39.841C33.3434 39.5263 33.1291 39.1254 33.0423 38.689C32.9554 38.2525 33 37.8001 33.1703 37.389C33.3406 36.9778 33.629 36.6264 33.999 36.3792C34.369 36.132 34.804 36 35.249 36C35.8456 36.0006 36.4175 36.2379 36.8393 36.6597C37.2612 37.0815 37.4984 37.6535 37.499 38.25ZM17.999 37.5C17.554 37.5 17.119 37.368 16.749 37.1208C16.379 36.8736 16.0906 36.5222 15.9203 36.111C15.75 35.6999 15.7054 35.2475 15.7923 34.811C15.8791 34.3746 16.0934 33.9737 16.408 33.659C16.7227 33.3443 17.1236 33.13 17.5601 33.0432C17.9965 32.9564 18.4489 33.001 18.8601 33.1713C19.2712 33.3416 19.6226 33.63 19.8698 34C20.1171 34.37 20.249 34.805 20.249 35.25C20.2484 35.8465 20.0111 36.4185 19.5893 36.8403C19.1675 37.2621 18.5956 37.4994 17.999 37.5ZM15.7469 38.2291C15.7557 38.2358 15.7635 38.2435 15.7722 38.25C15.7635 38.2566 15.7557 38.2643 15.7469 38.2709C15.7469 38.2638 15.749 38.2572 15.749 38.25C15.749 38.2428 15.747 38.2364 15.7469 38.2293V38.2291ZM11.999 36C12.444 36 12.879 36.132 13.2491 36.3792C13.6191 36.6264 13.9075 36.9778 14.0778 37.389C14.248 37.8001 14.2926 38.2525 14.2058 38.689C14.119 39.1254 13.9047 39.5263 13.59 39.841C13.2753 40.1557 12.8744 40.3699 12.438 40.4568C12.0015 40.5436 11.5491 40.499 11.138 40.3287C10.7269 40.1584 10.3754 39.87 10.1282 39.5C9.88098 39.13 9.74902 38.695 9.74902 38.25C9.74969 37.6535 9.98696 37.0816 10.4088 36.6597C10.8306 36.2379 11.4025 36.0007 11.999 36ZM14.2511 41.2291C14.2511 41.2362 14.249 41.2429 14.249 41.25C14.2498 41.7687 14.359 42.2814 14.5697 42.7553C14.0212 42.4784 13.4866 42.1792 12.9657 41.8578C13.4308 41.7335 13.8674 41.52 14.2511 41.2293V41.2291ZM17.999 43.5C17.554 43.5 17.119 43.368 16.749 43.1208C16.379 42.8736 16.0906 42.5222 15.9203 42.111C15.75 41.6999 15.7054 41.2475 15.7923 40.811C15.8791 40.3746 16.0934 39.9737 16.408 39.659C16.7227 39.3443 17.1236 39.1301 17.5601 39.0432C17.9965 38.9564 18.4489 39.001 18.8601 39.1713C19.2712 39.3416 19.6226 39.63 19.8698 40C20.1171 40.37 20.249 40.805 20.249 41.25C20.2484 41.8465 20.0111 42.4185 19.5893 42.8403C19.1675 43.2621 18.5956 43.4994 17.999 43.5ZM23.999 30.75C24.444 30.75 24.879 30.882 25.2491 31.1292C25.6191 31.3764 25.9075 31.7278 26.0778 32.139C26.2481 32.5501 26.2926 33.0025 26.2058 33.439C26.119 33.8754 25.9047 34.2763 25.59 34.591C25.2753 34.9057 24.8744 35.1199 24.438 35.2068C24.0015 35.2936 23.5491 35.249 23.138 35.0787C22.7269 34.9084 22.3755 34.62 22.1282 34.25C21.881 33.88 21.749 33.445 21.749 33C21.7497 32.4035 21.987 31.8316 22.4088 31.4097C22.8306 30.9879 23.4025 30.7507 23.999 30.75ZM32.249 35.25C32.249 35.695 32.1171 36.13 31.8698 36.5C31.6226 36.87 31.2712 37.1584 30.8601 37.3287C30.4489 37.499 29.9965 37.5436 29.5601 37.4568C29.1236 37.3699 28.7227 37.1557 28.408 36.841C28.0934 36.5263 27.8791 36.1254 27.7923 35.689C27.7054 35.2525 27.75 34.8001 27.9203 34.389C28.0906 33.9778 28.379 33.6264 28.749 33.3792C29.119 33.132 29.554 33 29.999 33C30.5956 33.0006 31.1675 33.2379 31.5893 33.6597C32.0112 34.0815 32.2484 34.6535 32.249 35.25ZM23.999 36.75C24.444 36.75 24.879 36.882 25.2491 37.1292C25.6191 37.3764 25.9075 37.7278 26.0778 38.139C26.2481 38.5501 26.2926 39.0025 26.2058 39.439C26.119 39.8754 25.9047 40.2763 25.59 40.591C25.2753 40.9057 24.8744 41.1199 24.438 41.2068C24.0015 41.2936 23.5491 41.249 23.138 41.0787C22.7269 40.9084 22.3755 40.62 22.1282 40.25C21.881 39.88 21.749 39.445 21.749 39C21.7497 38.4035 21.987 37.8316 22.4088 37.4097C22.8306 36.9879 23.4025 36.7507 23.999 36.75ZM29.999 39C30.444 39 30.879 39.132 31.2491 39.3792C31.6191 39.6264 31.9075 39.9778 32.0778 40.389C32.2481 40.8001 32.2926 41.2525 32.2058 41.689C32.119 42.1254 31.9047 42.5263 31.59 42.841C31.2753 43.1557 30.8744 43.3699 30.438 43.4568C30.0015 43.5436 29.5491 43.499 29.138 43.3287C28.7269 43.1584 28.3755 42.87 28.1282 42.5C27.881 42.13 27.749 41.695 27.749 41.25C27.7497 40.6535 27.9869 40.0815 28.4087 39.6597C28.8306 39.2379 29.4025 39.0006 29.999 39ZM33.7076 41.6597C34.0759 41.8227 34.4683 41.9246 34.8694 41.9617C34.4016 42.2458 33.9191 42.5076 33.4283 42.7553C33.5766 42.4065 33.6708 42.0371 33.7076 41.6599V41.6597ZM31.5405 31.8406C30.9164 31.5511 30.2235 31.443 29.541 31.5288C28.8585 31.6146 28.2138 31.8907 27.6809 32.3257C27.5079 31.3941 26.9879 30.563 26.2259 30H32.2683C31.8635 30.5363 31.6119 31.1725 31.5405 31.8406ZM20.3172 32.3257C19.7842 31.8907 19.1396 31.6146 18.457 31.5288C17.7745 31.443 17.0816 31.5511 16.4576 31.8406C16.3862 31.1725 16.1347 30.5363 15.7298 30H21.7723C21.0102 30.563 20.4902 31.3941 20.3172 32.3257ZM14.999 32.25C14.999 32.695 14.8671 33.13 14.6198 33.5C14.3726 33.87 14.0212 34.1584 13.6101 34.3287C13.1989 34.499 12.7465 34.5436 12.3101 34.4568C11.8736 34.3699 11.4727 34.1557 11.158 33.841C10.8434 33.5263 10.6291 33.1254 10.5423 32.689C10.4554 32.2525 10.5 31.8001 10.6703 31.389C10.8406 30.9778 11.129 30.6264 11.499 30.3792C11.869 30.132 12.304 30 12.749 30C13.3456 30.0006 13.9175 30.2379 14.3393 30.6597C14.7611 31.0815 14.9984 31.6535 14.999 32.25ZM19.7219 44.561C20.2273 44.2995 20.6665 43.9261 21.0059 43.4693C21.3454 43.0126 21.5762 42.4844 21.6808 41.925C22.3354 42.4588 23.1543 42.7504 23.999 42.7504C24.8438 42.7504 25.6626 42.4588 26.3173 41.925C26.4219 42.4845 26.6527 43.0128 26.9923 43.4696C27.3318 43.9265 27.7711 44.2999 28.2766 44.5613C25.4553 45.1467 22.5437 45.1467 19.7223 44.5613L19.7219 44.561ZM38.9507 38.7281C38.9772 38.57 38.9934 38.4103 38.999 38.25C38.9974 37.6657 38.8588 37.0899 38.5942 36.5688C38.3297 36.0478 37.9467 35.5961 37.4759 35.25C37.8757 34.9591 38.2132 34.591 38.4683 34.1675C38.7235 33.744 38.8912 33.2736 38.9615 32.7842C39.0317 32.2948 39.0032 31.7962 38.8776 31.318C38.7519 30.8398 38.5317 30.3917 38.2299 30H40.9699C40.557 31.172 40.0234 32.2979 39.3777 33.3596C39.3237 33.4437 39.2872 33.5378 39.2701 33.6362C39.253 33.7347 39.2557 33.8355 39.2782 33.9329C39.3006 34.0303 39.3423 34.1222 39.4007 34.2032C39.4592 34.2842 39.5332 34.3528 39.6186 34.4048C39.7039 34.4568 39.7987 34.4913 39.8975 34.5061C39.9963 34.521 40.0971 34.516 40.1939 34.4913C40.2908 34.4667 40.3817 34.423 40.4614 34.3627C40.5411 34.3024 40.6079 34.2268 40.658 34.1404C41.4481 32.8392 42.0822 31.4495 42.5473 30H44.1211C43.1363 33.288 41.3611 36.2847 38.9507 38.7281ZM44.5085 28.5H3.48962C3.1643 27.0221 2.99981 25.5133 2.99902 24C2.99902 12.4204 12.4194 3 23.999 3C35.5786 3 44.999 12.4204 44.999 24C44.9982 25.5133 44.8338 27.0221 44.5085 28.5Z" fill="#3F5883"/>
<path d="M23.9994 4.50001C21.1395 4.49709 18.3141 5.12461 15.7243 6.33791C13.1345 7.55121 10.8441 9.32046 9.01587 11.5197C8.88844 11.6725 8.82693 11.8696 8.84485 12.0678C8.86277 12.2659 8.95867 12.4488 9.11145 12.5762C9.26423 12.7037 9.46137 12.7652 9.6595 12.7473C9.85764 12.7293 10.0405 12.6334 10.168 12.4807C11.8573 10.4524 13.972 8.82054 16.3622 7.70063C18.7525 6.58072 21.3598 6.00019 23.9994 6.00019C26.639 6.00019 29.2463 6.58072 31.6365 7.70063C34.0268 8.82054 36.1415 10.4524 37.8308 12.4807C37.9582 12.6335 38.1411 12.7294 38.3393 12.7473C38.5374 12.7652 38.7346 12.7037 38.8873 12.5763C39.0401 12.4489 39.136 12.266 39.154 12.0678C39.1719 11.8697 39.1104 11.6725 38.983 11.5197C37.1548 9.32046 34.8643 7.55122 32.2745 6.33792C29.6847 5.12462 26.8593 4.49709 23.9994 4.50001Z" fill="#3F5883"/>
<path d="M23.999 39.375C23.8001 39.375 23.6093 39.454 23.4687 39.5947C23.328 39.7353 23.249 39.9261 23.249 40.125C23.249 40.3239 23.328 40.5147 23.4687 40.6553C23.6093 40.796 23.8001 40.875 23.999 40.875C24.4963 40.875 24.9732 40.6775 25.3248 40.3258C25.6765 39.9742 25.874 39.4973 25.874 39C25.874 38.5027 25.6765 38.0258 25.3248 37.6742C24.9732 37.3225 24.4963 37.125 23.999 37.125C23.8001 37.125 23.6093 37.204 23.4687 37.3447C23.328 37.4853 23.249 37.6761 23.249 37.875C23.249 38.0739 23.328 38.2647 23.4687 38.4053C23.6093 38.546 23.8001 38.625 23.999 38.625C24.0985 38.625 24.1939 38.6645 24.2642 38.7348C24.3345 38.8052 24.374 38.9005 24.374 39C24.374 39.0995 24.3345 39.1948 24.2642 39.2652C24.1939 39.3355 24.0985 39.375 23.999 39.375Z" fill="#3F5883"/>
<path d="M29.999 41.625C29.8001 41.625 29.6093 41.704 29.4687 41.8447C29.328 41.9853 29.249 42.1761 29.249 42.375C29.249 42.5739 29.328 42.7647 29.4687 42.9053C29.6093 43.046 29.8001 43.125 29.999 43.125C30.4963 43.125 30.9732 42.9275 31.3249 42.5758C31.6765 42.2242 31.874 41.7473 31.874 41.25C31.874 40.7527 31.6765 40.2758 31.3249 39.9242C30.9732 39.5725 30.4963 39.375 29.999 39.375C29.8001 39.375 29.6093 39.454 29.4687 39.5947C29.328 39.7353 29.249 39.9261 29.249 40.125C29.249 40.3239 29.328 40.5147 29.4687 40.6553C29.6093 40.796 29.8001 40.875 29.999 40.875C30.0985 40.875 30.1939 40.9145 30.2642 40.9848C30.3345 41.0552 30.374 41.1505 30.374 41.25C30.374 41.3495 30.3345 41.4448 30.2642 41.5152C30.1939 41.5855 30.0985 41.625 29.999 41.625Z" fill="#3F5883"/>
<path d="M17.999 39.375C17.8001 39.375 17.6093 39.454 17.4687 39.5947C17.328 39.7353 17.249 39.9261 17.249 40.125C17.249 40.3239 17.328 40.5147 17.4687 40.6553C17.6093 40.796 17.8001 40.875 17.999 40.875C18.0985 40.875 18.1939 40.9145 18.2642 40.9848C18.3345 41.0552 18.374 41.1505 18.374 41.25C18.374 41.3495 18.3345 41.4448 18.2642 41.5152C18.1939 41.5855 18.0985 41.625 17.999 41.625C17.8001 41.625 17.6093 41.704 17.4687 41.8447C17.328 41.9853 17.249 42.1761 17.249 42.375C17.249 42.5739 17.328 42.7647 17.4687 42.9053C17.6093 43.046 17.8001 43.125 17.999 43.125C18.4963 43.125 18.9732 42.9275 19.3248 42.5758C19.6765 42.2242 19.874 41.7473 19.874 41.25C19.874 40.7527 19.6765 40.2758 19.3248 39.9242C18.9732 39.5725 18.4963 39.375 17.999 39.375Z" fill="#3F5883"/>
<path d="M23.999 33.375C23.8001 33.375 23.6093 33.454 23.4687 33.5947C23.328 33.7353 23.249 33.9261 23.249 34.125C23.249 34.3239 23.328 34.5147 23.4687 34.6553C23.6093 34.796 23.8001 34.875 23.999 34.875C24.4963 34.875 24.9732 34.6775 25.3248 34.3258C25.6765 33.9742 25.874 33.4973 25.874 33C25.874 32.5027 25.6765 32.0258 25.3248 31.6742C24.9732 31.3225 24.4963 31.125 23.999 31.125C23.8001 31.125 23.6093 31.204 23.4687 31.3447C23.328 31.4853 23.249 31.6761 23.249 31.875C23.249 32.0739 23.328 32.2647 23.4687 32.4053C23.6093 32.546 23.8001 32.625 23.999 32.625C24.0985 32.625 24.1939 32.6645 24.2642 32.7348C24.3345 32.8052 24.374 32.9005 24.374 33C24.374 33.0995 24.3345 33.1948 24.2642 33.2652C24.1939 33.3355 24.0985 33.375 23.999 33.375Z" fill="#3F5883"/>
<path d="M29.249 34.125C29.249 34.3239 29.328 34.5147 29.4687 34.6553C29.6093 34.796 29.8001 34.875 29.999 34.875C30.0985 34.875 30.1939 34.9145 30.2642 34.9848C30.3345 35.0552 30.374 35.1505 30.374 35.25C30.374 35.3495 30.3345 35.4448 30.2642 35.5152C30.1939 35.5855 30.0985 35.625 29.999 35.625C29.8001 35.625 29.6093 35.704 29.4687 35.8447C29.328 35.9853 29.249 36.1761 29.249 36.375C29.249 36.5739 29.328 36.7647 29.4687 36.9053C29.6093 37.046 29.8001 37.125 29.999 37.125C30.4963 37.125 30.9732 36.9275 31.3249 36.5758C31.6765 36.2242 31.874 35.7473 31.874 35.25C31.874 34.7527 31.6765 34.2758 31.3249 33.9242C30.9732 33.5725 30.4963 33.375 29.999 33.375C29.8001 33.375 29.6093 33.454 29.4687 33.5947C29.328 33.7353 29.249 33.9261 29.249 34.125Z" fill="#3F5883"/>
<path d="M17.999 33.375C17.8001 33.375 17.6093 33.454 17.4687 33.5947C17.328 33.7353 17.249 33.9261 17.249 34.125C17.249 34.3239 17.328 34.5147 17.4687 34.6553C17.6093 34.796 17.8001 34.875 17.999 34.875C18.0985 34.875 18.1939 34.9145 18.2642 34.9848C18.3345 35.0552 18.374 35.1505 18.374 35.25C18.374 35.3495 18.3345 35.4448 18.2642 35.5152C18.1939 35.5855 18.0985 35.625 17.999 35.625C17.8001 35.625 17.6093 35.704 17.4687 35.8447C17.328 35.9853 17.249 36.1761 17.249 36.375C17.249 36.5739 17.328 36.7647 17.4687 36.9053C17.6093 37.046 17.8001 37.125 17.999 37.125C18.4963 37.125 18.9732 36.9275 19.3248 36.5758C19.6765 36.2242 19.874 35.7473 19.874 35.25C19.874 34.7527 19.6765 34.2758 19.3248 33.9242C18.9732 33.5725 18.4963 33.375 17.999 33.375Z" fill="#3F5883"/>
<path d="M12.749 32.625C12.5501 32.625 12.3593 32.704 12.2187 32.8447C12.078 32.9853 11.999 33.1761 11.999 33.375C11.999 33.5739 12.078 33.7647 12.2187 33.9053C12.3593 34.046 12.5501 34.125 12.749 34.125C13.2463 34.125 13.7232 33.9275 14.0748 33.5758C14.4265 33.2242 14.624 32.7473 14.624 32.25C14.624 31.7527 14.4265 31.2758 14.0748 30.9242C13.7232 30.5725 13.2463 30.375 12.749 30.375C12.5501 30.375 12.3593 30.454 12.2187 30.5947C12.078 30.7353 11.999 30.9261 11.999 31.125C11.999 31.3239 12.078 31.5147 12.2187 31.6553C12.3593 31.796 12.5501 31.875 12.749 31.875C12.8485 31.875 12.9439 31.9145 13.0142 31.9848C13.0845 32.0552 13.124 32.1505 13.124 32.25C13.124 32.3495 13.0845 32.4448 13.0142 32.5152C12.9439 32.5855 12.8485 32.625 12.749 32.625Z" fill="#3F5883"/>
<path d="M35.249 32.625C35.0501 32.625 34.8593 32.704 34.7187 32.8447C34.578 32.9853 34.499 33.1761 34.499 33.375C34.499 33.5739 34.578 33.7647 34.7187 33.9053C34.8593 34.046 35.0501 34.125 35.249 34.125C35.7463 34.125 36.2232 33.9275 36.5749 33.5758C36.9265 33.2242 37.124 32.7473 37.124 32.25C37.124 31.7527 36.9265 31.2758 36.5749 30.9242C36.2232 30.5725 35.7463 30.375 35.249 30.375C35.0501 30.375 34.8593 30.454 34.7187 30.5947C34.578 30.7353 34.499 30.9261 34.499 31.125C34.499 31.3239 34.578 31.5147 34.7187 31.6553C34.8593 31.796 35.0501 31.875 35.249 31.875C35.3485 31.875 35.4439 31.9145 35.5142 31.9848C35.5845 32.0552 35.624 32.1505 35.624 32.25C35.624 32.3495 35.5845 32.4448 35.5142 32.5152C35.4439 32.5855 35.3485 32.625 35.249 32.625Z" fill="#3F5883"/>
<path d="M11.999 38.625C11.8001 38.625 11.6093 38.704 11.4687 38.8447C11.328 38.9853 11.249 39.1761 11.249 39.375C11.249 39.5739 11.328 39.7647 11.4687 39.9053C11.6093 40.046 11.8001 40.125 11.999 40.125C12.4963 40.125 12.9732 39.9275 13.3248 39.5758C13.6765 39.2242 13.874 38.7473 13.874 38.25C13.874 37.7527 13.6765 37.2758 13.3248 36.9242C12.9732 36.5725 12.4963 36.375 11.999 36.375C11.8001 36.375 11.6093 36.454 11.4687 36.5947C11.328 36.7353 11.249 36.9261 11.249 37.125C11.249 37.3239 11.328 37.5147 11.4687 37.6553C11.6093 37.796 11.8001 37.875 11.999 37.875C12.0985 37.875 12.1939 37.9145 12.2642 37.9848C12.3345 38.0552 12.374 38.1505 12.374 38.25C12.374 38.3495 12.3345 38.4448 12.2642 38.5152C12.1939 38.5855 12.0985 38.625 11.999 38.625Z" fill="#3F5883"/>
<path d="M35.249 38.625C35.0501 38.625 34.8593 38.704 34.7187 38.8447C34.578 38.9853 34.499 39.1761 34.499 39.375C34.499 39.5739 34.578 39.7647 34.7187 39.9053C34.8593 40.046 35.0501 40.125 35.249 40.125C35.7463 40.125 36.2232 39.9275 36.5749 39.5758C36.9265 39.2242 37.124 38.7473 37.124 38.25C37.124 37.7527 36.9265 37.2758 36.5749 36.9242C36.2232 36.5725 35.7463 36.375 35.249 36.375C35.0501 36.375 34.8593 36.454 34.7187 36.5947C34.578 36.7353 34.499 36.9261 34.499 37.125C34.499 37.3239 34.578 37.5147 34.7187 37.6553C34.8593 37.796 35.0501 37.875 35.249 37.875C35.3485 37.875 35.4439 37.9145 35.5142 37.9848C35.5845 38.0552 35.624 38.1505 35.624 38.25C35.624 38.3495 35.5845 38.4448 35.5142 38.5152C35.4439 38.5855 35.3485 38.625 35.249 38.625Z" fill="#3F5883"/>
</svg>
