<svg width="48" height="48" viewBox="0 0 48 48" fill="none" xmlns="http://www.w3.org/2000/svg">
<path d="M30.3948 39.6306H41.2639C42.9349 39.6306 44.2943 38.1874 44.2943 36.4138V11.5309C44.2943 9.75696 42.9349 8.31409 41.2639 8.31409H6.73608C5.06543 8.31409 3.70605 9.75696 3.70605 11.5309V36.4138C3.70605 38.1877 5.06543 39.6306 6.73608 39.6306H27.7698C28.1583 39.6306 28.4729 39.316 28.4729 38.9275C28.4729 38.5393 28.1583 38.2244 27.7698 38.2244H6.73608C5.8407 38.2244 5.1123 37.4121 5.1123 36.4138V11.5309C5.1123 10.5326 5.8407 9.72034 6.73608 9.72034H41.2639C42.1593 9.72034 42.8881 10.5326 42.8881 11.5309V36.4138C42.8881 37.4121 42.1593 38.2244 41.2639 38.2244H30.3948C30.0066 38.2244 29.6917 38.5393 29.6917 38.9275C29.6917 39.316 30.0066 39.6306 30.3948 39.6306Z" fill="#3F5883"/>
<path d="M27.0132 34.3495C27.7229 34.3495 28.3941 34.1697 28.9819 33.8525C29.5858 34.1788 30.2589 34.3495 30.9536 34.3495C31.816 34.3495 32.4499 33.5391 32.2383 32.7023C31.4915 29.7557 32.7264 26.8136 33.9664 26.8136C35.2071 26.8136 36.4387 29.7675 35.6949 32.7023C35.4832 33.538 36.1161 34.3495 36.9796 34.3495C39.1714 34.3495 40.9955 32.6356 41.132 30.4479C42.0926 15.045 41.4836 25.667 41.6722 21.7837C42.0838 15.03 34.1502 11.0365 28.9856 15.4186C26.124 12.9847 21.8869 12.9855 19.0195 15.4186C17.6301 14.2368 15.8899 13.5949 14.0343 13.5949C9.47018 13.5949 6.00583 17.5104 6.32956 21.8031C6.47238 24.0923 6.71811 28.0353 6.86862 30.4479C7.00522 32.636 8.82895 34.3495 11.0211 34.3495C11.8839 34.3495 12.5174 33.5391 12.3058 32.7023C11.5693 29.7964 12.7767 26.8136 14.0343 26.8136C15.2746 26.8136 16.5062 29.7675 15.7624 32.7023C15.5507 33.5383 16.1839 34.3495 17.0471 34.3495C17.7568 34.3495 18.4277 34.17 19.0155 33.8529C19.6197 34.1788 20.2928 34.3495 20.9875 34.3495C21.8499 34.3495 22.4839 33.5391 22.2718 32.7023C21.531 29.7803 22.7512 26.8136 24.0003 26.8136C25.2407 26.8136 26.4726 29.7675 25.7288 32.7023C25.5172 33.538 26.15 34.3495 27.0132 34.3495ZM25.9054 22.0356C25.7142 21.4603 25.2689 21.0004 24.7035 20.788V17.9659C25.9559 18.1472 28.6025 18.8884 30.2893 21.91C30.1259 24.5252 30.1981 23.3694 30.1201 24.6229C28.5739 22.9281 26.7616 22.2671 25.9054 22.0356ZM21.717 22.1503C21.7097 21.9232 21.9631 20.4331 21.26 18.5786C22.0594 18.2146 22.7922 18.048 23.2972 17.9718V20.788C22.7314 21.0004 22.2861 21.4611 22.0949 22.0371C21.984 22.0671 21.8573 22.1045 21.717 22.1503ZM15.9393 22.0356C15.7478 21.4603 15.3028 21.0004 14.7374 20.788V17.9659C15.9895 18.1472 18.6361 18.8884 20.3228 21.91C20.1599 24.5252 20.232 23.3694 20.1537 24.6229C18.6075 22.9281 16.7955 22.2671 15.9393 22.0356ZM7.91452 24.6229L7.74533 21.91C9.4321 18.8884 12.0787 18.1472 13.3311 17.9659V20.788C12.7657 21 12.3204 21.4603 12.1289 22.0356C11.2727 22.2671 9.46066 22.9281 7.91452 24.6229ZM40.0862 24.6229C38.54 22.9281 36.728 22.2671 35.8718 22.0356C35.6803 21.4603 35.2353 21.0004 34.6695 20.788V17.9659C35.922 18.1472 38.5686 18.8884 40.2553 21.91L40.0862 24.6229ZM31.6831 22.1503C31.675 21.9009 31.931 20.4382 31.226 18.5786C32.0255 18.2146 32.7583 18.048 33.2633 17.9718V20.788C32.6975 21.0004 32.2522 21.4611 32.061 22.0367C31.95 22.0671 31.8233 22.1045 31.6831 22.1503ZM33.9664 22.0671C34.2978 22.0671 34.5677 22.3367 34.5677 22.6681C34.5677 22.9995 34.2978 23.269 33.9664 23.269C33.635 23.269 33.3654 22.9995 33.3654 22.6681C33.3654 22.3367 33.635 22.0671 33.9664 22.0671ZM33.2633 16.5502C32.6411 16.6274 31.6736 16.823 30.6075 17.3148C30.4193 17.0061 30.2083 16.7087 29.9747 16.4246C30.9181 15.6504 32.0522 15.1732 33.2633 15.0399V16.5502ZM29.9 19.0712C28.007 17.187 25.8116 16.6838 24.7035 16.5498V15.0392C27.1607 15.3073 29.0954 16.96 29.9 19.0712ZM23.2972 16.5502C22.6747 16.6274 21.7071 16.823 20.6414 17.3148C20.4532 17.0061 20.2419 16.7087 20.0086 16.4246C20.952 15.6504 22.0861 15.1732 23.2972 15.0399V16.5502ZM19.9339 19.0712C18.041 17.1874 15.8455 16.6838 14.7374 16.5498V15.0392C17.1939 15.3073 19.129 16.9596 19.9339 19.0712ZM14.0343 22.0671C14.3657 22.0671 14.6352 22.3367 14.6352 22.6681C14.6352 22.9995 14.3657 23.269 14.0343 23.269C13.7028 23.269 13.433 22.9995 13.433 22.6681C13.433 22.3367 13.7028 22.0671 14.0343 22.0671ZM24.0003 22.0671C24.3318 22.0671 24.6013 22.3367 24.6013 22.6681C24.6013 22.9995 24.3318 23.269 24.0003 23.269C23.6689 23.269 23.3994 22.9995 23.3994 22.6681C23.3994 22.3367 23.6689 22.0671 24.0003 22.0671ZM30.2182 32.844C30.4032 32.6217 30.5636 32.3815 30.6972 32.1273C30.735 32.4042 30.7855 32.6763 30.8488 32.9414C30.6339 32.9334 30.4226 32.9004 30.2182 32.844ZM39.7284 30.3604C39.6405 31.7739 38.4884 32.8883 37.0843 32.9414C37.2396 32.2914 37.318 31.6025 37.318 30.8917C37.318 25.5348 33.2578 23.5664 31.3549 27.4168C31.7351 21.3219 31.5135 24.8731 31.5875 23.6847C31.7885 23.6012 31.9724 23.5349 32.132 23.4829C32.8399 25.0697 35.0936 25.0708 35.8015 23.4822C36.7818 23.8008 38.6748 24.6614 39.9514 26.788L39.7284 30.3604ZM39.8785 19.0836C37.9826 17.1896 35.7802 16.6842 34.6695 16.5498V15.0392C37.1246 15.3073 39.0824 16.9761 39.8785 19.0836ZM13.3311 15.0392V16.5491C12.2204 16.6835 10.018 17.1892 8.12216 19.0833C8.91684 16.9797 10.8695 15.3076 13.3311 15.0392ZM14.0343 25.4074C11.4935 25.4074 10.099 29.5203 10.9163 32.9414C9.5123 32.8883 8.36056 31.7739 8.27231 30.3604L8.04928 26.7876C9.33249 24.6489 11.2166 23.7946 12.1981 23.4793C12.9034 25.0686 15.1604 25.073 15.869 23.4818C16.8493 23.8004 18.7423 24.6614 20.0189 26.7876C19.775 30.6954 19.7948 30.3911 19.7874 30.4644C19.6516 31.827 18.5218 32.8894 17.1518 32.9414C17.9725 29.506 16.5622 25.4074 14.0343 25.4074ZM20.2522 32.844C20.4367 32.6217 20.5971 32.3815 20.7312 32.1273C20.7685 32.4045 20.8194 32.6763 20.8828 32.9414C20.6678 32.9334 20.4565 32.9004 20.2522 32.844ZM24.0003 25.4074C22.9336 25.4074 21.9983 26.1834 21.3885 27.4168C21.4409 26.5811 21.5453 24.9027 21.6214 23.6847C21.8221 23.6012 22.0059 23.5349 22.166 23.4829C22.8739 25.0697 25.1275 25.0708 25.8351 23.4822C26.8158 23.8008 28.7083 24.6614 29.985 26.7876L29.7623 30.3604C29.7605 30.3871 29.7579 30.4204 29.7568 30.4307C29.7546 30.46 29.7495 30.5046 29.7506 30.4933C29.6012 31.8431 28.478 32.8901 27.1179 32.9414C27.9389 29.506 26.5283 25.4074 24.0003 25.4074Z" fill="#3F5883"/>
<path d="M40.1528 4.59375H13.1572C12.7687 4.59375 12.4541 4.90833 12.4541 5.29688C12.4541 5.68542 12.7687 6 13.1572 6H40.1528C43.7043 6 46.5938 8.8894 46.5938 12.4409V35.5034C46.5938 39.0553 43.7043 41.9443 40.1528 41.9443H7.84717C4.29565 41.9443 1.40625 39.0553 1.40625 35.5034V12.4409C1.40625 8.8894 4.29565 6 7.84717 6H10.5322C10.9208 6 11.2354 5.68542 11.2354 5.29688C11.2354 4.90833 10.9208 4.59375 10.5322 4.59375H7.84717C3.52039 4.59375 0 8.11414 0 12.4409V35.5034C0 39.8306 3.52039 43.3506 7.84717 43.3506H40.1528C44.4796 43.3506 48 39.8306 48 35.5034V12.4409C48 8.11414 44.4796 4.59375 40.1528 4.59375Z" fill="#3F5883"/>
</svg>
