<svg width="48" height="48" viewBox="0 0 48 48" fill="none" xmlns="http://www.w3.org/2000/svg">
<path d="M42.5806 22.4516H30.9677V8.28155L29.3899 5.91484C29.0803 2.52464 23.2157 0 15.4839 0C7.752 0 1.88748 2.52464 1.57781 5.91484L0 8.28155V41.8064C0 45.8292 7.97806 48 15.4839 48C16.8225 48 18.1502 47.935 19.4323 47.8064L19.4307 47.791C19.8999 47.9241 20.3923 48 20.9032 48H42.5806C45.5683 48 48 45.569 48 42.5806V27.871C48 24.8826 45.5683 22.4516 42.5806 22.4516ZM15.4839 1.54839C22.7837 1.54839 27.871 3.99639 27.871 6.19355C27.871 8.39071 22.7837 10.8387 15.4839 10.8387C8.184 10.8387 3.09677 8.39071 3.09677 6.19355C3.09677 3.99639 8.184 1.54839 15.4839 1.54839ZM15.4839 46.4516C7.272 46.4516 1.54839 44.0036 1.54839 41.8064V8.75071L2.08335 7.94865C3.70606 10.5693 8.92335 12.3871 15.4839 12.3871C22.0444 12.3871 27.2617 10.5693 28.8844 7.94865L29.4194 8.75071V22.4516H26.3226V13.4694L25.2085 14.0145C23.4674 14.8661 19.3773 15.4839 15.4839 15.4839C11.5905 15.4839 7.50039 14.8661 5.75923 14.0145L4.64516 13.4694V27.5799L5.07948 27.792C7.03819 28.7505 11.3164 29.4194 15.4839 29.4194V42.5806C15.4839 44.0756 16.0924 45.4312 17.0756 46.4129C16.5476 46.4346 16.0181 46.4516 15.4839 46.4516ZM24.7742 15.8431V22.4516H20.9032C17.9156 22.4516 15.4839 24.8826 15.4839 27.871C11.8854 27.871 8.11819 27.343 6.19355 26.5905V15.8431C8.41084 16.5608 11.9861 17.0323 15.4839 17.0323C18.9817 17.0323 22.5569 16.5608 24.7742 15.8431ZM42.5806 33.2903C44.0965 33.2903 45.4668 32.6632 46.4516 31.656V42.5806C46.4516 44.7151 44.7151 46.4516 42.5806 46.4516H20.9032C18.7688 46.4516 17.0323 44.7151 17.0323 42.5806V31.656C18.017 32.6632 19.3874 33.2903 20.9032 33.2903H37.9355V31.7419H20.9032C18.7688 31.7419 17.0323 30.0054 17.0323 27.871C17.0323 25.7365 18.7688 24 20.9032 24H42.5806C44.7151 24 46.4516 25.7365 46.4516 27.871C46.4516 30.0054 44.7151 31.7419 42.5806 31.7419H41.0323V33.2903H42.5806Z" fill="#3F5883"/>
<path d="M43.3551 27.871C43.3551 28.2976 43.0083 28.6452 42.5809 28.6452H38.71V30.1936H42.5809C43.8614 30.1936 44.9035 29.1515 44.9035 27.871H43.3551Z" fill="#3F5883"/>
<path d="M20.9036 25.5484C19.6231 25.5484 18.5811 26.5905 18.5811 27.871C18.5811 29.1515 19.6231 30.1936 20.9036 30.1936H26.323V25.5484H20.9036ZM21.6778 28.6452H20.9036C20.4763 28.6452 20.1294 28.2976 20.1294 27.871C20.1294 27.4444 20.4763 27.0968 20.9036 27.0968H21.6778V28.6452ZM24.7746 28.6452H23.2262V27.0968H24.7746V28.6452Z" fill="#3F5883"/>
<path d="M7.74153 3.87097C6.46101 3.87097 5.41895 4.91304 5.41895 6.19355C5.41895 7.47407 6.46101 8.51613 7.74153 8.51613H13.1609V3.87097H7.74153ZM8.51572 6.96775H7.74153C7.31417 6.96775 6.96733 6.62013 6.96733 6.19355C6.96733 5.76697 7.31417 5.41936 7.74153 5.41936H8.51572V6.96775ZM11.6125 6.96775H10.0641V5.41936H11.6125V6.96775Z" fill="#3F5883"/>
<path d="M22.4517 40.2581H20.9033V41.8064H22.4517V40.2581Z" fill="#3F5883"/>
<path d="M22.4517 43.3548H20.9033V44.9032H22.4517V43.3548Z" fill="#3F5883"/>
<path d="M37.9349 38.3892L37.5749 38.0299C36.0165 36.4707 33.9455 35.6129 31.7414 35.6129C29.5372 35.6129 27.4663 36.4707 25.9078 38.0299L24.4531 39.4839L25.9078 40.9378C27.4663 42.497 29.5372 43.3548 31.7414 43.3548C33.9455 43.3548 36.0165 42.497 37.5749 40.9378L37.9349 40.5786L41.8059 44.4495V34.5182L37.9349 38.3892ZM36.4802 39.8431C35.2144 41.1097 33.5313 41.8064 31.7414 41.8064C29.9514 41.8064 28.2683 41.1097 27.0025 39.8431L26.6425 39.4839L27.0025 39.1246C28.2683 37.8581 29.9514 37.1613 31.7414 37.1613C33.5313 37.1613 35.2144 37.8581 36.4802 39.1246L36.8394 39.4839L36.4802 39.8431ZM40.2575 40.7117L39.0296 39.4839L40.2575 38.256V40.7117Z" fill="#3F5883"/>
<path d="M22.1943 19.399C20.9958 19.8224 18.1747 20.129 15.4843 20.129C12.794 20.129 9.97285 19.8224 8.7744 19.399L8.25879 20.8591C9.62369 21.3406 12.595 21.6774 15.4843 21.6774C18.3736 21.6774 21.345 21.3406 22.7099 20.8591L22.1943 19.399Z" fill="#3F5883"/>
<path d="M8.77363 23.2699L8.25879 24.7301C9.24124 25.0769 11.011 25.3486 13.1145 25.4756L13.2082 23.9303C11.2998 23.815 9.60124 23.5618 8.77363 23.2699Z" fill="#3F5883"/>
</svg>
