<svg width="48" height="48" viewBox="0 0 48 48" fill="none" xmlns="http://www.w3.org/2000/svg">
<path d="M40.4821 22.8608C39.6438 21.0804 38.7536 19.5794 37.8364 18.3992C37.5817 18.0715 37.1096 18.0125 36.7822 18.2674C36.4547 18.5223 36.3957 18.9947 36.6506 19.3225C37.2345 20.0739 38.1373 21.4089 39.123 23.502C39.2512 23.774 39.5213 23.9335 39.803 23.9335C39.9103 23.9335 40.0193 23.9103 40.1229 23.8616C40.4981 23.6844 40.659 23.2365 40.4821 22.8608Z" fill="#3F5883"/>
<path d="M15.8923 22.8608C15.0539 21.0804 14.1637 19.5794 13.2466 18.3992C12.9918 18.0715 12.5198 18.0125 12.1924 18.2674C11.8649 18.5223 11.8059 18.9947 12.0606 19.3225C12.6446 20.0737 13.5474 21.4087 14.5332 23.5019C14.6614 23.774 14.9314 23.9335 15.2133 23.9335C15.3206 23.9335 15.4295 23.9103 15.533 23.8616C15.9082 23.6844 16.0692 23.2364 15.8923 22.8608Z" fill="#3F5883"/>
<path d="M13.7383 34.4677H9.67027C9.26452 34.4677 8.93555 34.7967 8.93555 35.2024C8.93555 35.6082 9.26452 35.9372 9.67027 35.9372H13.7383C14.144 35.9372 14.473 35.6082 14.473 35.2024C14.473 34.7967 14.144 34.4677 13.7383 34.4677Z" fill="#3F5883"/>
<path d="M13.7383 37.7947H9.67027C9.26452 37.7947 8.93555 38.1237 8.93555 38.5295C8.93555 38.9352 9.26452 39.2642 9.67027 39.2642H13.7383C14.144 39.2642 14.473 38.9352 14.473 38.5295C14.473 38.1237 14.144 37.7947 13.7383 37.7947Z" fill="#3F5883"/>
<path d="M20.8468 41.9614C20.2352 36.9388 19.2171 32.1354 17.9027 28.0707C17.8047 27.7675 17.5224 27.5621 17.2037 27.5621H16.0426V25.76C16.0426 25.4976 15.9027 25.2552 15.6755 25.1238L12.0726 23.042C11.8451 22.9106 11.5648 22.9106 11.3374 23.042L7.73457 25.1238C7.50742 25.2551 7.36745 25.4975 7.36745 25.76V27.5621H6.20598C5.88732 27.5621 5.60504 27.7675 5.50698 28.0707C4.19269 32.1354 3.17457 36.9387 2.56303 41.9614C2.53753 42.1701 2.60288 42.3799 2.74228 42.5373C2.88169 42.6947 3.08203 42.7849 3.29232 42.7849H20.1176C20.3278 42.7849 20.5281 42.6948 20.6676 42.5373C20.807 42.3799 20.8724 42.1701 20.8468 41.9614ZM8.83661 26.1839L11.7048 24.5265L14.5731 26.184V29.4995L11.7048 31.1569L8.83661 29.4995V26.1839ZM4.12575 41.3155C4.70691 36.8919 5.6057 32.6733 6.74335 29.0315H7.36726V29.9236C7.36726 30.186 7.50723 30.4284 7.73439 30.5597L11.3372 32.6416C11.4509 32.7073 11.5779 32.7401 11.7047 32.7401C11.8316 32.7401 11.9586 32.7073 12.0724 32.6416L15.6753 30.5597C15.9024 30.4285 16.0423 30.1861 16.0423 29.9236V29.0315H16.6661C17.8037 32.6733 18.7025 36.8921 19.2838 41.3155H4.12575Z" fill="#3F5883"/>
<path d="M38.329 34.4677H34.2611C33.8553 34.4677 33.5264 34.7967 33.5264 35.2024C33.5264 35.6082 33.8553 35.9372 34.2611 35.9372H38.329C38.7348 35.9372 39.0637 35.6082 39.0637 35.2024C39.0637 34.7967 38.7348 34.4677 38.329 34.4677Z" fill="#3F5883"/>
<path d="M38.329 37.7947H34.2611C33.8553 37.7947 33.5264 38.1237 33.5264 38.5295C33.5264 38.9352 33.8553 39.2642 34.2611 39.2642H38.329C38.7348 39.2642 39.0637 38.9352 39.0637 38.5295C39.0637 38.1237 38.7348 37.7947 38.329 37.7947Z" fill="#3F5883"/>
<path d="M45.4374 41.9614C44.8259 36.9394 43.8078 32.136 42.4934 28.0707C42.3953 27.7675 42.113 27.5621 41.7944 27.5621H40.6332V25.76C40.6332 25.4976 40.4932 25.2552 40.266 25.1238L36.6632 23.042C36.4359 22.9107 36.1555 22.9106 35.928 23.042L32.3251 25.1238C32.098 25.2551 31.958 25.4975 31.958 25.76V27.5621H30.7968C30.4781 27.5621 30.1959 27.7675 30.0978 28.0707C28.7833 32.1357 27.7654 36.9391 27.1539 41.9614C27.1284 42.1701 27.1937 42.3799 27.3331 42.5373C27.4725 42.6947 27.6729 42.7849 27.8831 42.7849H44.7084C44.9187 42.7849 45.1189 42.6948 45.2584 42.5373C45.3975 42.3799 45.4629 42.1701 45.4374 41.9614ZM33.4271 26.184L36.2954 24.5266L39.1636 26.184V29.4996L36.2954 31.1569L33.4271 29.4995V26.184ZM28.7164 41.3155C29.2975 36.8926 30.1964 32.6733 31.334 29.0315H31.9578V29.9236C31.9578 30.186 32.0978 30.4284 32.3249 30.5597L35.9278 32.6416C36.0416 32.7073 36.1684 32.7401 36.2953 32.7401C36.4223 32.7401 36.5491 32.7073 36.6628 32.6416L40.2657 30.5597C40.4928 30.4285 40.6328 30.1861 40.6328 29.9236V29.0315H41.2566C42.3942 32.6735 43.2932 36.8929 43.8743 41.3155H28.7164Z" fill="#3F5883"/>
<path d="M23.3858 41.6691C22.9602 38.1701 22.3511 34.8028 21.5752 31.6608C21.4779 31.2669 21.0796 31.0267 20.6858 31.1237C20.2918 31.221 20.0513 31.6192 20.1487 32.0131C20.9103 35.0977 21.5086 38.4062 21.9269 41.8466C21.9894 42.3603 21.8287 42.877 21.486 43.2642C21.1433 43.6514 20.6505 43.8734 20.134 43.8734H3.27533C2.75886 43.8734 2.26611 43.6513 1.92355 43.2643C1.5808 42.8769 1.42002 42.3603 1.48255 41.8467C2.18024 36.1082 3.38352 30.7281 4.96255 26.2881C6.55603 21.8071 8.21109 19.1672 9.31894 17.7417C9.41916 17.6127 9.47353 17.454 9.47353 17.2908V15.9872H13.9359V17.2908C13.9359 17.4541 13.9902 17.6127 14.0904 17.7417C15.1984 19.1674 16.8534 21.8074 18.4468 26.2881C18.7655 27.1842 19.0734 28.1324 19.3618 29.1068C19.4771 29.4958 19.8857 29.718 20.275 29.6026C20.664 29.4874 20.886 29.0787 20.7708 28.6895C20.4748 27.69 20.1587 26.7164 19.8312 25.7957C18.2437 21.3313 16.5748 18.5934 15.4052 17.042V15.9348C16.267 15.7336 16.9116 14.9604 16.9116 14.0379C16.9116 13.6587 16.801 13.3057 16.6133 13.006C16.6219 12.9916 16.6315 12.9782 16.6399 12.9638L17.1252 12.1225C17.328 11.7711 17.2075 11.3217 16.8561 11.119C16.5046 10.9161 16.0554 11.0366 15.8526 11.3881L15.4165 12.1436C15.2707 12.1087 15.1193 12.0881 14.9629 12.0881H8.44622C8.28975 12.0881 8.13834 12.1087 7.99256 12.1436L5.94224 8.58986C5.71931 8.20342 5.71931 7.72332 5.94224 7.33689C6.16499 6.95073 6.58003 6.71082 7.02553 6.71082H8.76619V6.88614C8.76619 8.39683 9.9945 9.62598 11.5043 9.62598H11.9051C13.415 9.62598 14.6433 8.39692 14.6433 6.88614V6.71082H16.384C16.8293 6.71082 17.2444 6.95073 17.4672 7.33698C17.6902 7.72332 17.6902 8.20351 17.4672 8.58995C17.2645 8.94142 17.385 9.39067 17.7365 9.59345C18.088 9.79614 18.5372 9.67558 18.74 9.3242C19.2242 8.48476 19.2242 7.44189 18.74 6.60263C18.2556 5.76301 17.3528 5.24138 16.384 5.24138H7.02553C6.05662 5.24138 5.1538 5.76301 4.66958 6.60254C4.18518 7.44189 4.18518 8.48476 4.66958 9.3243L6.76921 12.9636C6.77765 12.9782 6.7874 12.9917 6.79603 13.0061C6.60815 13.3057 6.49771 13.6587 6.49771 14.0379C6.49771 14.9605 7.14234 15.7336 8.00409 15.9348V17.0419C6.83456 18.5932 5.16562 21.3313 3.57805 25.7956C1.96358 30.336 0.734421 35.8249 0.0239822 41.6691C-0.089268 42.5997 0.202108 43.536 0.823296 44.2379C1.44467 44.94 2.33839 45.3425 3.27543 45.3425H20.1341C21.0711 45.3425 21.9649 44.9399 22.5865 44.2378C23.2075 43.536 23.4988 42.5997 23.3858 41.6691ZM10.2355 6.71063H13.1739V6.88595C13.1739 7.58645 12.6046 8.15636 11.905 8.15636H11.5043C10.8046 8.15636 10.2354 7.58645 10.2354 6.88595V6.71063H10.2355ZM7.96715 14.0377C7.96715 13.7729 8.18212 13.5575 8.44641 13.5575H14.9633C15.2275 13.5575 15.4425 13.7729 15.4425 14.0377C15.4425 14.3024 15.2275 14.5178 14.9633 14.5178H8.44622C8.18203 14.5178 7.96715 14.3023 7.96715 14.0377Z" fill="#3F5883"/>
<path d="M47.9757 41.6692C47.2652 35.825 46.0362 30.3361 44.4214 25.7955C42.8338 21.3314 41.1649 18.5931 39.9954 17.0418V15.9346C40.8572 15.7334 41.5017 14.9602 41.5017 14.0377C41.5017 13.7509 41.4389 13.5529 41.3274 13.4157C42.0314 13.1019 42.524 12.3963 42.524 11.5767V10.6776C42.524 10.2718 42.195 9.94286 41.7893 9.94286C41.3835 9.94286 41.0546 10.2718 41.0546 10.6776V11.5767C41.0546 11.8768 40.8109 12.1209 40.5114 12.1209H32.0778C31.7783 12.1209 31.5347 11.8767 31.5347 11.5767V7.41892H33.3561V7.59423C33.3561 9.10492 34.5845 10.3341 36.0943 10.3341H36.4951C38.0049 10.3341 39.2333 9.10502 39.2333 7.59423V7.41892H41.0546V7.93464C41.0546 8.34039 41.3836 8.66936 41.7894 8.66936C42.1951 8.66936 42.5241 8.34039 42.5241 7.93464V4.67091C42.5241 3.56063 41.6213 2.65735 40.5115 2.65735H32.0779C30.9682 2.65735 30.0654 3.56063 30.0654 4.67091V11.5766C30.0654 12.3963 30.5582 13.1017 31.2621 13.4156C31.1504 13.5527 31.0876 13.7508 31.0876 14.0376C31.0876 14.9603 31.7323 15.7335 32.5942 15.9345V17.0417C31.4246 18.5931 29.7557 21.3312 28.1681 25.7955C26.5535 30.3359 25.3244 35.8249 24.6139 41.6691C24.5005 42.5996 24.7919 43.5359 25.4131 44.2379C26.0345 44.94 26.9282 45.3426 27.8653 45.3426H44.7241C45.6612 45.3426 46.555 44.94 47.1763 44.2379C47.7975 43.5362 48.0889 42.5998 47.9757 41.6692ZM37.7639 7.59433C37.7639 8.29483 37.1947 8.86473 36.4951 8.86473H36.0943C35.3947 8.86473 34.8254 8.29483 34.8254 7.59433V7.41901H37.7638V7.59433H37.7639ZM31.5348 4.67091H31.5349C31.5349 4.37082 31.7785 4.12679 32.078 4.12679H40.5115C40.8111 4.12679 41.0547 4.37091 41.0547 4.67091V5.94957H31.5348V4.67091ZM32.5571 14.0377C32.5571 13.8332 32.6859 13.6595 32.866 13.5903H39.7236C39.9037 13.6595 40.0325 13.8332 40.0325 14.0377C40.0325 14.3024 39.8175 14.5178 39.5532 14.5178H33.0365C32.7721 14.5178 32.5571 14.3023 32.5571 14.0377ZM46.0761 43.2641C45.7334 43.6512 45.2407 43.8733 44.7241 43.8733H27.8655C27.349 43.8733 26.8563 43.6512 26.5136 43.2642C26.1709 42.8768 26.0101 42.3603 26.0727 41.8466C26.7704 36.1081 27.9737 30.728 29.5527 26.288C31.1461 21.8072 32.8012 19.1672 33.9091 17.7416C34.0092 17.6127 34.0637 17.4539 34.0637 17.2907V15.9871H38.5259V17.2907C38.5259 17.454 38.5803 17.6127 38.6805 17.7416C39.7884 19.1671 41.4434 21.807 43.0369 26.288C44.6159 30.7281 45.8193 36.1082 46.517 41.8466C46.5795 42.3603 46.4187 42.8768 46.0761 43.2641Z" fill="#3F5883"/>
</svg>
