<svg width="48" height="48" viewBox="0 0 48 48" fill="none" xmlns="http://www.w3.org/2000/svg">
<path d="M36.7327 15.375C36.6361 15.3561 36.5366 15.3563 36.4401 15.3758C36.3435 15.3953 36.2517 15.4336 36.1699 15.4885C36.0882 15.5435 36.018 15.614 35.9635 15.6961C35.909 15.7781 35.8712 15.8701 35.8522 15.9668C35.8333 16.0634 35.8336 16.1629 35.853 16.2595C35.8725 16.356 35.9108 16.4478 35.9658 16.5296C36.0207 16.6113 36.0912 16.6815 36.1733 16.736C36.2553 16.7905 36.3473 16.8283 36.444 16.8473C42.3547 18.0038 45 19.767 45 21C45 21.9195 43.5877 22.9845 41.208 23.8688L24.183 19.5233C24.0259 19.4828 23.86 19.4944 23.7101 19.5563C23.5601 19.6181 23.4343 19.7269 23.3514 19.8663C23.2685 20.0057 23.2331 20.1682 23.2503 20.3295C23.2676 20.4908 23.3367 20.6421 23.4473 20.7608L28.4258 26.1225C27.039 26.202 25.6117 26.2433 24.1665 26.2463C23.9676 26.2463 23.7768 26.3253 23.6362 26.4659C23.4955 26.6066 23.4165 26.7974 23.4165 26.9963C23.4165 27.1952 23.4955 27.3859 23.6362 27.5266C23.7768 27.6672 23.9676 27.7463 24.1665 27.7463C25.9013 27.7463 27.597 27.6713 29.2448 27.5618V36.5693C28.1257 36.6473 26.9643 36.7 25.7603 36.7275L24.6653 34.0823C24.5922 33.906 24.4547 33.7643 24.2808 33.6858C24.107 33.6074 23.9097 33.5982 23.7292 33.66C23.5755 33.7162 23.4136 33.7466 23.25 33.75C22.911 33.7512 22.5817 33.6371 22.3161 33.4265C22.0505 33.2159 21.8643 32.9213 21.7882 32.591C21.7121 32.2606 21.7505 31.9142 21.8971 31.6086C22.0438 31.303 22.2899 31.0563 22.5953 30.909C22.6839 30.8656 22.7631 30.8052 22.8284 30.7312C22.8937 30.6572 22.9438 30.5711 22.9758 30.4777C23.0078 30.3843 23.0211 30.2856 23.0149 30.1871C23.0088 30.0886 22.9833 29.9923 22.9399 29.9036C22.8965 29.815 22.8361 29.7358 22.7621 29.6705C22.6881 29.6052 22.6019 29.5551 22.5086 29.5231C22.4152 29.4911 22.3165 29.4778 22.218 29.484C22.1195 29.4901 22.0231 29.5156 21.9345 29.559C21.304 29.8659 20.8011 30.3844 20.5137 31.024C20.2263 31.6637 20.1725 32.3839 20.3618 33.0591C20.551 33.7344 20.9713 34.3217 21.5493 34.7188C22.1273 35.1159 22.8263 35.2976 23.5245 35.232L26.346 42.0443C24.72 43.5376 22.687 44.5142 20.505 44.85C21.5155 44.2821 22.4442 43.5797 23.2658 42.762C23.3706 42.657 23.4419 42.5234 23.4708 42.3778C23.4996 42.2323 23.4846 42.0815 23.4277 41.9445L20.1532 34.041C20.0772 33.8572 19.9312 33.7112 19.7474 33.635C19.5637 33.5588 19.3572 33.5588 19.1734 33.6349C18.9896 33.711 18.8435 33.857 18.7674 34.0407C18.6912 34.2245 18.6912 34.431 18.7673 34.6148L21.846 42.048C19.7718 43.9466 17.0619 44.9996 14.25 44.9996C11.4381 44.9996 8.72815 43.9466 6.654 42.048L9.78075 34.5C10.2203 34.4948 10.6487 34.3606 11.0127 34.1142C11.3768 33.8678 11.6605 33.5199 11.8287 33.1137C11.9969 32.7076 12.0421 32.261 11.9589 31.8293C11.8756 31.3977 11.6674 31 11.3603 30.6855L14.25 23.7098L17.619 31.8435C17.6952 32.0273 17.8413 32.1733 18.0251 32.2494C18.2089 32.3255 18.4155 32.3254 18.5993 32.2493C18.783 32.1731 18.929 32.027 19.0051 31.8432C19.0812 31.6593 19.0812 31.4528 19.005 31.269L15.375 22.5H18.2512L18.6337 23.424C18.1541 23.6245 17.7587 23.9848 17.5147 24.4438C17.2706 24.9028 17.1931 25.4321 17.2951 25.9418C17.3972 26.4515 17.6726 26.9101 18.0746 27.2398C18.4765 27.5694 18.9802 27.7497 19.5 27.75C19.7929 27.7504 20.083 27.6928 20.3535 27.5805L20.622 28.23C20.6982 28.4138 20.8443 28.5598 21.0281 28.6359C21.2119 28.712 21.4185 28.7119 21.6022 28.6358C21.786 28.5596 21.932 28.4135 22.0081 28.2297C22.0842 28.0458 22.0842 27.8393 22.008 27.6555L21.375 26.127C21.3247 26.0057 21.2435 25.8997 21.1394 25.8197C21.0353 25.7396 20.912 25.6883 20.7819 25.6708C20.6517 25.6534 20.5193 25.6704 20.3978 25.7202C20.2763 25.7699 20.17 25.8508 20.0895 25.9545C20.0121 26.0561 19.9102 26.1362 19.7932 26.1873C19.6762 26.2384 19.5481 26.2588 19.4211 26.2466C19.294 26.2343 19.1722 26.1899 19.0671 26.1174C18.962 26.0449 18.8772 25.9468 18.8206 25.8324C18.764 25.718 18.7376 25.591 18.7438 25.4635C18.75 25.336 18.7887 25.2122 18.8561 25.1038C18.9235 24.9954 19.0175 24.906 19.1291 24.8441C19.2408 24.7822 19.3664 24.7498 19.494 24.75L19.5945 24.7635C19.7249 24.7796 19.8573 24.7614 19.9785 24.7107C20.0997 24.6601 20.2057 24.5788 20.286 24.4748C20.3658 24.3703 20.4167 24.2468 20.4337 24.1165C20.4506 23.9861 20.4331 23.8537 20.3827 23.7323L19.443 21.4628C19.3862 21.3257 19.29 21.2087 19.1667 21.1263C19.0433 21.0439 18.8983 21 18.75 21H14.25C14.1017 21 13.9567 21.0439 13.8333 21.1263C13.71 21.2087 13.6138 21.3257 13.557 21.4628L11.9948 25.2353C5.79675 24.0825 3 22.2953 3 21C3 18.8078 10.989 15.75 24 15.75C27.1852 15.7396 30.3674 15.9443 33.525 16.3628C33.6226 16.3761 33.7219 16.37 33.8171 16.3449C33.9124 16.3199 34.0018 16.2763 34.0802 16.2167C34.1586 16.1571 34.2245 16.0826 34.2742 15.9975C34.3238 15.9124 34.3562 15.8184 34.3695 15.7208C34.3828 15.6232 34.3767 15.5239 34.3517 15.4286C34.3266 15.3334 34.283 15.244 34.2234 15.1656C34.1638 15.0871 34.0893 15.0212 34.0042 14.9716C33.9191 14.922 33.8251 14.8896 33.7275 14.8763C30.5028 14.4491 27.2529 14.2399 24 14.25C13.0927 14.25 1.5 16.6155 1.5 21V31.5C1.5 33.3503 3.5565 34.9605 7.46025 36.1823L5.07225 41.9483C5.01538 42.0853 5.00041 42.2361 5.02925 42.3816C5.05809 42.5271 5.12943 42.6608 5.23425 42.7658C6.41558 43.9533 7.82065 44.8947 9.36818 45.5357C10.9157 46.1767 12.575 46.5044 14.25 46.5H18.75C20.425 46.5044 22.0843 46.1767 23.6318 45.5357C25.1794 44.8947 26.5844 43.9533 27.7658 42.7658C27.8706 42.6608 27.9419 42.5271 27.9708 42.3816C27.9996 42.2361 27.9846 42.0853 27.9277 41.9483L26.3812 38.2133C27.594 38.1758 28.803 38.1098 29.9925 38.016H30C30.006 38.016 30.0105 38.016 30.0158 38.016C38.7982 37.3155 46.5 35.07 46.5 31.5V21C46.5 17.7705 40.3808 16.0883 36.7327 15.375ZM3 31.5V23.5755C5.00175 25.1543 8.6145 26.1143 11.4075 26.6505L9.7575 30.6405C9.68588 30.813 9.68117 31.0059 9.74428 31.1817C9.80739 31.3574 9.93379 31.5033 10.0988 31.5908C10.2485 31.6673 10.368 31.7922 10.4378 31.9453C10.5075 32.0983 10.5235 32.2704 10.4831 32.4337C10.4427 32.5969 10.3483 32.7417 10.2152 32.8445C10.0821 32.9474 9.91817 33.0021 9.75 33C9.67544 32.9977 9.60164 32.9843 9.531 32.9603C9.35246 32.9051 9.15977 32.9186 8.99067 32.9981C8.82156 33.0776 8.68822 33.2174 8.61675 33.39L8.03775 34.7888C4.341 33.654 3 32.361 3 31.5ZM30.75 28.665C31.0963 28.9795 31.532 29.1782 31.9965 29.2335C32.461 29.2889 32.9312 29.1981 33.3416 28.9737C33.7521 28.7494 34.0825 28.4027 34.2867 27.9819C34.491 27.5611 34.5591 27.0871 34.4814 26.6258C34.4037 26.1645 34.1842 25.7389 33.8534 25.4082C33.5226 25.0775 33.097 24.858 32.6357 24.7805C32.1744 24.7029 31.7004 24.7711 31.2796 24.9754C30.8588 25.1798 30.5122 25.5102 30.288 25.9208L26.2837 21.6075L40.5 25.236V34.611C37.3267 35.5772 34.0573 36.1939 30.75 36.45V28.665ZM31.5 27C31.5 26.8517 31.544 26.7067 31.6264 26.5833C31.7088 26.46 31.8259 26.3639 31.963 26.3071C32.1 26.2503 32.2508 26.2355 32.3963 26.2644C32.5418 26.2934 32.6754 26.3648 32.7803 26.4697C32.8852 26.5746 32.9566 26.7082 32.9856 26.8537C33.0145 26.9992 32.9997 27.15 32.9429 27.287C32.8861 27.4241 32.79 27.5412 32.6667 27.6236C32.5433 27.706 32.3983 27.75 32.25 27.75C32.0511 27.75 31.8603 27.671 31.7197 27.5303C31.579 27.3897 31.5 27.1989 31.5 27ZM42 34.056V25.1633C43.0731 24.7774 44.0838 24.2364 45 23.5575V31.5C45 32.3475 43.9238 33.246 42 34.056Z" fill="#3F5883"/>
<path d="M36.75 29.25C36.305 29.25 35.87 29.382 35.5 29.6292C35.13 29.8764 34.8416 30.2278 34.6713 30.639C34.501 31.0501 34.4564 31.5025 34.5432 31.939C34.6301 32.3754 34.8443 32.7763 35.159 33.091C35.4737 33.4057 35.8746 33.62 36.3111 33.7068C36.7475 33.7936 37.1999 33.749 37.611 33.5787C38.0222 33.4084 38.3736 33.12 38.6208 32.75C38.868 32.38 39 31.945 39 31.5C39 30.9033 38.763 30.331 38.341 29.909C37.919 29.4871 37.3467 29.25 36.75 29.25ZM36.75 32.25C36.6017 32.25 36.4567 32.206 36.3333 32.1236C36.21 32.0412 36.1139 31.9241 36.0571 31.787C36.0003 31.65 35.9855 31.4992 36.0144 31.3537C36.0434 31.2082 36.1148 31.0746 36.2197 30.9697C36.3246 30.8648 36.4582 30.7934 36.6037 30.7644C36.7492 30.7355 36.9 30.7503 37.037 30.8071C37.1741 30.8639 37.2912 30.96 37.3736 31.0833C37.456 31.2067 37.5 31.3517 37.5 31.5C37.5 31.6989 37.421 31.8897 37.2803 32.0303C37.1397 32.171 36.9489 32.25 36.75 32.25Z" fill="#3F5883"/>
<path d="M36.75 27.75C37.1642 27.75 37.5 27.4142 37.5 27C37.5 26.5858 37.1642 26.25 36.75 26.25C36.3358 26.25 36 26.5858 36 27C36 27.4142 36.3358 27.75 36.75 27.75Z" fill="#3F5883"/>
<path d="M33 34.5C33.4142 34.5 33.75 34.1642 33.75 33.75C33.75 33.3358 33.4142 33 33 33C32.5858 33 32.25 33.3358 32.25 33.75C32.25 34.1642 32.5858 34.5 33 34.5Z" fill="#3F5883"/>
<path d="M16.5 43.5C16.945 43.5 17.38 43.368 17.75 43.1208C18.12 42.8736 18.4084 42.5222 18.5787 42.111C18.749 41.6999 18.7936 41.2475 18.7068 40.8111C18.6199 40.3746 18.4057 39.9737 18.091 39.659C17.7763 39.3443 17.3754 39.1301 16.939 39.0432C16.5025 38.9564 16.0501 39.001 15.639 39.1713C15.2278 39.3416 14.8764 39.63 14.6292 40C14.382 40.37 14.25 40.805 14.25 41.25C14.25 41.8467 14.4871 42.419 14.909 42.841C15.331 43.263 15.9033 43.5 16.5 43.5ZM16.5 40.5C16.6483 40.5 16.7933 40.544 16.9167 40.6264C17.04 40.7088 17.1361 40.8259 17.1929 40.963C17.2497 41.1 17.2645 41.2508 17.2356 41.3963C17.2066 41.5418 17.1352 41.6754 17.0303 41.7803C16.9254 41.8852 16.7918 41.9567 16.6463 41.9856C16.5008 42.0145 16.35 41.9997 16.213 41.9429C16.0759 41.8861 15.9588 41.79 15.8764 41.6667C15.794 41.5433 15.75 41.3983 15.75 41.25C15.75 41.0511 15.829 40.8603 15.9697 40.7197C16.1103 40.579 16.3011 40.5 16.5 40.5Z" fill="#3F5883"/>
<path d="M10.5 41.25C10.3011 41.25 10.1103 41.171 9.96967 41.0303C9.82902 40.8897 9.75 40.6989 9.75 40.5C9.75 40.3011 9.67098 40.1103 9.53033 39.9697C9.38968 39.829 9.19891 39.75 9 39.75C8.80109 39.75 8.61032 39.829 8.46967 39.9697C8.32902 40.1103 8.25 40.3011 8.25 40.5C8.25 40.945 8.38196 41.38 8.62919 41.75C8.87643 42.12 9.22783 42.4084 9.63896 42.5787C10.0501 42.749 10.5025 42.7936 10.939 42.7068C11.3754 42.62 11.7763 42.4057 12.091 42.091C12.4057 41.7763 12.6199 41.3754 12.7068 40.939C12.7936 40.5025 12.749 40.0501 12.5787 39.639C12.4084 39.2278 12.12 38.8764 11.75 38.6292C11.38 38.382 10.945 38.25 10.5 38.25C10.3011 38.25 10.1103 38.329 9.96967 38.4697C9.82902 38.6103 9.75 38.8011 9.75 39C9.75 39.1989 9.82902 39.3897 9.96967 39.5303C10.1103 39.671 10.3011 39.75 10.5 39.75C10.6989 39.75 10.8897 39.829 11.0303 39.9697C11.171 40.1103 11.25 40.3011 11.25 40.5C11.25 40.6989 11.171 40.8897 11.0303 41.0303C10.8897 41.171 10.6989 41.25 10.5 41.25Z" fill="#3F5883"/>
<path d="M12.75 35.25C12.75 35.695 12.882 36.13 13.1292 36.5C13.3764 36.87 13.7278 37.1584 14.139 37.3287C14.5501 37.499 15.0025 37.5436 15.439 37.4568C15.8754 37.37 16.2763 37.1557 16.591 36.841C16.9057 36.5263 17.1199 36.1254 17.2068 35.689C17.2936 35.2525 17.249 34.8001 17.0787 34.389C16.9084 33.9778 16.62 33.6264 16.25 33.3792C15.88 33.132 15.445 33 15 33C14.4033 33 13.831 33.2371 13.409 33.659C12.9871 34.081 12.75 34.6533 12.75 35.25ZM15 34.5C15.1483 34.5 15.2933 34.544 15.4167 34.6264C15.54 34.7088 15.6361 34.8259 15.6929 34.963C15.7497 35.1 15.7645 35.2508 15.7356 35.3963C15.7066 35.5418 15.6352 35.6754 15.5303 35.7803C15.4254 35.8852 15.2918 35.9567 15.1463 35.9856C15.0008 36.0145 14.85 35.9997 14.713 35.9429C14.5759 35.8861 14.4588 35.79 14.3764 35.6667C14.294 35.5433 14.25 35.3983 14.25 35.25C14.25 35.0511 14.329 34.8603 14.4697 34.7197C14.6103 34.579 14.8011 34.5 15 34.5Z" fill="#3F5883"/>
<path d="M14.25 30.75C14.6642 30.75 15 30.4142 15 30C15 29.5858 14.6642 29.25 14.25 29.25C13.8358 29.25 13.5 29.5858 13.5 30C13.5 30.4142 13.8358 30.75 14.25 30.75Z" fill="#3F5883"/>
<path d="M22.5 38.25C22.9142 38.25 23.25 37.9142 23.25 37.5C23.25 37.0858 22.9142 36.75 22.5 36.75C22.0858 36.75 21.75 37.0858 21.75 37.5C21.75 37.9142 22.0858 38.25 22.5 38.25Z" fill="#3F5883"/>
</svg>
