<svg width="48" height="48" viewBox="0 0 48 48" fill="none" xmlns="http://www.w3.org/2000/svg">
<path d="M21.3965 41.6829C21.5457 41.6829 21.6887 41.6237 21.7942 41.5182C21.8997 41.4127 21.959 41.2696 21.959 41.1204V38.8151C21.959 38.6659 21.8997 38.5229 21.7942 38.4174C21.6887 38.3119 21.5457 38.2526 21.3965 38.2526C21.2473 38.2526 21.1042 38.3119 20.9987 38.4174C20.8932 38.5229 20.834 38.6659 20.834 38.8151V41.1204C20.834 41.2696 20.8932 41.4127 20.9987 41.5182C21.1042 41.6237 21.2473 41.6829 21.3965 41.6829Z" fill="#3F5883"/>
<path d="M2.09344 41.2109H2.10347L2.79984 41.1984C2.50074 41.4082 2.28151 41.7131 2.1779 42.0634C2.07429 42.4137 2.0924 42.7888 2.22928 43.1275C2.39088 43.5264 2.70398 43.845 3.09999 44.0135C3.49601 44.182 3.94266 44.1867 4.34212 44.0265L7.57003 42.7319C7.95095 43.3394 8.43418 43.8764 8.99831 44.319C9.92093 45.0478 11.0386 45.4872 12.2105 45.582L39.6271 41.757C39.9841 41.7037 40.3213 41.5593 40.6062 41.3377C40.8912 41.1161 41.1142 40.8249 41.2538 40.492C42.9701 39.6188 44.4212 38.3019 45.4564 36.6781C45.537 36.5524 45.5645 36.3999 45.5327 36.254C45.5008 36.1081 45.4124 35.9809 45.2867 35.9002C45.1611 35.8195 45.0085 35.7921 44.8627 35.8239C44.7168 35.8557 44.5895 35.9442 44.5088 36.0698C43.7095 37.3282 42.6277 38.3829 41.3495 39.1501C41.2465 38.7554 41.0295 38.3997 40.7255 38.1276C40.4216 37.8555 40.0443 37.6789 39.6406 37.62L25.8828 35.5411C25.258 34.2248 24.9383 32.2006 24.8921 30.7052C26.8442 28.7541 27.4859 26.7797 27.655 25.3491C27.7164 24.8304 27.7261 24.3069 27.6842 23.7863C28.6601 22.8377 29.8061 22.0814 31.0621 21.5572C31.6744 22.2663 32.4795 22.7997 33.4703 23.1502C32.9449 23.4026 32.436 23.6879 31.9466 24.0047C30.831 24.727 30.7682 25.6969 30.83 26.2105C30.8477 26.362 30.9004 26.5073 30.984 26.6348C31.0676 26.7624 31.1798 26.8687 31.3117 26.9453C31.4436 27.0219 31.5915 27.0667 31.7437 27.0762C31.8959 27.0857 32.0482 27.0596 32.1886 27C32.8594 26.7158 33.5932 26.6131 34.3162 26.7022C35.485 26.8552 36.3406 26.5011 36.8963 26.1209C37.2269 26.976 37.8644 27.6772 38.6842 28.0875C39.3255 28.4305 39.8648 28.9367 40.2478 29.5549C40.3269 29.6844 40.4352 29.7935 40.5642 29.8735C40.6931 29.9535 40.8391 30.0021 40.9902 30.0155C41.0213 30.0183 41.0524 30.0198 41.0831 30.0198C41.2208 30.0199 41.357 29.991 41.4828 29.9349C41.6085 29.8789 41.7211 29.7969 41.8131 29.6945C42.161 29.3107 42.6712 28.4826 42.1787 27.2499C41.9627 26.7092 41.7123 26.1829 41.4292 25.6741C42.4511 25.9618 43.4272 25.9882 44.3457 25.7549C45.7732 27.7257 46.291 29.9342 45.8926 32.3416C45.879 32.4222 45.8831 32.5049 45.9047 32.5838C45.9263 32.6627 45.9648 32.736 46.0176 32.7984C46.0704 32.8609 46.1362 32.9111 46.2104 32.9456C46.2846 32.98 46.3654 32.9978 46.4472 32.9978H46.4485C46.5811 32.9982 46.7095 32.9517 46.8111 32.8665C46.9127 32.7813 46.9808 32.6629 47.0035 32.5323C47.4432 29.9197 46.9171 27.5104 45.4326 25.3441C46.1975 24.9441 46.8641 24.3793 47.3842 23.6903C47.4764 23.5692 47.5276 23.4218 47.5304 23.2696C47.5333 23.1174 47.4876 22.9682 47.4 22.8437C47.3124 22.7191 47.1875 22.6257 47.0433 22.5769C46.8991 22.5281 46.7431 22.5264 46.5979 22.5722C46.0385 22.7473 44.9691 22.9227 44.0932 22.128C42.6787 20.8447 41.2357 20.7514 40.315 20.878C40.4683 20.0733 40.5507 19.2567 40.561 18.4375C41.6386 18.2445 42.617 17.6869 43.3322 16.8581C43.3646 16.8202 43.3966 16.7816 43.428 16.7422C44.8162 15.0046 44.4233 12.2496 42.57 10.7262C42.4523 10.6326 42.3544 10.5164 42.2823 10.3844L42.2691 10.3596C42.1918 10.2076 42.1475 10.0411 42.139 9.87077C42.1306 9.7005 42.1583 9.53036 42.2202 9.37153C43.0469 7.1699 42.458 4.7009 40.7881 3.3675C39.0407 1.97212 36.5634 1.94109 34.6237 3.29025C34.3979 3.44985 34.1182 3.51386 33.8455 3.46837C33.7034 3.44249 33.5677 3.38894 33.4462 3.31078C31.5262 2.10993 29.0493 2.47828 27.6847 4.16728C27.6532 4.20646 27.6222 4.24603 27.5924 4.28568C27.1524 4.86559 26.8721 5.55076 26.7795 6.27282C26.6869 6.99488 26.7853 7.72859 27.0649 8.40075C27.3435 9.08704 27.7924 9.69102 28.3692 10.1557C28.4536 10.7443 28.6021 12.6758 27.4431 15.1342C27.3755 15.0579 27.3118 14.9899 27.2529 14.931C28.0404 12.6269 27.4413 10.2259 25.5053 7.96228C24.6932 7.00881 23.5556 6.39148 22.3135 6.23033C21.0715 6.06918 19.814 6.37575 18.7854 7.0904C16.3589 8.76721 15.1627 10.9079 15.3032 13.306C14.1207 13.7508 12.4907 14.8791 12.1069 16.9154C10.7287 15.2299 8.59743 14.4155 5.87794 14.5507C4.62752 14.608 3.4434 15.1295 2.55708 16.0134C1.67075 16.8973 1.14594 18.08 1.08525 19.3302C0.937498 22.2727 1.91175 24.525 3.90722 25.8761C3.69553 26.598 3.42422 28.0533 4.08 29.4839C4.65769 30.7443 5.80312 31.6753 7.48669 32.2542C7.85817 33.2078 8.34659 34.1116 8.94075 34.9448C8.41095 35.3702 7.95402 35.879 7.58794 36.4514L4.34212 35.1492C3.94263 34.9894 3.49613 34.9943 3.10022 35.1628C2.70431 35.3312 2.39118 35.6495 2.22928 36.0482C2.09211 36.3882 2.07445 36.7648 2.17917 37.1162C2.2839 37.4676 2.50481 37.773 2.80575 37.9825L2.10506 37.9681H2.09344C1.87739 37.9632 1.66254 38.0015 1.4615 38.0807C1.26047 38.16 1.0773 38.2786 0.92276 38.4297C0.768221 38.5808 0.645427 38.7612 0.561592 38.9603C0.477756 39.1595 0.43457 39.3734 0.43457 39.5895C0.43457 39.8056 0.477756 40.0196 0.561592 40.2187C0.645427 40.4179 0.768221 40.5983 0.92276 40.7494C1.0773 40.9004 1.26047 41.0191 1.4615 41.0984C1.66254 41.1776 1.87739 41.2159 2.09344 41.211V41.2109ZM43.337 22.9603C43.9747 23.5494 44.8163 23.8678 45.6843 23.8482C44.7048 24.653 43.1385 25.2623 40.8764 24.2832C40.7262 24.2178 40.5589 24.2028 40.3994 24.2404C40.24 24.2781 40.0971 24.3665 39.9921 24.4922C39.8871 24.618 39.8257 24.7744 39.8171 24.938C39.8085 25.1016 39.8531 25.2636 39.9443 25.3997C40.419 26.1118 40.8177 26.8717 41.134 27.6668C41.3108 28.1093 41.2981 28.4791 41.094 28.7911C40.6158 28.0769 39.9676 27.4927 39.2076 27.0913C37.9265 26.418 37.8077 25.2859 37.7968 25.0663C37.7911 24.9466 37.7486 24.8316 37.6751 24.7369C37.6016 24.6423 37.5008 24.5726 37.3862 24.5373C37.2717 24.502 37.1491 24.5029 37.0351 24.5398C36.9211 24.5767 36.8213 24.6478 36.7491 24.7435C36.6179 24.9172 35.8922 25.7748 34.4622 25.5873C33.6091 25.4774 32.7421 25.5809 31.9388 25.8886C31.9538 25.5173 32.1578 25.2088 32.5582 24.9496C33.2772 24.4824 34.0431 24.0915 34.8433 23.7834C34.9964 23.725 35.1265 23.6186 35.2139 23.48C35.3014 23.3414 35.3415 23.1782 35.3284 23.0149C35.3152 22.8516 35.2494 22.6969 35.1409 22.5741C35.0324 22.4514 34.887 22.3671 34.7265 22.334C32.3119 21.8307 31.3869 20.4308 31.0542 19.2097C31.7532 19.7266 32.6256 19.952 33.4875 19.8383C34.478 19.7165 35.3461 19.8504 36.0678 20.236C36.3094 20.3632 36.5321 20.5233 36.7296 20.7119C36.6727 21.2692 36.602 21.7474 36.5444 22.0619C36.5215 22.2069 36.5561 22.3551 36.641 22.4749C36.7259 22.5947 36.8542 22.6766 36.9986 22.703C37.143 22.7295 37.2921 22.6984 37.4139 22.6165C37.5357 22.5346 37.6207 22.4083 37.6507 22.2646C37.6835 22.0853 38.4311 17.9188 37.4616 15.8032C37.7531 15.7328 38.04 15.6443 38.3205 15.5382C38.5414 15.454 38.7675 15.3839 38.9973 15.3284C39.3871 16.0263 39.9202 19.7658 38.5237 22.886C38.4925 22.9535 38.475 23.0267 38.4722 23.1011C38.4695 23.1755 38.4815 23.2497 38.5076 23.3194C38.5337 23.3891 38.5735 23.4529 38.6244 23.5072C38.6754 23.5614 38.7367 23.605 38.8046 23.6354C38.8726 23.6658 38.9459 23.6824 39.0203 23.6843C39.0948 23.6861 39.1688 23.6732 39.2382 23.6462C39.3076 23.6192 39.3709 23.5787 39.4246 23.5271C39.4782 23.4754 39.521 23.4137 39.5506 23.3453C39.7331 22.9354 39.8891 22.5143 40.0177 22.0844C40.5433 21.9323 41.9465 21.6987 43.337 22.9603ZM34.1437 18.6711C34.8984 18.0513 35.7889 17.6186 36.7425 17.4084C36.8247 18.0596 36.8513 18.7166 36.8219 19.3723C36.2319 19.0097 35.3512 18.6656 34.1437 18.6711ZM28.1062 7.97512C27.8974 7.48393 27.8229 6.94602 27.8904 6.41655C27.958 5.88708 28.1651 5.3851 28.4906 4.96209C28.5129 4.93246 28.5358 4.90309 28.5593 4.87396C29.5503 3.64753 31.4346 3.37987 32.8492 4.26459C33.0952 4.42086 33.3696 4.5272 33.6567 4.57753C34.2199 4.67294 34.798 4.54229 35.2654 4.21396C36.7935 3.1514 38.7302 3.16462 40.0854 4.24678C41.3792 5.28 41.8239 7.22493 41.1664 8.97628C41.0486 9.2838 40.9972 9.61277 41.0156 9.94156C41.034 10.2704 41.1218 10.5915 41.2732 10.884L41.2863 10.9088C41.428 11.1734 41.6213 11.4069 41.8549 11.5955C43.2198 12.7173 43.5439 14.7943 42.5486 16.04C42.5251 16.0694 42.5017 16.0983 42.4769 16.1267C41.9675 16.7131 41.2858 17.1236 40.5292 17.2995C40.4559 16.252 40.2667 15.3982 40.0421 14.9139C39.8669 14.536 39.6489 14.3139 39.3758 14.2351C38.9663 14.1165 38.4931 14.2841 37.945 14.4781C37.7724 14.5391 37.5964 14.6014 37.4335 14.6493C37.0142 14.1294 37.1263 13.6171 37.2085 13.5116C37.2919 13.4122 37.347 13.2921 37.3681 13.1641C37.3891 13.036 37.3754 12.9046 37.3282 12.7837C37.281 12.6628 37.2022 12.5568 37.1 12.4769C36.9977 12.3969 36.8759 12.3459 36.7472 12.3292C34.4697 12.0297 33.7022 10.5973 33.4472 9.76987C33.4083 9.64428 33.336 9.53164 33.238 9.44401C33.14 9.35638 33.02 9.29706 32.8908 9.27242C32.7617 9.24778 32.6283 9.25874 32.5049 9.30412C32.3815 9.34951 32.2728 9.42761 32.1904 9.53006C31.9719 9.80034 31.5261 10.0946 30.6427 9.96131C30.0831 9.88088 29.5545 9.65516 29.1094 9.30665C28.6644 8.95815 28.3185 8.49903 28.1062 7.97512ZM36.0844 14.4386L34.2587 14.5841L35.5194 13.2082C35.6932 13.2632 35.8763 13.3115 36.0685 13.3531C35.9799 13.7102 35.9854 14.0842 36.0844 14.4386ZM32.9732 11.3485L31.6581 12.9892L31.7153 11.0507C32.0297 10.984 32.3278 10.8563 32.5929 10.6747C32.7014 10.9093 32.8286 11.1346 32.9735 11.3485H32.9732ZM29.548 10.8294C29.8476 10.9439 30.1585 11.0259 30.4756 11.074C30.514 11.0797 30.5512 11.084 30.5887 11.0886L30.516 13.5491C30.5099 13.7434 30.5651 13.9347 30.6738 14.0959C30.7825 14.2571 30.9391 14.3799 31.1216 14.4471C31.304 14.5143 31.5029 14.5223 31.6902 14.4701C31.8774 14.4179 32.0435 14.3081 32.1649 14.1562L33.726 12.2088C33.9454 12.4036 34.1829 12.5771 34.4352 12.7269L33.3187 13.9457C33.1798 14.0974 33.088 14.2862 33.0544 14.4891C33.0209 14.6921 33.0471 14.9004 33.1298 15.0887C33.2125 15.277 33.3482 15.4373 33.5204 15.5498C33.6925 15.6624 33.8937 15.7225 34.0994 15.7228C34.1278 15.7228 34.1563 15.7217 34.185 15.7193L36.3138 15.5497C36.2715 15.7719 36.304 16.0019 36.4061 16.2037C36.4244 16.24 36.4413 16.2787 36.4582 16.317C34.9287 16.6581 33.5516 17.4873 32.5345 18.6795C31.856 18.5182 31.3663 18.0598 31.0483 17.6433C30.9561 17.5223 30.8278 17.4338 30.6819 17.3905C30.5361 17.3472 30.3803 17.3513 30.2369 17.4024C30.0936 17.4534 29.9702 17.5486 29.8846 17.6744C29.7989 17.8001 29.7554 17.9498 29.7604 18.1018C29.7861 18.977 30.0098 19.8349 30.4146 20.6113C29.3446 21.0835 28.3492 21.7092 27.4599 22.4689C27.4392 22.3923 27.4191 22.3228 27.4004 22.2626C27.9757 21.3954 28.5217 20.2883 28.6696 19.072C30.2655 17.5229 30.704 15.3892 30.7221 15.2965L29.6186 15.077C29.4186 15.9073 29.0737 16.6958 28.5997 17.4063C28.5101 16.9857 28.3648 16.579 28.1677 16.1969C29.3797 13.9286 29.5754 11.9836 29.5483 10.8294H29.548ZM16.0432 14.2492C16.1766 14.2155 16.2931 14.134 16.3706 14.0202C16.448 13.9063 16.481 13.7681 16.4633 13.6315C16.1821 11.4577 17.1783 9.56831 19.4251 8.0159C20.2248 7.46014 21.2026 7.22167 22.1684 7.34686C23.1342 7.47205 24.0189 7.95195 24.6505 8.69324C26.4238 10.7669 26.9021 12.8474 26.0722 14.877C26.0253 14.9916 26.0176 15.1186 26.0502 15.2381C26.0828 15.3575 26.154 15.4629 26.2526 15.5378C26.7478 15.9673 27.1261 16.5152 27.3521 17.1305C27.874 18.5473 27.5256 20.1368 26.3162 21.8555C26.2614 21.9333 26.2273 22.0237 26.2169 22.1183C26.2066 22.2129 26.2205 22.3086 26.2572 22.3964C26.262 22.4078 26.7337 23.5596 26.5377 25.2183C26.3087 27.1557 25.295 28.9111 23.5213 30.4495C23.5336 28.142 23.0368 25.517 21.1952 23.5785C20.8547 23.2198 20.4783 22.8969 20.0719 22.615C20.2602 21.8212 20.4555 21.04 20.6517 20.2837C21.5191 19.9822 23.9182 18.9913 24.6694 17.0444C24.7231 16.9052 24.7193 16.7503 24.6588 16.6139C24.5983 16.4774 24.4861 16.3706 24.3469 16.3169C24.2076 16.2632 24.0528 16.267 23.9163 16.3275C23.7799 16.388 23.6731 16.5002 23.6194 16.6394C23.1812 17.7751 21.9131 18.5238 21.0105 18.9304C22.0346 15.1522 22.9839 12.2974 22.9966 12.2595C23.0207 12.1893 23.0307 12.1149 23.0259 12.0408C23.0211 11.9667 23.0017 11.8943 22.9688 11.8277C22.9359 11.7611 22.8902 11.7017 22.8342 11.6529C22.7782 11.6041 22.7131 11.5669 22.6427 11.5434C22.5722 11.5198 22.4978 11.5105 22.4238 11.5159C22.3497 11.5213 22.2774 11.5413 22.2111 11.5747C22.1448 11.6082 22.0858 11.6544 22.0375 11.7108C21.9891 11.7672 21.9525 11.8326 21.9295 11.9032C21.9166 11.9419 20.9416 14.8738 19.8975 18.7367C19.2402 17.9317 18.3822 16.4666 18.8445 14.6641C18.8816 14.5196 18.8597 14.3663 18.7837 14.2379C18.7078 14.1095 18.5839 14.0165 18.4394 13.9794C18.2949 13.9424 18.1416 13.9642 18.0132 14.0402C17.8848 14.1162 17.7918 14.24 17.7547 14.3845C17.0302 17.2096 18.84 19.3252 19.5555 20.0283C19.3867 20.679 19.2187 21.3481 19.0552 22.0279C18.8398 21.9263 18.6186 21.8374 18.3927 21.7618C17.8457 20.1783 16.7584 18.2797 14.6252 17.6124C14.1547 17.4663 13.6656 17.3893 13.173 17.3836C13.4463 14.9522 15.9313 14.2781 16.0432 14.2492ZM24.5858 35.3455L23.4515 35.1742C23.3603 34.485 23.2897 33.3057 23.3984 32.3875C23.4153 32.2458 23.4305 32.1006 23.4443 31.9532C23.5737 31.8562 23.7007 31.7589 23.8226 31.6612C23.9304 32.8792 24.18 34.2293 24.5858 35.3455ZM8.45728 31.6312C8.42949 31.5457 8.38161 31.4681 8.31766 31.4049C8.2537 31.3417 8.17552 31.2948 8.08968 31.2681C6.58125 30.7981 5.57812 30.0432 5.10684 29.0242C4.41009 27.5167 5.094 25.8758 5.10028 25.8611C5.15513 25.7347 5.16166 25.5925 5.11863 25.4616C5.0756 25.3307 4.986 25.2201 4.86684 25.1509C2.96672 24.0469 2.07253 22.1073 2.20894 19.3857C2.25638 18.4143 2.66444 17.4955 3.35332 16.8089C4.04221 16.1223 4.96241 15.7174 5.934 15.6732C8.6655 15.5372 10.6121 16.4287 11.7193 18.3233C11.7818 18.429 11.877 18.5116 11.9905 18.5585C12.104 18.6054 12.2297 18.6141 12.3486 18.5834C12.4949 18.5454 15.9486 17.7105 17.4146 22.3869C17.4446 22.4811 17.4986 22.5658 17.5714 22.6326C17.6442 22.6995 17.7333 22.7461 17.8297 22.7678C17.8433 22.7709 19.206 23.0911 20.4228 24.3981C22.0417 26.1371 22.6846 28.854 22.2817 32.2548C22.1745 33.1594 22.2218 34.2368 22.3004 34.9999L20.411 34.7144C20.4019 34.5701 20.3372 34.435 20.2307 34.3373C19.5207 33.6876 18.7901 32.9577 18.0557 32.1792C18.2762 31.2675 18.7635 28.6694 17.6827 26.9025C17.6045 26.776 17.4794 26.6857 17.3348 26.6512C17.1901 26.6168 17.0377 26.641 16.9109 26.7186C16.784 26.7961 16.6931 26.9208 16.6579 27.0652C16.6227 27.2097 16.6461 27.3622 16.723 27.4895C17.3769 28.5582 17.2776 30.1301 17.1122 31.1557C15.5827 29.4603 14.0673 27.6102 12.7153 25.8807C13.0104 24.9947 13.6708 22.5262 12.5841 20.7489C12.5062 20.6217 12.381 20.5305 12.236 20.4956C12.0909 20.4607 11.9379 20.4848 11.8107 20.5626C11.6834 20.6405 11.5923 20.7657 11.5573 20.9107C11.5224 21.0557 11.5465 21.2087 11.6243 21.336C12.2549 22.3672 12.0843 23.811 11.8587 24.7725C9.48478 21.6711 7.79353 19.1995 7.75968 19.1498C7.71807 19.0888 7.66485 19.0366 7.60304 18.9961C7.54124 18.9556 7.47208 18.9277 7.39949 18.914C7.32691 18.9003 7.25234 18.901 7.18002 18.9161C7.10771 18.9312 7.03908 18.9603 6.97804 19.0019C6.91701 19.0436 6.86477 19.0968 6.82431 19.1586C6.78384 19.2204 6.75595 19.2896 6.74222 19.3621C6.72848 19.4347 6.72918 19.5093 6.74427 19.5816C6.75936 19.6539 6.78854 19.7226 6.83015 19.7836C6.86465 19.8342 8.60287 22.3747 11.0395 25.5516C9.99947 25.5827 8.29772 25.3725 7.13953 23.8984C7.04736 23.7811 6.91236 23.7052 6.76424 23.6874C6.61611 23.6696 6.46699 23.7114 6.34969 23.8036C6.23238 23.8958 6.15649 24.0308 6.13871 24.1789C6.12094 24.327 6.16273 24.4761 6.2549 24.5934C7.6289 26.3423 9.573 26.677 10.8603 26.677C11.1942 26.6774 11.5278 26.6546 11.8585 26.6089C13.2483 28.3852 14.809 30.2872 16.3838 32.0257C15.2944 32.2225 13.4006 32.3278 12.0682 31.1039C12.0139 31.0529 11.9501 31.0131 11.8805 30.9869C11.8108 30.9607 11.7366 30.9486 11.6622 30.9513C11.5878 30.954 11.5146 30.9715 11.447 31.0027C11.3794 31.0338 11.3187 31.0781 11.2683 31.1329C11.2179 31.1878 11.179 31.2521 11.1536 31.3221C11.1283 31.3921 11.1171 31.4664 11.1207 31.5408C11.1244 31.6151 11.1427 31.688 11.1747 31.7553C11.2067 31.8225 11.2517 31.8827 11.3072 31.9324C12.4567 32.9883 13.8794 33.274 15.0834 33.274C15.8211 33.2705 16.5552 33.1723 17.2678 32.9819C17.7553 33.4983 18.2417 33.9932 18.7218 34.459L13.2022 33.6247C13.1901 33.6229 13.178 33.6215 13.1657 33.6203C12.0253 33.5282 10.8828 33.7718 9.87918 34.3212C9.28387 33.4942 8.80539 32.589 8.45728 31.6312ZM8.6625 36.8645C9.64612 35.4629 11.3116 34.5997 13.053 34.7406L17.2342 35.3723V38.1898C17.2342 38.339 17.2935 38.4821 17.399 38.5876C17.5045 38.693 17.6476 38.7523 17.7967 38.7523C17.9459 38.7523 18.089 38.693 18.1945 38.5876C18.3 38.4821 18.3592 38.339 18.3592 38.1898V35.5423L29.7599 37.2656V38.8852C29.7599 39.0344 29.8192 39.1775 29.9247 39.283C30.0301 39.3885 30.1732 39.4477 30.3224 39.4477C30.4716 39.4477 30.6147 39.3885 30.7201 39.283C30.8256 39.1775 30.8849 39.0344 30.8849 38.8852V37.4351L39.4724 38.7327C39.7015 38.7662 39.9108 38.8812 40.0617 39.0567C40.2127 39.2322 40.2952 39.4563 40.294 39.6878C40.293 39.9198 40.209 40.1438 40.0572 40.3192C39.9053 40.4946 39.6957 40.6099 39.4662 40.6441L36.0469 41.1375V40.7625C36.0469 40.6133 35.9876 40.4702 35.8821 40.3647C35.7766 40.2593 35.6336 40.2 35.4844 40.2C35.3352 40.2 35.1921 40.2593 35.0866 40.3647C34.9811 40.4702 34.9219 40.6133 34.9219 40.7625V41.3008L26.0746 42.5791V40.8541C26.0746 40.7049 26.0153 40.5618 25.9098 40.4563C25.8043 40.3509 25.6613 40.2916 25.5121 40.2916C25.3629 40.2916 25.2198 40.3509 25.1143 40.4563C25.0089 40.5618 24.9496 40.7049 24.9496 40.8541V42.7415L13.1101 44.4518V41.4488C13.1101 41.2997 13.0508 41.1566 12.9453 41.0511C12.8398 40.9456 12.6968 40.8863 12.5476 40.8863C12.3984 40.8863 12.2553 40.9456 12.1498 41.0511C12.0444 41.1566 11.9851 41.2997 11.9851 41.4488V44.4221C11.3143 44.3159 10.6722 44.0742 10.0978 43.7119C9.52334 43.3496 9.02863 42.8743 8.64375 42.3147C8.92253 41.8586 9.13174 41.3635 9.26447 40.8457C9.50625 39.8977 9.58378 38.4607 8.6625 36.8645ZM3.92344 42.9822C3.80054 43.0316 3.66308 43.0303 3.54112 42.9787C3.41915 42.927 3.32259 42.8292 3.27253 42.7066C3.24806 42.6464 3.23579 42.582 3.23643 42.517C3.23708 42.4521 3.25062 42.3879 3.27628 42.3282C3.30199 42.2677 3.33949 42.2129 3.3866 42.167C3.43371 42.1211 3.48949 42.085 3.55069 42.0609L5.81944 41.1443L6.86006 41.1256C6.91622 41.3285 6.98294 41.5283 7.05994 41.7242L3.92344 42.9822ZM3.27253 36.4687C3.32259 36.3461 3.41914 36.2483 3.54108 36.1967C3.66303 36.145 3.80045 36.1438 3.92334 36.1931L7.07015 37.4555C6.99012 37.655 6.92083 37.8588 6.86259 38.0658L5.76487 38.0437L3.54937 37.1142C3.48872 37.0901 3.43343 37.0543 3.38667 37.0088C3.3399 36.9633 3.30259 36.909 3.27686 36.849C3.25114 36.789 3.23752 36.7246 3.23677 36.6593C3.23603 36.594 3.24818 36.5293 3.27253 36.4687ZM2.08875 39.093L8.28253 39.2205C8.30646 39.4715 8.30612 39.7242 8.2815 39.9752L2.0894 40.0859C1.96127 40.0807 1.84011 40.0262 1.75126 39.9337C1.66241 39.8412 1.61275 39.718 1.61267 39.5898C1.61258 39.4615 1.66208 39.3382 1.75081 39.2456C1.83954 39.1531 1.96062 39.0984 2.08875 39.093Z" fill="#3F5883"/>
</svg>
