<svg width="48" height="48" viewBox="0 0 48 48" fill="none" xmlns="http://www.w3.org/2000/svg">
<g clip-path="url(#clip0)">
<path d="M12.8041 27.2024H11.2044C10.7624 27.2024 10.4043 27.5605 10.4043 28.0025C10.4043 28.4441 10.7624 28.8022 11.2044 28.8022H12.8041C13.2457 28.8022 13.6039 28.4441 13.6039 28.0025C13.6039 27.5605 13.2457 27.2024 12.8041 27.2024Z" fill="#3F5883"/>
<path d="M15.2041 28.0025C15.2041 28.4441 15.5622 28.8022 16.0042 28.8022H44.0008C44.4424 28.8022 44.8005 28.4441 44.8005 28.0025C44.8005 27.5605 44.4424 27.2024 44.0008 27.2024H16.0042C15.5622 27.2024 15.2041 27.5605 15.2041 28.0025Z" fill="#3F5883"/>
<path d="M0.80593 47.9999H15.2039C15.6459 47.9999 16.004 47.6418 16.004 47.1998V46.1346C16.7323 47.3001 18.012 48.0057 19.3866 47.9999H35.7615C37.4701 48.016 38.9951 46.9314 39.5411 45.3122C40.4147 42.8999 41.8424 40.7267 43.7091 38.9666C47.3887 35.287 47.972 29.5276 47.9929 26.417C47.9966 25.778 47.7454 25.164 47.295 24.7107C46.8446 24.2577 46.232 24.0029 45.5931 24.0029H43.3726L47.4784 15.6448C48.6414 13.2687 47.7871 10.398 45.514 9.04465C45.4953 9.03183 45.4755 9.01901 45.4554 9.00693C43.1427 7.68068 40.1983 8.36871 38.7132 10.5829L29.7198 24.0029H28.7696C28.6953 23.8637 28.6184 23.7293 28.5382 23.603L28.432 23.4302C27.7769 22.3734 27.7011 21.0571 28.2302 19.9322L28.2354 19.9216C29.2892 19.6825 30.1094 18.8546 30.3386 17.7982C30.5678 16.7418 30.1647 15.6481 29.3046 14.9934C30.4712 14.0772 31.1672 12.6876 31.202 11.2043C31.202 9.05673 29.6821 7.17354 27.32 6.23396C28.4433 4.56608 28.1541 2.32332 26.6436 0.995603C25.1336 -0.331746 22.8725 -0.331746 21.3621 0.995603C19.852 2.32332 19.5624 4.56608 20.6858 6.23396C18.3236 7.17537 16.8037 9.05819 16.8037 11.2043C16.8377 12.6887 17.5338 14.0798 18.7012 14.9967C17.8421 15.6514 17.4394 16.7444 17.6686 17.8C17.8974 18.8557 18.7165 19.6832 19.77 19.9234L19.7762 19.9362C20.3053 21.0622 20.2281 22.38 19.5708 23.4364L19.4756 23.5909C19.3954 23.7165 19.3324 23.8652 19.2596 24.0014H12.7715C12.6971 23.8619 12.6202 23.7275 12.5404 23.6012L12.4339 23.4283C11.7788 22.372 11.703 21.0556 12.2325 19.9304L12.2372 19.9201C13.2914 19.681 14.1116 18.8527 14.3409 17.7964C14.5701 16.74 14.1669 15.6466 13.3068 14.9919C14.473 14.0761 15.1688 12.6869 15.2039 11.2043C15.2039 9.05673 13.6843 7.17354 11.3222 6.23396C12.4456 4.56608 12.156 2.32332 10.6459 0.995603C9.13546 -0.331746 6.87439 -0.331746 5.36432 0.995603C3.85389 2.32332 3.56425 4.56608 4.68765 6.23396C2.32552 7.17537 0.80593 9.05819 0.80593 11.2043C0.839617 12.6887 1.5357 14.0798 2.70303 14.9967C1.84401 15.6514 1.44159 16.7444 1.67045 17.8C1.89967 18.8557 2.71878 19.6832 3.77187 19.9234L3.77809 19.9362C4.3072 21.0622 4.22994 22.38 3.57267 23.4364L3.47271 23.5964C2.212 25.6305 2.06151 28.1629 3.07286 30.3317L3.63273 31.5155C3.44525 31.6184 3.27315 31.7469 3.12156 31.8977C2.66056 32.3445 2.40204 32.96 2.40571 33.6015C2.40644 33.9073 2.46612 34.2097 2.58147 34.4928C2.17905 34.5957 1.81179 34.8058 1.51922 35.1006C0.658732 35.9413 0.564994 37.2936 1.30099 38.2452C0.489197 38.8439 0.0087887 39.7919 0.00585938 40.8007V47.1998C0.00585938 47.6418 0.363969 47.9999 0.80593 47.9999ZM1.60564 46.4001V40.8007C1.60564 39.9171 2.32185 39.2009 3.20541 39.2009H11.6605C12.7103 40.2639 13.6312 41.4466 14.4042 42.7253V46.4001H1.60564ZM4.00548 33.6015C4.01134 33.1625 4.36615 32.8077 4.80519 32.8018H8.01938C8.17061 33.3353 8.34747 33.8703 8.55435 34.4016H4.80519C4.36359 34.4016 4.00548 34.0435 4.00548 33.6015ZM46.1602 25.8425C46.3104 25.993 46.3939 26.1977 46.3913 26.4104C46.3723 29.2727 45.8523 34.5638 42.5766 37.8395C40.5319 39.7758 38.9699 42.1654 38.0171 44.8153C37.6857 45.7747 36.7765 46.4136 35.7615 46.4001H19.3866C18.3683 46.4162 17.4551 45.7754 17.1237 44.8124C16.8154 43.9028 16.4185 43.0262 15.9392 42.1943V42.1892C15.0183 40.5923 13.8854 39.1277 12.5708 37.8355C11.7334 36.9823 11.0421 35.9973 10.5247 34.9197C10.5159 34.8959 10.5038 34.8743 10.4925 34.8512C9.31744 32.1925 8.72535 29.313 8.75611 26.4064C8.75501 26.1936 8.83886 25.9893 8.98899 25.8384C9.13912 25.6876 9.34307 25.6026 9.55581 25.6026H45.589C45.804 25.6026 46.0098 25.6891 46.1602 25.8425ZM40.0424 11.4716C41.0486 9.97214 43.035 9.4932 44.6139 10.3694C44.63 10.3804 44.6476 10.3918 44.6652 10.402C46.2445 11.3182 46.8461 13.2999 46.0427 14.9392L41.5905 24.0029H31.6451L40.0424 11.4716ZM24.0029 1.60563C24.9952 1.59648 25.889 2.20358 26.246 3.12925C26.6034 4.05491 26.3492 5.10508 25.6085 5.76527C24.5462 5.57706 23.4595 5.57706 22.3976 5.76527C21.6557 5.10544 21.4009 4.05491 21.7583 3.12888C22.1156 2.20285 23.0102 1.59575 24.0029 1.60563ZM22.3368 7.39214C23.4353 7.14242 24.5759 7.14242 25.6748 7.39214C27.9871 7.91356 29.6023 9.48075 29.6023 11.2043C29.4972 12.6118 28.6191 13.8447 27.3232 14.4038H20.6843C19.3877 13.8451 18.5093 12.6122 18.4035 11.2043C18.4035 9.48075 20.0186 7.91356 22.3368 7.39214ZM20.4035 16.004H27.6026C28.265 16.004 28.8022 16.5411 28.8022 17.2035C28.8022 17.8663 28.265 18.4035 27.6026 18.4035H20.4035C19.7407 18.4035 19.2035 17.8663 19.2035 17.2035C19.2035 16.5411 19.7407 16.004 20.4035 16.004ZM21.5016 20.0032H26.5041C26.1112 21.3397 26.2621 22.7773 26.9241 24.0029H21.0849C21.7458 22.7769 21.8959 21.3394 21.5016 20.0032ZM8.0051 1.60563C8.99705 1.59648 9.89085 2.20358 10.2482 3.12925C10.6052 4.05491 10.3511 5.10508 9.61037 5.76527C8.54849 5.57706 7.46171 5.57706 6.39947 5.76527C5.65762 5.10544 5.40277 4.05491 5.76051 3.12888C6.11789 2.20285 7.01243 1.59575 8.0051 1.60563ZM6.33869 7.39214C7.43755 7.14242 8.57815 7.14242 9.67665 7.39214C11.9893 7.91356 13.6041 9.48075 13.6041 11.2043C13.499 12.6118 12.621 13.8447 11.3255 14.4038H4.68618C3.38959 13.8451 2.51116 12.6122 2.40571 11.2043C2.40571 9.48075 4.02049 7.91356 6.33869 7.39214ZM4.40533 16.004H11.6045C12.2673 16.004 12.8044 16.5411 12.8044 17.2035C12.8044 17.8663 12.2673 18.4035 11.6045 18.4035H4.40533C3.74258 18.4035 3.20541 17.8663 3.20541 17.2035C3.20541 16.5411 3.74258 16.004 4.40533 16.004ZM4.83009 24.4474L4.93078 24.2877C5.72463 23.0065 5.93298 21.4478 5.50346 20.0032H10.5064C10.1131 21.3397 10.264 22.7773 10.926 24.0029H9.55581C8.91686 24.0029 8.30426 24.2577 7.85388 24.7107C7.40349 25.164 7.15231 25.778 7.15633 26.417C7.16512 28.0234 7.32477 29.6253 7.63308 31.202H5.24934L4.52214 29.655C3.73891 27.9787 3.85462 26.0201 4.83009 24.4474ZM2.40571 36.8011C2.40497 36.5858 2.49359 36.3796 2.6503 36.2317C2.7964 36.0823 2.9967 35.9992 3.20541 36.0014H9.28485C9.57815 36.5579 9.91099 37.0925 10.2816 37.6011H3.20541C2.76382 37.6011 2.40571 37.243 2.40571 36.8011Z" fill="#3F5883"/>
</g>
<defs>
<clipPath id="clip0">
<rect width="48" height="48" fill="white"/>
</clipPath>
</defs>
</svg>
