<svg width="48" height="48" viewBox="0 0 48 48" fill="none" xmlns="http://www.w3.org/2000/svg">
<path d="M42.1264 12.5036C40.8329 11.2032 39.2943 10.1722 37.5996 9.47037C35.905 8.76856 34.088 8.40985 32.2537 8.415H10.3125C10.1672 8.41447 10.0259 8.46254 9.91108 8.55155C9.79624 8.64056 9.71447 8.76542 9.67875 8.90625H7.125C6.65258 8.90625 6.19952 8.71858 5.86547 8.38453C5.53142 8.05048 5.34375 7.59742 5.34375 7.125C5.34375 6.65258 5.53142 6.19952 5.86547 5.86547C6.19952 5.53142 6.65258 5.34375 7.125 5.34375H15.54C15.714 5.34375 15.881 5.27461 16.004 5.15154C16.1271 5.02847 16.1962 4.86155 16.1962 4.6875C16.1962 4.51345 16.1271 4.34653 16.004 4.22346C15.881 4.10039 15.714 4.03125 15.54 4.03125H7.125C6.30449 4.03125 5.51758 4.3572 4.93739 4.93739C4.3572 5.51758 4.03125 6.30449 4.03125 7.125C4.03125 7.94551 4.3572 8.73242 4.93739 9.31261C5.51758 9.8928 6.30449 10.2188 7.125 10.2188H9.825L9.86737 10.4944C9.9015 10.7175 9.94238 10.9376 9.987 11.1562H7.125C6.05585 11.1562 5.03048 10.7315 4.27448 9.97552C3.51847 9.21952 3.09375 8.19415 3.09375 7.125C3.09375 6.05585 3.51847 5.03048 4.27448 4.27448C5.03048 3.51847 6.05585 3.09375 7.125 3.09375H18.1875C18.3615 3.09375 18.5285 3.02461 18.6515 2.90154C18.7746 2.77847 18.8438 2.61155 18.8438 2.4375C18.8438 2.26345 18.7746 2.09653 18.6515 1.97346C18.5285 1.85039 18.3615 1.78125 18.1875 1.78125H7.125C5.70775 1.78125 4.34855 2.34425 3.3464 3.3464C2.34425 4.34855 1.78125 5.70775 1.78125 7.125C1.78125 8.54225 2.34425 9.90145 3.3464 10.9036C4.34855 11.9057 5.70775 12.4688 7.125 12.4688H10.3282C10.8464 14.1238 11.6927 15.6576 12.8167 16.9784C13.9407 18.2992 15.3192 19.38 16.8701 20.1562C16.4118 21.4579 16.3522 22.8667 16.6987 24.2025C16.74 24.3363 16.8231 24.4534 16.9358 24.5364C17.0485 24.6194 17.185 24.6641 17.325 24.6637C17.3899 24.663 17.4543 24.6529 17.5162 24.6338C17.6821 24.5827 17.821 24.468 17.9025 24.3148C17.9841 24.1616 18.0016 23.9823 17.9513 23.8162C17.7026 22.7817 17.7467 21.6985 18.0788 20.6876C18.7867 20.955 19.5168 21.16 20.2605 21.3C19.9855 22.493 20.031 23.7375 20.3925 24.9071C20.4389 25.0338 20.5232 25.1432 20.6339 25.2203C20.7446 25.2975 20.8763 25.3387 21.0112 25.3384C21.0868 25.3371 21.1616 25.3232 21.2325 25.2971C21.3135 25.2684 21.3881 25.2239 21.452 25.1663C21.5158 25.1087 21.5677 25.0391 21.6046 24.9614C21.6415 24.8837 21.6627 24.7995 21.6671 24.7137C21.6715 24.6278 21.6589 24.5419 21.63 24.4609C21.3445 23.4908 21.3223 22.4623 21.5655 21.4808C21.9491 21.5141 22.3369 21.5321 22.728 21.5321H23.85C23.6317 22.8368 23.7944 24.1768 24.3187 25.3913C24.3715 25.5027 24.4549 25.5968 24.5591 25.6625C24.6634 25.7283 24.7842 25.7629 24.9075 25.7625C25.0065 25.7624 25.104 25.7393 25.1925 25.695C25.2702 25.658 25.3399 25.606 25.3973 25.5419C25.4548 25.4778 25.4989 25.403 25.5272 25.3217C25.5554 25.2404 25.5672 25.1543 25.5619 25.0684C25.5566 24.9825 25.5343 24.8985 25.4963 24.8213C25.065 23.7811 24.9548 22.6358 25.1798 21.5325H30.24C31.7418 21.5337 33.1817 22.1305 34.244 23.1921C35.3063 24.2537 35.9041 25.6932 35.9062 27.195C35.9062 29.6546 34.3571 33.045 31.995 35.8444C29.4345 34.5746 25.8263 34.2694 22.6238 35.0827C22.4784 35.1195 22.35 35.205 22.26 35.325C22.17 35.4449 22.1238 35.5921 22.1291 35.742C22.1348 35.8999 22.2855 39.2884 24.714 40.7111C23.7351 42.1355 23.0363 43.7332 22.6549 45.4189C22.6333 45.5149 22.6335 45.6145 22.6557 45.7103C22.6778 45.8062 22.7212 45.8959 22.7827 45.9727C22.8441 46.0495 22.9221 46.1115 23.0108 46.1541C23.0995 46.1967 23.1966 46.2188 23.295 46.2188C30.537 46.2188 33.0326 41.9659 33.8288 39.8291C33.8662 39.8119 33.9038 39.7976 33.9375 39.7781C37.6301 37.7531 46.2188 31.9999 46.2188 22.38C46.2236 20.5449 45.8644 18.7271 45.162 17.0318C44.4595 15.3365 43.4277 13.7974 42.1264 12.5036ZM11.1637 10.2956L11.0767 9.7275H29.667C29.9126 11.9756 29.7345 17.2684 28.8923 20.22H22.7288C19.9298 20.2332 17.2198 19.2371 15.0956 17.4143C12.9715 15.5915 11.5756 13.0642 11.1637 10.2956ZM30.2483 20.2204C31.0429 17.1034 31.2086 12.1283 30.981 9.7275H32.2537C35.4912 9.71961 38.6066 10.9622 40.95 13.1959C40.3965 16.0627 38.4263 20.4607 34.9583 22.0714C33.6768 20.8842 31.9951 20.2233 30.2483 20.2204ZM35.8733 23.0944C39.2108 21.3337 41.2358 17.3512 42.0296 14.3464C43.8968 16.6064 44.9144 19.4485 44.9062 22.38C44.9061 24.1196 44.5892 25.8446 43.971 27.4706C42.9499 28.0685 41.8155 28.447 40.64 28.582C39.4645 28.717 38.2738 28.6055 37.1438 28.2547C37.1914 27.9035 37.2165 27.5495 37.2188 27.195C37.2183 25.7197 36.7468 24.283 35.8729 23.0944H35.8733ZM24.15 44.8834C24.5792 43.4315 25.283 42.0754 26.2234 40.8889C26.295 40.8076 26.3454 40.7098 26.37 40.6043C26.3947 40.4988 26.3929 40.3889 26.3647 40.2843C26.3365 40.1797 26.2828 40.0837 26.2085 40.0048C26.1342 39.926 26.0415 39.8668 25.9387 39.8325C24.1721 39.2438 23.649 37.2045 23.4982 36.2265C26.0516 35.6635 28.7161 35.8957 31.1336 36.8918C30.9724 37.1658 30.876 37.473 30.8518 37.7901C30.8275 38.1071 30.8761 38.4254 30.9939 38.7208C31.1116 39.0161 31.2953 39.2806 31.531 39.494C31.7666 39.7075 32.048 39.8642 32.3535 39.9521C31.494 41.7983 29.3393 44.604 24.15 44.8834ZM33.3045 38.6273C33.2558 38.6538 33.2044 38.675 33.1511 38.6906L33.1238 38.6978C33.0088 38.727 32.8886 38.7295 32.7725 38.7052C32.6563 38.6808 32.5473 38.6302 32.4538 38.5572C32.3603 38.4841 32.2847 38.3907 32.2328 38.284C32.181 38.1772 32.1543 38.06 32.1548 37.9414C32.1574 37.7391 32.2361 37.5452 32.3752 37.3984C34.599 34.9882 36.2261 32.1109 36.8888 29.55C37.5148 29.7263 38.1557 29.8443 38.8035 29.9025H38.8185C39.126 29.9325 39.4223 29.9437 39.711 29.9437C40.876 29.9454 42.0318 29.7379 43.1235 29.331C40.5375 34.1756 35.7694 37.275 33.306 38.6273H33.3045Z" fill="#3F5883"/>
<path d="M24.2815 17.97H22.729C22.1034 17.9703 21.4792 17.9098 20.8652 17.7893C20.6945 17.7556 20.5173 17.7911 20.3728 17.8881C20.3012 17.9361 20.2398 17.9977 20.192 18.0695C20.1443 18.1412 20.1111 18.2216 20.0944 18.3062C20.0778 18.3907 20.0779 18.4778 20.0949 18.5623C20.1118 18.6467 20.1453 18.7271 20.1933 18.7987C20.2902 18.9432 20.4406 19.0433 20.6114 19.077C21.3089 19.214 22.0181 19.2828 22.729 19.2825H24.2815C24.4555 19.2825 24.6225 19.2134 24.7455 19.0903C24.8686 18.9672 24.9377 18.8003 24.9377 18.6263C24.9377 18.4522 24.8686 18.2853 24.7455 18.1622C24.6225 18.0391 24.4555 17.97 24.2815 17.97Z" fill="#3F5883"/>
<path d="M21.0938 12.0476C21.0938 11.6953 20.9893 11.3509 20.7936 11.058C20.5978 10.7651 20.3196 10.5368 19.9942 10.4019C19.6687 10.2671 19.3105 10.2319 18.965 10.3006C18.6195 10.3693 18.3021 10.539 18.053 10.7881C17.8039 11.0372 17.6342 11.3546 17.5655 11.7001C17.4967 12.0456 17.532 12.4038 17.6668 12.7293C17.8017 13.0547 18.03 13.3329 18.3229 13.5287C18.6158 13.7244 18.9602 13.8289 19.3125 13.8289C19.7847 13.8283 20.2375 13.6404 20.5714 13.3065C20.9053 12.9726 21.0932 12.5198 21.0938 12.0476ZM19.3125 12.5164C19.2198 12.5164 19.1292 12.4889 19.0521 12.4374C18.975 12.3859 18.9149 12.3126 18.8794 12.227C18.844 12.1413 18.8347 12.0471 18.8528 11.9562C18.8708 11.8652 18.9155 11.7817 18.981 11.7162C19.0466 11.6506 19.1301 11.606 19.2211 11.5879C19.312 11.5698 19.4062 11.5791 19.4919 11.6145C19.5775 11.65 19.6507 11.7101 19.7023 11.7872C19.7538 11.8643 19.7813 11.9549 19.7813 12.0476C19.7812 12.1719 19.7317 12.2911 19.6439 12.379C19.556 12.4668 19.4368 12.5163 19.3125 12.5164Z" fill="#3F5883"/>
</svg>
