<svg width="17" height="14" viewBox="0 0 17 14" fill="none" xmlns="http://www.w3.org/2000/svg">
<path d="M13.9401 0.94C14.2218 0.671778 14.5967 0.523494 14.9857 0.526437C15.3747 0.52938 15.7473 0.683321 16.025 0.955775C16.3026 1.22823 16.4636 1.59789 16.4738 1.98675C16.4841 2.37561 16.3429 2.75325 16.0801 3.04L8.10007 13.02C7.96285 13.1678 7.79724 13.2864 7.61314 13.3687C7.42903 13.4511 7.23021 13.4954 7.02857 13.4992C6.82693 13.5029 6.62661 13.4659 6.43958 13.3905C6.25256 13.315 6.08267 13.2026 5.94007 13.06L0.648071 7.768C0.500697 7.63068 0.382493 7.46508 0.300509 7.28108C0.218525 7.09708 0.174441 6.89845 0.170888 6.69705C0.167334 6.49564 0.204384 6.29558 0.279826 6.10881C0.355268 5.92203 0.467557 5.75236 0.609995 5.60992C0.752432 5.46749 0.9221 5.3552 1.10888 5.27976C1.29565 5.20431 1.49571 5.16726 1.69712 5.17082C1.89852 5.17437 2.09715 5.21845 2.28115 5.30044C2.46515 5.38242 2.63075 5.50063 2.76807 5.648L6.95607 9.834L13.9021 0.984C13.9146 0.968602 13.9279 0.953912 13.9421 0.94H13.9401Z" fill="#F70F00"/>
</svg>
