<svg width="40" height="40" viewBox="0 0 40 40" fill="none" xmlns="http://www.w3.org/2000/svg">
<path d="M14.0007 5.078C14.0007 4.81279 14.1061 4.55843 14.2936 4.3709C14.4812 4.18336 14.7355 4.078 15.0007 4.078H25.0007C25.2659 4.078 25.5203 4.18336 25.7078 4.3709C25.8954 4.55843 26.0007 4.81279 26.0007 5.078V10H31.0007C31.2659 10 31.5203 10.1054 31.7078 10.2929C31.8954 10.4804 32.0007 10.7348 32.0007 11V19.126L35.2687 20.036C35.4098 20.0751 35.5406 20.1446 35.6519 20.2398C35.7632 20.335 35.8522 20.4534 35.9127 20.5867C35.9731 20.7201 36.0036 20.8651 36.0019 21.0115C36.0001 21.1579 35.9663 21.3021 35.9027 21.434L32.2527 29.01C31.908 28.6206 31.4681 28.3275 30.9759 28.1595C30.4838 27.9914 29.9564 27.9541 29.4456 28.0513C28.9347 28.1486 28.4579 28.3769 28.0619 28.714C27.6659 29.051 27.3643 29.4852 27.1867 29.974C27.0056 30.3813 26.773 30.7638 26.4947 31.112C25.9767 31.75 25.4987 32 25.0147 32C24.5347 32 24.0507 31.748 23.5227 31.1C23.2299 30.7342 22.9865 30.3314 22.7987 29.902C22.579 29.3316 22.1903 28.8419 21.6847 28.4985C21.179 28.1551 20.5805 27.9743 19.9693 27.9804C19.3581 27.9865 18.7633 28.1791 18.2646 28.5326C17.7659 28.886 17.387 29.3833 17.1787 29.958C16.9957 30.3681 16.7611 30.7532 16.4807 31.104C15.9607 31.75 15.4807 32 15.0007 32C14.5187 32 14.0407 31.75 13.5227 31.112C13.234 30.7506 12.9946 30.3524 12.8107 29.928C12.6235 29.4388 12.3115 29.0072 11.9057 28.6761C11.4999 28.3449 11.0145 28.1258 10.4978 28.0404C9.98104 27.9551 9.45094 28.0065 8.96023 28.1896C8.46951 28.3727 8.03528 28.681 7.70072 29.084L4.09672 21.424C4.03497 21.2924 4.00263 21.149 4.00196 21.0037C4.00129 20.8584 4.03231 20.7146 4.09285 20.5825C4.15339 20.4504 4.24199 20.3331 4.3525 20.2387C4.46301 20.1443 4.59276 20.0751 4.73272 20.036L8.00072 19.126V11C8.00072 10.7348 8.10608 10.4804 8.29362 10.2929C8.48115 10.1054 8.73551 10 9.00072 10H14.0007V5.08V5.078ZM24.0007 6.078H16.0007V10H24.0007V6.08V6.078ZM30.0007 18.57V12H10.0007V18.568L18.3807 16.23C19.4346 15.9362 20.5488 15.9362 21.6027 16.23L30.0007 18.57Z" fill="#3F5883"/>
<path d="M22.7988 29.902L22.8028 29.912V29.918L22.7988 29.902Z" fill="#3F5883"/>
<path d="M30.976 30.78L30.97 30.76C30.9186 30.5531 30.8024 30.368 30.6383 30.2319C30.4743 30.0957 30.271 30.0155 30.0582 30.003C29.8454 29.9905 29.6341 30.0463 29.4552 30.1623C29.2764 30.2784 29.1393 30.4485 29.064 30.648L29.054 30.67C29.046 30.69 29.034 30.726 29.014 30.77C28.7592 31.3433 28.4312 31.8811 28.038 32.37C27.322 33.25 26.328 34 25 34C23.672 34 22.676 33.248 21.956 32.368C21.5387 31.8507 21.1942 31.2787 20.932 30.668L20.922 30.644C20.8492 30.4546 20.7205 30.2918 20.553 30.1772C20.3855 30.0627 20.1872 30.0018 19.9842 30.0026C19.7813 30.0035 19.5835 30.0661 19.4169 30.1821C19.2504 30.2981 19.1231 30.462 19.052 30.652L19.042 30.672C19.034 30.692 19.022 30.728 19.002 30.772C18.7487 31.3446 18.422 31.8818 18.03 32.37C17.318 33.25 16.328 34 15 34C13.672 34 12.68 33.25 11.964 32.37C11.5478 31.8527 11.2046 31.2807 10.944 30.67L10.936 30.65V30.646C10.8609 30.4465 10.724 30.2763 10.5452 30.1601C10.3665 30.0439 10.1554 29.9878 9.94255 30.0001C9.72974 30.0124 9.52642 30.0924 9.36226 30.2283C9.19809 30.3643 9.08168 30.5492 9.03 30.756L9.026 30.772L8.998 30.866C8.81539 31.4166 8.546 31.9344 8.2 32.4C7.586 33.218 6.608 34 5 34C4.73478 34 4.48043 34.1054 4.29289 34.2929C4.10536 34.4804 4 34.7348 4 35C4 35.2652 4.10536 35.5196 4.29289 35.7071C4.48043 35.8946 4.73478 36 5 36C7.392 36 8.914 34.782 9.8 33.6C9.9 33.464 9.996 33.33 10.08 33.196C10.182 33.34 10.292 33.484 10.412 33.63C11.32 34.75 12.828 36 15 36C17.172 36 18.676 34.75 19.584 33.63C19.734 33.444 19.87 33.26 19.992 33.08C20.118 33.26 20.256 33.446 20.406 33.632C21.32 34.752 22.828 36 25 36C27.172 36 28.68 34.75 29.588 33.63C29.704 33.49 29.812 33.346 29.912 33.206C29.998 33.342 30.092 33.478 30.192 33.614C31.08 34.806 32.606 36.028 35.012 36C35.1433 35.9984 35.273 35.971 35.3938 35.9193C35.5145 35.8676 35.6238 35.7926 35.7156 35.6986C35.8073 35.6046 35.8797 35.4935 35.9285 35.3716C35.9773 35.2497 36.0016 35.1193 36 34.988C35.9984 34.8567 35.971 34.727 35.9193 34.6062C35.8676 34.4855 35.7926 34.3762 35.6986 34.2844C35.6046 34.1927 35.4935 34.1203 35.3716 34.0715C35.2497 34.0227 35.1193 33.9984 34.988 34C33.382 34.02 32.408 33.24 31.798 32.42C31.4521 31.9506 31.184 31.4286 31.004 30.874L30.976 30.778V30.78Z" fill="#3F5883"/>
</svg>
