<svg width="40" height="40" viewBox="0 0 40 40" fill="none" xmlns="http://www.w3.org/2000/svg">
<path d="M32.3746 7.63594C30.7525 5.99779 28.8227 4.69628 26.6961 3.80619C24.5694 2.9161 22.2879 2.45498 19.9825 2.4493C17.6772 2.44363 15.3934 2.89352 13.2624 3.77313C11.1314 4.65274 9.19523 5.94473 7.56508 7.57488C5.93493 9.20503 4.64294 11.1412 3.76333 13.2722C2.88372 15.4032 2.43383 17.6869 2.43951 19.9923C2.44518 22.2977 2.90631 24.5792 3.7964 26.7059C4.68648 28.8325 5.98799 30.7623 7.62615 32.3844C9.24825 34.0225 11.1781 35.324 13.3047 36.2141C15.4313 37.1042 17.7128 37.5653 20.0182 37.571C22.3236 37.5767 24.6074 37.1268 26.7383 36.2472C28.8693 35.3676 30.8055 34.0756 32.4356 32.4454C34.0658 30.8153 35.3578 28.8791 36.2374 26.7481C37.117 24.6172 37.5669 22.3334 37.5612 20.028C37.5555 17.7226 37.0944 15.4411 36.2043 13.3145C35.3143 11.1878 34.0127 9.25805 32.3746 7.63594ZM5.00037 20.0102C4.9998 18.6826 5.17583 17.3608 5.5238 16.0797C6.09724 17.3141 6.93005 18.3805 7.49646 19.6469C8.22849 21.275 10.1941 20.8234 11.0621 22.25C11.8324 23.5164 11.0097 25.118 11.5863 26.443C12.0051 27.4047 12.9926 27.6148 13.6738 28.318C14.3699 29.0273 14.3551 29.9992 14.4613 30.9242C14.5812 32.011 14.7757 33.0883 15.0433 34.1484C15.0433 34.1563 15.0433 34.1649 15.0496 34.1727C9.20349 32.1195 5.00037 26.5469 5.00037 20.0102ZM20.0004 35.0102C19.1627 35.0099 18.3264 34.9399 17.5004 34.8008C17.509 34.5891 17.5129 34.3914 17.534 34.2539C17.7238 33.0117 18.3457 31.7969 19.1847 30.8672C20.0136 29.95 21.1496 29.3297 21.8496 28.2891C22.5355 27.2734 22.741 25.9063 22.4582 24.7195C22.0418 22.9664 19.6597 22.3813 18.3754 21.4305C17.6371 20.8836 16.9801 20.0383 16.0105 19.9695C15.5636 19.9383 15.1894 20.0344 14.7465 19.9203C14.3402 19.8148 14.0215 19.5961 13.5886 19.6531C12.7801 19.7594 12.2699 20.6234 11.4011 20.5063C10.5769 20.3961 9.72771 19.4313 9.54021 18.6461C9.29958 17.6367 10.098 17.3094 10.9535 17.2195C11.3105 17.182 11.7113 17.1414 12.0543 17.2727C12.5058 17.4398 12.7191 17.882 13.1246 18.1055C13.8847 18.5227 14.0386 17.8563 13.9222 17.1813C13.748 16.1703 13.5449 15.7586 14.4465 15.0625C15.0715 14.5828 15.6058 14.2359 15.5058 13.3742C15.4465 12.868 15.1691 12.6391 15.4277 12.1352C15.6238 11.7516 16.1621 11.4055 16.5129 11.1766C17.4183 10.5859 20.3918 10.6297 19.1769 8.97657C18.8199 8.49141 18.1613 7.62422 17.5363 7.50547C16.7551 7.35782 16.4082 8.22969 15.8636 8.61407C15.3011 9.01172 14.2058 9.46329 13.6426 8.84844C12.8847 8.0211 14.1449 7.75001 14.4238 7.17188C14.5527 6.90235 14.4238 6.52813 14.2066 6.17579C14.4884 6.05704 14.7748 5.94688 15.066 5.84532C15.2485 5.98008 15.4649 6.06125 15.691 6.07969C16.2136 6.11407 16.7066 5.83125 17.1629 6.18751C17.6691 6.57813 18.034 7.07188 18.7058 7.19376C19.3558 7.31172 20.0441 6.93282 20.2051 6.26719C20.3027 5.86251 20.2051 5.43516 20.1113 5.01719C23.0332 5.03401 25.8857 5.90906 28.3144 7.5336C28.1582 7.47422 27.9715 7.48126 27.741 7.58829C27.2668 7.8086 26.5949 8.36954 26.5394 8.92579C26.4761 9.55704 27.4074 9.6461 27.8496 9.6461C28.5136 9.6461 29.1863 9.34922 28.9722 8.58204C28.8793 8.24922 28.7527 7.90313 28.5488 7.69376C29.039 8.03388 29.5085 8.40276 29.9551 8.79844C29.948 8.80547 29.941 8.81172 29.934 8.81954C29.484 9.28829 28.9613 9.65938 28.6535 10.2297C28.4363 10.6313 28.1918 10.8219 27.7519 10.9258C27.5097 10.9828 27.2332 11.0039 27.0301 11.1664C26.4644 11.6117 26.7863 12.682 27.3222 13.0031C27.9996 13.4086 29.0043 13.218 29.5152 12.6391C29.9144 12.1859 30.1496 11.3992 30.8676 11.4C31.1836 11.3993 31.4873 11.5231 31.7129 11.7445C32.0097 12.0523 31.9511 12.3398 32.0144 12.7242C32.1261 13.407 32.7285 13.0367 33.0949 12.6922C33.362 13.1675 33.603 13.657 33.8168 14.1586C33.4136 14.7391 33.0933 15.3719 32.1238 14.6953C31.5433 14.2898 31.1863 13.7016 30.4574 13.5188C29.8207 13.3625 29.1683 13.525 28.5394 13.6336C27.8246 13.7578 26.9769 13.8125 26.4347 14.3539C25.9105 14.8758 25.6332 15.5742 25.0754 16.0984C23.9965 17.1141 23.541 18.2227 24.2394 19.6586C24.9113 21.0391 26.3168 21.7883 27.8332 21.6898C29.323 21.5906 30.8707 20.7266 30.8277 22.8914C30.8121 23.6578 30.9722 24.1883 31.2074 24.9C31.4254 25.5563 31.4105 26.1922 31.4605 26.8695C31.5081 27.6627 31.6321 28.4494 31.8308 29.2188C30.4305 31.0217 28.6367 32.4808 26.5863 33.4845C24.5359 34.4882 22.2832 35.0101 20.0004 35.0102Z" fill="#3F5883"/>
</svg>
