<svg width="40" height="40" viewBox="0 0 40 40" fill="none" xmlns="http://www.w3.org/2000/svg">
<path d="M23.5156 3.59375C23.5156 1.65516 21.9386 0 20 0C18.0614 0 16.4844 1.65516 16.4844 3.59375C16.4844 5.53234 18.0614 7.10938 20 7.10938C21.9386 7.10938 23.5156 5.53234 23.5156 3.59375Z" fill="#3F5883"/>
<path d="M25.8594 12.9688C25.8594 9.73805 23.2307 7.10938 20 7.10938C16.7693 7.10938 14.1406 9.73805 14.1406 12.9688V14.1406H25.8594V12.9688Z" fill="#3F5883"/>
<path d="M34.0625 21.1719C36.0041 21.1719 37.5781 19.5979 37.5781 17.6562C37.5781 15.7146 36.0041 14.1406 34.0625 14.1406C32.1209 14.1406 30.5469 15.7146 30.5469 17.6562C30.5469 19.5979 32.1209 21.1719 34.0625 21.1719Z" fill="#3F5883"/>
<path d="M34.0625 21.1719C30.8318 21.1719 28.2031 23.8005 28.2031 27.0312V28.2031H40V27.0312C40 23.8005 37.2932 21.1719 34.0625 21.1719Z" fill="#3F5883"/>
<path d="M5.9375 21.1719C7.87913 21.1719 9.45312 19.5979 9.45312 17.6562C9.45312 15.7146 7.87913 14.1406 5.9375 14.1406C3.99587 14.1406 2.42188 15.7146 2.42188 17.6562C2.42188 19.5979 3.99587 21.1719 5.9375 21.1719Z" fill="#3F5883"/>
<path d="M11.7969 27.0312C11.7969 23.8005 9.1682 21.1719 5.9375 21.1719C2.7068 21.1719 0 23.8005 0 27.0312V28.2031H11.7969V27.0312Z" fill="#3F5883"/>
<path d="M20 32.8906C21.9416 32.8906 23.5156 31.3166 23.5156 29.375C23.5156 27.4334 21.9416 25.8594 20 25.8594C18.0584 25.8594 16.4844 27.4334 16.4844 29.375C16.4844 31.3166 18.0584 32.8906 20 32.8906Z" fill="#3F5883"/>
<path d="M25.8594 38.75C25.8594 35.5193 23.2307 32.8906 20 32.8906C16.7693 32.8906 14.1406 35.5193 14.1406 38.75V40H25.8594V38.75Z" fill="#3F5883"/>
<path d="M7.10938 10.625C7.10938 8.68641 8.68641 7.10938 10.625 7.10938H11.7969V4.76562H10.625C7.3943 4.76562 4.76562 7.3943 4.76562 10.625V11.7969H7.10938V10.625Z" fill="#3F5883"/>
<path d="M32.8906 10.625V11.7969H35.2344V10.625C35.2344 7.3943 32.6057 4.76562 29.375 4.76562H28.2031V7.10938H29.375C31.3136 7.10938 32.8906 8.68641 32.8906 10.625Z" fill="#3F5883"/>
<path d="M4.76562 30.5469V31.7188C4.76562 34.9495 7.3943 37.5781 10.625 37.5781H11.7969V35.2344H10.625C8.68641 35.2344 7.10938 33.6573 7.10938 31.7188V30.5469H4.76562Z" fill="#3F5883"/>
<path d="M35.2344 31.7188V30.5469H32.8906V31.7188C32.8906 33.6573 31.3136 35.2344 29.375 35.2344H28.2031V37.5781H29.375C32.6057 37.5781 35.2344 34.9495 35.2344 31.7188Z" fill="#3F5883"/>
</svg>
