<svg width="19" height="19" viewBox="0 0 19 19" fill="none" xmlns="http://www.w3.org/2000/svg">
<path d="M3.16602 4.75H15.8327L14.5818 16.0075C14.539 16.3949 14.3547 16.7529 14.0643 17.0129C13.7739 17.2729 13.3978 17.4167 13.008 17.4167H5.99068C5.60089 17.4167 5.22479 17.2729 4.9344 17.0129C4.64401 16.7529 4.45973 16.3949 4.41685 16.0075L3.16602 4.75Z" stroke="#95A6C2" stroke-width="1.58333" stroke-linecap="round" stroke-linejoin="round"/>
<path d="M5.81479 2.49154C5.94285 2.21997 6.14548 1.99041 6.39905 1.82963C6.65262 1.66886 6.94667 1.58349 7.24692 1.5835H11.7531C12.0535 1.58334 12.3477 1.66864 12.6014 1.82942C12.8551 1.99021 13.0579 2.21985 13.186 2.49154L14.25 4.75016H4.75L5.81479 2.49154Z" stroke="#95A6C2" stroke-width="1.58333" stroke-linecap="round" stroke-linejoin="round"/>
<path d="M1.58301 4.75H17.4163" stroke="#95A6C2" stroke-width="1.58333" stroke-linecap="round" stroke-linejoin="round"/>
<path d="M7.91602 8.7085V12.6668" stroke="#95A6C2" stroke-width="1.58333" stroke-linecap="round" stroke-linejoin="round"/>
<path d="M11.083 8.7085V12.6668" stroke="#95A6C2" stroke-width="1.58333" stroke-linecap="round" stroke-linejoin="round"/>
</svg>
