<svg width="24" height="24" viewBox="0 0 24 24" fill="none" xmlns="http://www.w3.org/2000/svg">
<g clip-path="url(#clip0)">
<path d="M16.5004 3.75017C16.5003 2.87032 16.8096 2.01844 17.3741 1.34358C17.9386 0.668725 18.7225 0.213861 19.5885 0.0585715C20.4546 -0.096718 21.3476 0.0574559 22.1115 0.494119C22.8753 0.930783 23.4613 1.62213 23.7669 2.4472C24.0725 3.27228 24.0783 4.17854 23.7832 5.00742C23.4881 5.83631 22.9109 6.53505 22.1527 6.98138C21.3945 7.42771 20.5034 7.59322 19.6355 7.44894C18.7675 7.30467 17.978 6.8598 17.4049 6.19217L7.3279 10.8722C7.55956 11.6063 7.55956 12.394 7.3279 13.1282L17.4049 17.8082C18.0107 17.1037 18.8564 16.6491 19.7782 16.5326C20.7 16.4162 21.6322 16.646 22.3942 17.1777C23.1561 17.7094 23.6936 18.505 23.9024 19.4104C24.1112 20.3157 23.9764 21.2664 23.5243 22.078C23.0721 22.8897 22.3347 23.5046 21.455 23.8036C20.5753 24.1026 19.6159 24.0643 18.7628 23.6963C17.9097 23.3282 17.2236 22.6566 16.8375 21.8115C16.4513 20.9664 16.3927 20.008 16.6729 19.1222L6.5959 14.4422C6.09705 15.0235 5.43212 15.4382 4.69057 15.6303C3.94901 15.8224 3.1664 15.7829 2.448 15.5169C1.72961 15.2509 1.10991 14.7713 0.672259 14.1426C0.234606 13.5139 0 12.7662 0 12.0002C0 11.2341 0.234606 10.4865 0.672259 9.85774C1.10991 9.22902 1.72961 8.74942 2.448 8.48345C3.1664 8.21748 3.94901 8.1779 4.69057 8.37004C5.43212 8.56217 6.09705 8.97681 6.5959 9.55817L16.6729 4.87817C16.5582 4.51317 16.5 4.13276 16.5004 3.75017Z" fill="#F70F00"/>
</g>
<defs>
<clipPath id="clip0">
<rect width="24" height="24" fill="white"/>
</clipPath>
</defs>
</svg>
