<svg width="16" height="16" viewBox="0 0 16 16" fill="none" xmlns="http://www.w3.org/2000/svg">
<path d="M8 1C9.5913 1 11.1174 1.63214 12.2426 2.75736C13.3679 3.88258 14 5.4087 14 7C14 9.867 12.065 12.506 8.268 14.922C8.18787 14.9729 8.09492 14.9999 8 14.9999C7.90508 14.9999 7.81213 14.9729 7.732 14.922C3.935 12.506 2 9.867 2 7C2 5.4087 2.63214 3.88258 3.75736 2.75736C4.88258 1.63214 6.4087 1 8 1ZM8 2C6.67392 2 5.40215 2.52678 4.46447 3.46447C3.52678 4.40215 3 5.67392 3 7C3 9.325 4.54 11.558 7.68 13.692L8 13.905L8.32 13.692C11.46 11.558 13 9.325 13 7C13 5.67392 12.4732 4.40215 11.5355 3.46447C10.5979 2.52678 9.32608 2 8 2ZM8 5.5C8.19698 5.5 8.39204 5.5388 8.57403 5.61418C8.75601 5.68956 8.92137 5.80005 9.06066 5.93934C9.19995 6.07863 9.31044 6.24399 9.38582 6.42597C9.4612 6.60796 9.5 6.80302 9.5 7C9.5 7.19698 9.4612 7.39204 9.38582 7.57402C9.31044 7.75601 9.19995 7.92137 9.06066 8.06066C8.92137 8.19995 8.75601 8.31044 8.57403 8.38582C8.39204 8.4612 8.19698 8.5 8 8.5C7.60218 8.5 7.22064 8.34196 6.93934 8.06066C6.65804 7.77936 6.5 7.39782 6.5 7C6.5 6.60217 6.65804 6.22064 6.93934 5.93934C7.22064 5.65803 7.60218 5.5 8 5.5Z" fill="#646571"/>
</svg>
