<svg width="24" height="24" viewBox="0 0 24 24" fill="none" xmlns="http://www.w3.org/2000/svg">
<path fill-rule="evenodd" clip-rule="evenodd" d="M16.8 6H12V8.4H16.8V6ZM16.8 9.6H12V10.8H16.8V9.6ZM10.8 6H7.20002V10.8H10.8V6ZM10.8 13.2H16.8V12H10.8V13.2ZM14.4 15.6H16.8V14.4H14.4V15.6ZM16.8 16.8H7.20002V18H16.8V16.8ZM13.2 14.4H7.20002V15.6H13.2V14.4ZM9.60002 12H7.20002V13.2H9.60002V12ZM20.4 1.2H3.60002C3.28176 1.2 2.97654 1.32643 2.7515 1.55147C2.52645 1.77651 2.40002 2.08174 2.40002 2.4V21.6C2.40002 21.9183 2.52645 22.2235 2.7515 22.4485C2.97654 22.6736 3.28176 22.8 3.60002 22.8H20.4C20.7183 22.8 21.0235 22.6736 21.2486 22.4485C21.4736 22.2235 21.6 21.9183 21.6 21.6V2.4C21.6 2.08174 21.4736 1.77651 21.2486 1.55147C21.0235 1.32643 20.7183 1.2 20.4 1.2ZM19.2 20.4H4.80002V3.6H19.2V20.4Z" fill="#3F5883"/>
</svg>
