<svg width="24" height="24" viewBox="0 0 24 24" fill="none" xmlns="http://www.w3.org/2000/svg">
<path d="M14.1094 2.15625C14.1094 0.993094 13.1632 0 12 0C10.8368 0 9.89062 0.993094 9.89062 2.15625C9.89062 3.31941 10.8368 4.26562 12 4.26562C13.1632 4.26562 14.1094 3.31941 14.1094 2.15625Z" fill="#F60F00"/>
<path d="M15.5156 7.78125C15.5156 5.84283 13.9384 4.26562 12 4.26562C10.0616 4.26562 8.48438 5.84283 8.48438 7.78125V8.48438H15.5156V7.78125Z" fill="#F60F00"/>
<path d="M20.4375 12.7031C21.6025 12.7031 22.5469 11.7587 22.5469 10.5938C22.5469 9.42877 21.6025 8.48438 20.4375 8.48438C19.2725 8.48438 18.3281 9.42877 18.3281 10.5938C18.3281 11.7587 19.2725 12.7031 20.4375 12.7031Z" fill="#F60F00"/>
<path d="M20.4375 12.7031C18.4991 12.7031 16.9219 14.2803 16.9219 16.2188V16.9219H24V16.2188C24 14.2803 22.3759 12.7031 20.4375 12.7031Z" fill="#F60F00"/>
<path d="M3.5625 12.7031C4.72748 12.7031 5.67188 11.7587 5.67188 10.5938C5.67188 9.42877 4.72748 8.48438 3.5625 8.48438C2.39752 8.48438 1.45312 9.42877 1.45312 10.5938C1.45312 11.7587 2.39752 12.7031 3.5625 12.7031Z" fill="#F60F00"/>
<path d="M7.07812 16.2188C7.07812 14.2803 5.50092 12.7031 3.5625 12.7031C1.62408 12.7031 0 14.2803 0 16.2188V16.9219H7.07812V16.2188Z" fill="#F60F00"/>
<path d="M12 19.7344C13.165 19.7344 14.1094 18.79 14.1094 17.625C14.1094 16.46 13.165 15.5156 12 15.5156C10.835 15.5156 9.89062 16.46 9.89062 17.625C9.89062 18.79 10.835 19.7344 12 19.7344Z" fill="#F60F00"/>
<path d="M15.5156 23.25C15.5156 21.3116 13.9384 19.7344 12 19.7344C10.0616 19.7344 8.48438 21.3116 8.48438 23.25V24H15.5156V23.25Z" fill="#F60F00"/>
<path d="M4.26562 6.375C4.26562 5.21184 5.21184 4.26562 6.375 4.26562H7.07812V2.85938H6.375C4.43658 2.85938 2.85938 4.43658 2.85938 6.375V7.07812H4.26562V6.375Z" fill="#F60F00"/>
<path d="M19.7344 6.375V7.07812H21.1406V6.375C21.1406 4.43658 19.5634 2.85938 17.625 2.85938H16.9219V4.26562H17.625C18.7882 4.26562 19.7344 5.21184 19.7344 6.375Z" fill="#F60F00"/>
<path d="M2.85938 18.3281V19.0312C2.85938 20.9697 4.43658 22.5469 6.375 22.5469H7.07812V21.1406H6.375C5.21184 21.1406 4.26562 20.1944 4.26562 19.0312V18.3281H2.85938Z" fill="#F60F00"/>
<path d="M21.1406 19.0312V18.3281H19.7344V19.0312C19.7344 20.1944 18.7882 21.1406 17.625 21.1406H16.9219V22.5469H17.625C19.5634 22.5469 21.1406 20.9697 21.1406 19.0312Z" fill="#F60F00"/>
</svg>
