<svg width="24" height="24" viewBox="0 0 24 24" fill="none" xmlns="http://www.w3.org/2000/svg">
<g clip-path="url(#clip0)">
<path d="M5.67188 0V4.45312C5.67188 8.54663 8.34262 12.0267 12 13.3049C15.6574 12.0267 18.3281 8.54663 18.3281 4.45312V0H5.67188Z" fill="#F60F00"/>
<path d="M5.36902 9.17897C3.0878 7.2832 1.62206 4.49916 1.42823 1.40625H4.26562V0H0V0.703125C0 2.13356 0.241219 3.53616 0.717 4.87191C1.17684 6.16289 1.84486 7.36312 2.70248 8.43928C3.97177 10.032 5.62148 11.289 7.47127 12.0963C6.61223 11.2465 5.90142 10.2595 5.36902 9.17897Z" fill="#F60F00"/>
<path d="M19.735 0V1.40625H22.5724C22.3785 4.49916 20.9128 7.2832 18.6316 9.17897C18.0992 10.2595 17.3884 11.2465 16.5293 12.0963C18.3791 11.289 20.0288 10.032 21.2981 8.43928C22.1558 7.36312 22.8238 6.16289 23.2836 4.87191C23.7594 3.53616 24.0006 2.13356 24.0006 0.703125V0H19.735Z" fill="#F60F00"/>
<path d="M17.3906 22.5937V16.9687H13.4062V14.2528C13.1003 14.3928 12.7861 14.5198 12.4639 14.6324L12 14.7946L11.5361 14.6324C11.2139 14.5198 10.8997 14.3928 10.5938 14.2528V16.9687H6.60938V22.5937H5.20312V24H18.7969V22.5937H17.3906ZM14.1094 20.7187H9.89062V19.3125H14.1094V20.7187Z" fill="#F60F00"/>
</g>
<defs>
<clipPath id="clip0">
<rect width="24" height="24" fill="white"/>
</clipPath>
</defs>
</svg>
