<svg width="32" height="32" viewBox="0 0 32 32" fill="none" xmlns="http://www.w3.org/2000/svg">
<path d="M16.0003 29.3334C18.1898 29.3349 20.3458 28.7968 22.2777 27.7665C24.2096 26.7363 25.8578 25.2457 27.0763 23.4267C28.5521 21.2314 29.3382 18.6452 29.3337 16C29.3337 8.63602 23.3643 2.66669 16.0003 2.66669C8.63633 2.66669 2.66699 8.63602 2.66699 16M16.0003 24C18.1221 24 20.1569 23.1572 21.6572 21.6569C23.1575 20.1566 24.0003 18.1218 24.0003 16C24.0003 13.8783 23.1575 11.8435 21.6572 10.3432C20.1569 8.84288 18.1221 8.00002 16.0003 8.00002C13.8786 8.00002 11.8438 8.84288 10.3435 10.3432C8.84318 11.8435 8.00033 13.8783 8.00033 16C8.00033 18.1218 8.84318 20.1566 10.3435 21.6569C11.8438 23.1572 13.8786 24 16.0003 24V24ZM10.667 10.6667L14.667 14.6667L10.667 10.6667Z" stroke="#F60F00" stroke-width="2.66667"/>
</svg>
