<svg width="32" height="32" viewBox="0 0 32 32" fill="none" xmlns="http://www.w3.org/2000/svg">
<path d="M15.9994 25.3334C14.7735 25.3351 13.5593 25.0945 12.4266 24.6254C11.294 24.1563 10.2652 23.468 9.39941 22.6001L15.9994 16.0001V6.66675C17.2251 6.66675 18.4388 6.90816 19.5711 7.37721C20.7035 7.84625 21.7324 8.53374 22.5991 9.40042C23.4658 10.2671 24.1532 11.296 24.6223 12.4284C25.0913 13.5607 25.3327 14.7744 25.3327 16.0001C25.3327 17.2258 25.0913 18.4394 24.6223 19.5718C24.1532 20.7042 23.4658 21.7331 22.5991 22.5997C21.7324 23.4664 20.7035 24.1539 19.5711 24.623C18.4388 25.092 17.2251 25.3334 15.9994 25.3334Z" fill="#F70F00"/>
<path fill-rule="evenodd" clip-rule="evenodd" d="M30.6663 16C30.6663 24.1 24.0997 30.6667 15.9997 30.6667C7.89967 30.6667 1.33301 24.1 1.33301 16C1.33301 7.90004 7.89967 1.33337 15.9997 1.33337C24.0997 1.33337 30.6663 7.90004 30.6663 16ZM27.9997 16C27.9997 17.5759 27.6893 19.1363 27.0862 20.5922C26.4832 22.0481 25.5993 23.371 24.485 24.4853C23.3707 25.5996 22.0478 26.4835 20.5919 27.0866C19.136 27.6897 17.5755 28 15.9997 28C14.4238 28 12.8634 27.6897 11.4075 27.0866C9.95157 26.4835 8.6287 25.5996 7.51439 24.4853C6.40009 23.371 5.51618 22.0481 4.91312 20.5922C4.31006 19.1363 3.99967 17.5759 3.99967 16C3.99967 12.8174 5.26396 9.7652 7.51439 7.51476C9.76483 5.26432 12.8171 4.00004 15.9997 4.00004C19.1823 4.00004 22.2345 5.26432 24.485 7.51476C26.7354 9.7652 27.9997 12.8174 27.9997 16Z" fill="#F70F00"/>
</svg>
