<svg width="32" height="32" viewBox="0 0 32 32" fill="none" xmlns="http://www.w3.org/2000/svg">
<path d="M17.6004 8.79995C17.6004 7.31474 17.0104 5.89036 15.9602 4.84015C14.91 3.78995 13.4856 3.19995 12.0004 3.19995C10.5152 3.19995 9.0908 3.78995 8.04059 4.84015C6.99039 5.89036 6.40039 7.31474 6.40039 8.79995C6.40039 10.2852 6.99039 11.7095 8.04059 12.7597C9.0908 13.81 10.5152 14.4 12.0004 14.4C13.4856 14.4 14.91 13.81 15.9602 12.7597C17.0104 11.7095 17.6004 10.2852 17.6004 8.79995Z" fill="#F70F00"/>
<path d="M23.2002 14.3999C23.7255 14.4001 24.2458 14.2968 24.7312 14.0959C25.2166 13.8949 25.6576 13.6003 26.0291 13.2288C26.4006 12.8573 26.6952 12.4163 26.8961 11.9309C27.0971 11.4455 27.2004 10.9253 27.2002 10.3999C27.2002 9.60878 26.9656 8.83542 26.5261 8.17762C26.0865 7.51983 25.4618 7.00714 24.7309 6.70439C24 6.40164 23.1958 6.32242 22.4198 6.47676C21.6439 6.6311 20.9312 7.01207 20.3718 7.57148C19.8124 8.13089 19.4314 8.84362 19.2771 9.61954C19.1227 10.3955 19.2019 11.1997 19.5047 11.9306C19.8074 12.6615 20.3201 13.2863 20.9779 13.7258C21.6357 14.1653 22.4091 14.3999 23.2002 14.3999Z" fill="#F70F00"/>
<path d="M17.565 23.0032L25.293 15.2752C25.8544 14.7142 26.6157 14.3992 27.4094 14.3995C28.203 14.3998 28.964 14.7154 29.525 15.2768C30.086 15.8382 30.401 16.5995 30.4007 17.3931C30.4004 18.1868 30.0848 18.9478 29.5234 19.5088L21.7954 27.2352C21.3452 27.6856 20.7812 28.0053 20.1634 28.16L17.7666 28.7584C17.5284 28.8175 17.279 28.8139 17.0425 28.7482C16.8061 28.6825 16.5906 28.5567 16.4171 28.3832C16.2435 28.2096 16.1178 27.9942 16.052 27.7577C15.9863 27.5213 15.9828 27.2718 16.0418 27.0336L16.6402 24.6368C16.7954 24.0192 17.1138 23.4528 17.565 23.0048V23.0032Z" fill="#F70F00"/>
<path d="M17.6002 16C18.204 15.9996 18.7956 16.1701 19.3067 16.4917C19.8177 16.8134 20.2273 17.273 20.4882 17.8176L16.4322 21.872C15.7762 22.528 15.3122 23.3488 15.0866 24.248L14.4866 26.6448C14.4546 26.776 14.4306 26.9056 14.4162 27.0336C13.6658 27.1424 12.8578 27.2 11.9986 27.2C6.541 27.2 3.2002 24.8864 3.2002 21.6V19.2C3.2002 18.3513 3.53734 17.5374 4.13745 16.9373C4.73757 16.3371 5.5515 16 6.4002 16H17.6002Z" fill="#F70F00"/>
</svg>
