<svg width="24" height="24" viewBox="0 0 24 24" fill="none" xmlns="http://www.w3.org/2000/svg">
<path fill-rule="evenodd" clip-rule="evenodd" d="M7.75748 7.75687C7.89813 7.61621 8.0889 7.5372 8.28781 7.5372C8.48672 7.5372 8.67749 7.61621 8.81814 7.75687L14.9625 13.9013L14.9615 9.34786C14.9615 9.14869 15.0406 8.95768 15.1814 8.81685C15.3223 8.67602 15.5133 8.59691 15.7124 8.59691C15.9116 8.59691 16.1026 8.67603 16.2434 8.81685C16.3843 8.95768 16.4634 9.14869 16.4634 9.34786L16.4634 15.7118C16.4635 15.8105 16.4442 15.9082 16.4065 15.9993C16.3688 16.0905 16.3135 16.1733 16.2437 16.2431C16.174 16.3129 16.0911 16.3682 16 16.4059C15.9088 16.4435 15.8111 16.4629 15.7124 16.4628H9.34847C9.1493 16.4628 8.9583 16.3836 8.81747 16.2428C8.67664 16.102 8.59752 15.911 8.59752 15.7118C8.59752 15.5127 8.67664 15.3216 8.81747 15.1808C8.9583 15.04 9.1493 14.9609 9.34847 14.9609L13.9019 14.9619L7.75748 8.81753C7.61683 8.67687 7.53781 8.48611 7.53781 8.2872C7.53781 8.08828 7.61683 7.89752 7.75748 7.75687Z" fill="#F70F00"/>
</svg>
