<svg width="16" height="16" viewBox="0 0 16 16" fill="none" xmlns="http://www.w3.org/2000/svg">
<g clip-path="url(#clip0)">
<path d="M4.18267 13.7034L4.44121 13.8327C5.51858 14.479 6.72513 14.7807 7.93174 14.7807C11.7239 14.7807 14.8265 11.678 14.8265 7.88591C14.8265 6.07606 14.0939 4.30927 12.8012 3.01648C11.5084 1.72369 9.78465 0.99115 7.93174 0.99115C4.13962 0.99115 1.03691 4.09379 1.08003 7.92903C1.08003 9.22176 1.46786 10.4715 2.11423 11.5487L2.28658 11.8073L1.59716 14.3498L4.18267 13.7034Z" fill="#F4F5F8"/>
<path d="M13.5337 2.32698C12.0685 0.81878 10.0432 0 7.97476 0C3.5794 0 0.0458052 3.57665 0.0888631 7.92896C0.0888631 9.30792 0.476693 10.6438 1.12312 11.8504L0.00268555 15.9442L4.18264 14.8668C5.34613 15.5133 6.63885 15.8149 7.9317 15.8149C12.284 15.8149 15.8176 12.2382 15.8176 7.88596C15.8176 5.77439 14.9988 3.79212 13.5337 2.32698H13.5337ZM7.97476 14.4791C6.81127 14.4791 5.64778 14.1775 4.65665 13.5742L4.39811 13.4449L1.89878 14.0912L2.54514 11.635L2.37279 11.3764C0.476693 8.31691 1.38165 4.26613 4.48429 2.37004C7.58693 0.474008 11.5945 1.37897 13.4906 4.48161C15.3867 7.58425 14.4817 11.5918 11.3791 13.4879C10.3879 14.1343 9.18137 14.479 7.97476 14.479V14.4791ZM11.7669 9.69588L11.2929 9.4804C11.2929 9.4804 10.6035 9.17875 10.1725 8.96327C10.1294 8.96327 10.0863 8.92016 10.0432 8.92016C9.91391 8.92016 9.82773 8.96327 9.74156 9.00639C9.74156 9.00639 9.6985 9.04945 9.09519 9.73893C9.05208 9.82511 8.9659 9.86823 8.87972 9.86823H8.8366C8.79354 9.86823 8.70737 9.82511 8.66425 9.78205L8.44877 9.69588C7.97476 9.4804 7.54387 9.22181 7.1991 8.8771C7.11292 8.79092 6.98363 8.70474 6.89745 8.61856C6.5958 8.31691 6.29415 7.97214 6.07873 7.58431L6.03561 7.49813C5.99255 7.45501 5.99255 7.41195 5.94943 7.32578C5.94943 7.2396 5.94943 7.15342 5.99255 7.1103C5.99255 7.1103 6.16491 6.89483 6.29415 6.76559C6.38038 6.67935 6.42344 6.55012 6.50962 6.46394C6.5958 6.33464 6.63892 6.16229 6.5958 6.03299C6.55274 5.81751 6.03561 4.65402 5.90638 4.39549C5.82014 4.26619 5.73402 4.22314 5.60472 4.18002H5.13072C5.04448 4.18002 4.95836 4.22314 4.87212 4.22314L4.829 4.26619C4.74282 4.30931 4.65665 4.39549 4.57047 4.43855C4.48429 4.52479 4.44117 4.6109 4.35499 4.69714C4.05334 5.08497 3.88099 5.55898 3.88099 6.03299C3.88099 6.3777 3.96716 6.72247 4.09646 7.02412L4.13958 7.15342C4.52741 7.97214 5.04448 8.70474 5.73402 9.3511L5.90638 9.52346C6.03561 9.65276 6.16491 9.73893 6.25109 9.86817C7.15604 10.6439 8.19024 11.2041 9.35373 11.5057C9.48302 11.5488 9.65538 11.5488 9.78468 11.5919H10.2156C10.431 11.5919 10.6896 11.5057 10.862 11.4196C10.9912 11.3334 11.0774 11.3334 11.1636 11.2472L11.2498 11.161C11.336 11.0748 11.4222 11.0317 11.5084 10.9455C11.5945 10.8594 11.6807 10.7732 11.7238 10.6869C11.81 10.5146 11.8531 10.2991 11.8962 10.0837V9.78205C11.8962 9.78205 11.8531 9.73893 11.7669 9.69588Z" fill="#F60F00"/>
</g>
<defs>
<clipPath id="clip0">
<rect width="15.82" height="16" fill="white"/>
</clipPath>
</defs>
</svg>
