<svg width="24" height="17" viewBox="0 0 24 17" fill="none" xmlns="http://www.w3.org/2000/svg">
<g clip-path="url(#clip0)">
<path d="M23.5057 2.64457C23.2289 1.6106 22.4184 0.79536 21.3904 0.516984C19.5123 0 11.9999 0 11.9999 0C11.9999 0 4.48763 0 2.60954 0.4971C1.60131 0.775476 0.771002 1.6106 0.494232 2.64457C0 4.53355 0 8.4507 0 8.4507C0 8.4507 0 12.3877 0.494232 14.2568C0.771002 15.2908 1.58154 16.106 2.60954 16.3844C4.50739 16.9014 11.9999 16.9014 11.9999 16.9014C11.9999 16.9014 19.5123 16.9014 21.3904 16.4043C22.4184 16.1259 23.2289 15.3107 23.5057 14.2767C23.9999 12.3877 23.9999 8.47059 23.9999 8.47059C23.9999 8.47059 24.0197 4.53355 23.5057 2.64457Z" fill="#FF0000"/>
<path d="M15.855 8.45068L9.60791 4.83179V12.0696L15.855 8.45068Z" fill="white"/>
</g>
<defs>
<clipPath id="clip0">
<rect width="24" height="16.9014" fill="white"/>
</clipPath>
</defs>
</svg>
